Gruppo-Regular.ufo
<glyph name="quotedbl" format="1">
  <advance width="403"/>
  <unicode hex="0022"/>
  <outline>
    <contour>
      <point x="253" y="810" type="curve" smooth="yes"/>
      <point x="249.04" y="857.428"/>
      <point x="238.482" y="1086.03"/>
      <point x="230" y="1099" type="curve"/>
      <point x="230" y="1123"/>
      <point x="252" y="1135"/>
      <point x="279" y="1135" type="curve" smooth="yes"/>
      <point x="306" y="1135"/>
      <point x="327" y="1123"/>
      <point x="327" y="1099" type="curve"/>
      <point x="320.167" y="1093.78"/>
      <point x="308.226" y="852.158"/>
      <point x="305" y="810" type="curve" smooth="yes"/>
      <point x="303" y="795"/>
      <point x="291" y="789"/>
      <point x="279" y="789" type="curve" smooth="yes"/>
      <point x="267" y="789"/>
      <point x="254.899" y="795.121"/>
    </contour>
    <contour>
      <point x="97" y="810" type="curve" smooth="yes"/>
      <point x="93.0404" y="857.428"/>
      <point x="82.4816" y="1086.03"/>
      <point x="74" y="1099" type="curve"/>
      <point x="74" y="1123"/>
      <point x="96" y="1135"/>
      <point x="123" y="1135" type="curve" smooth="yes"/>
      <point x="150" y="1135"/>
      <point x="171" y="1123"/>
      <point x="171" y="1099" type="curve"/>
      <point x="164.167" y="1093.78"/>
      <point x="152.226" y="852.158"/>
      <point x="149" y="810" type="curve" smooth="yes"/>
      <point x="147" y="795"/>
      <point x="135" y="789"/>
      <point x="123" y="789" type="curve" smooth="yes"/>
      <point x="111" y="789"/>
      <point x="98.8995" y="795.121"/>
    </contour>
  </outline>
</glyph>
<glyph name="numbersign" format="1">
  <advance width="758"/>
  <unicode hex="0023"/>
  <outline>
    <contour>
      <point x="432" y="353" type="line"/>
      <point x="259" y="353" type="line"/>
      <point x="211" y="58" type="line" smooth="yes"/>
      <point x="206" y="26"/>
      <point x="197" y="0"/>
      <point x="170" y="0" type="curve" smooth="yes"/>
      <point x="147" y="0"/>
      <point x="142" y="12"/>
      <point x="142" y="29" type="curve" smooth="yes"/>
      <point x="142" y="38"/>
      <point x="143" y="47"/>
      <point x="145" y="57" type="curve" smooth="yes"/>
      <point x="193" y="353" type="line"/>
      <point x="120" y="353" type="line" smooth="yes"/>
      <point x="88" y="353"/>
      <point x="62" y="358"/>
      <point x="62" y="385" type="curve" smooth="yes"/>
      <point x="62" y="418"/>
      <point x="89" y="419"/>
      <point x="119" y="419" type="curve" smooth="yes"/>
      <point x="204" y="419" type="line"/>
      <point x="242" y="650" type="line"/>
      <point x="159" y="650" type="line" smooth="yes"/>
      <point x="127" y="650"/>
      <point x="101" y="655"/>
      <point x="101" y="683" type="curve" smooth="yes"/>
      <point x="101" y="715"/>
      <point x="127" y="717"/>
      <point x="158" y="717" type="curve" smooth="yes"/>
      <point x="253" y="717" type="line"/>
      <point x="308" y="1054" type="line" smooth="yes"/>
      <point x="313" y="1087"/>
      <point x="320" y="1114"/>
      <point x="353" y="1114" type="curve" smooth="yes"/>
      <point x="372" y="1114"/>
      <point x="376" y="1102"/>
      <point x="376" y="1083" type="curve" smooth="yes"/>
      <point x="376" y="1075"/>
      <point x="375" y="1065"/>
      <point x="374" y="1056" type="curve" smooth="yes"/>
      <point x="319" y="717" type="line"/>
      <point x="492" y="717" type="line"/>
      <point x="547" y="1054" type="line" smooth="yes"/>
      <point x="552" y="1087"/>
      <point x="560" y="1114"/>
      <point x="592" y="1114" type="curve" smooth="yes"/>
      <point x="611" y="1114"/>
      <point x="616" y="1100"/>
      <point x="616" y="1081" type="curve" smooth="yes"/>
      <point x="616" y="1073"/>
      <point x="615" y="1065"/>
      <point x="614" y="1056" type="curve" smooth="yes"/>
      <point x="558" y="717" type="line"/>
      <point x="635" y="717" type="line" smooth="yes"/>
      <point x="667" y="717"/>
      <point x="695" y="714"/>
      <point x="695" y="681" type="curve" smooth="yes"/>
      <point x="695" y="654"/>
      <point x="665" y="650"/>
      <point x="636" y="650" type="curve" smooth="yes"/>
      <point x="547" y="650" type="line"/>
      <point x="509" y="419" type="line"/>
      <point x="596" y="419" type="line" smooth="yes"/>
      <point x="628" y="419"/>
      <point x="656" y="416"/>
      <point x="656" y="384" type="curve" smooth="yes"/>
      <point x="656" y="356"/>
      <point x="626" y="353"/>
      <point x="597" y="353" type="curve" smooth="yes"/>
      <point x="498" y="353" type="line"/>
      <point x="450" y="58" type="line" smooth="yes"/>
      <point x="445" y="26"/>
      <point x="436" y="0"/>
      <point x="409" y="0" type="curve" smooth="yes"/>
      <point x="386" y="0"/>
      <point x="381" y="12"/>
      <point x="381" y="29" type="curve" smooth="yes"/>
      <point x="381" y="38"/>
      <point x="382" y="47"/>
      <point x="384" y="57" type="curve" smooth="yes"/>
    </contour>
    <contour>
      <point x="443" y="419" type="line"/>
      <point x="481" y="650" type="line"/>
      <point x="308" y="650" type="line"/>
      <point x="270" y="419" type="line"/>
    </contour>
  </outline>
</glyph>
<glyph name="percent" format="1">
  <advance width="1268"/>
  <unicode hex="0025"/>
  <outline>
    <contour>
      <point x="128" y="801" type="curve" smooth="yes"/>
      <point x="128" y="705"/>
      <point x="212" y="625"/>
      <point x="312" y="625" type="curve" smooth="yes"/>
      <point x="412" y="625"/>
      <point x="494" y="705"/>
      <point x="494" y="801" type="curve" smooth="yes"/>
      <point x="494" y="898"/>
      <point x="412" y="978"/>
      <point x="312" y="978" type="curve" smooth="yes"/>
      <point x="212" y="978"/>
      <point x="128" y="898"/>
    </contour>
    <contour>
      <point x="60" y="803" type="curve" smooth="yes"/>
      <point x="60" y="934"/>
      <point x="173" y="1045"/>
      <point x="312" y="1045" type="curve" smooth="yes"/>
      <point x="451" y="1045"/>
      <point x="564" y="934"/>
      <point x="564" y="803" type="curve" smooth="yes"/>
      <point x="564" y="671"/>
      <point x="451" y="562"/>
      <point x="312" y="562" type="curve" smooth="yes"/>
      <point x="173" y="562"/>
      <point x="60" y="671"/>
    </contour>
    <contour>
      <point x="777" y="345" type="curve" smooth="yes"/>
      <point x="777" y="249"/>
      <point x="857" y="169"/>
      <point x="961" y="169" type="curve" smooth="yes"/>
      <point x="1061" y="169"/>
      <point x="1143" y="249"/>
      <point x="1143" y="345" type="curve" smooth="yes"/>
      <point x="1143" y="442"/>
      <point x="1061" y="522"/>
      <point x="961" y="522" type="curve" smooth="yes"/>
      <point x="857" y="522"/>
      <point x="777" y="442"/>
    </contour>
    <contour>
      <point x="707" y="347" type="curve" smooth="yes"/>
      <point x="707" y="478"/>
      <point x="821" y="589"/>
      <point x="961" y="589" type="curve" smooth="yes"/>
      <point x="1100" y="589"/>
      <point x="1213" y="478"/>
      <point x="1213" y="347" type="curve" smooth="yes"/>
      <point x="1213" y="215"/>
      <point x="1100" y="106"/>
      <point x="961" y="106" type="curve" smooth="yes"/>
      <point x="821" y="106"/>
      <point x="707" y="215"/>
    </contour>
    <contour>
      <point x="973" y="1042" type="curve" smooth="yes"/>
      <point x="360" y="46" type="line" smooth="yes"/>
      <point x="343" y="19"/>
      <point x="331" y="-2"/>
      <point x="311" y="-2" type="curve" smooth="yes"/>
      <point x="283" y="-2"/>
      <point x="275" y="20"/>
      <point x="275" y="32" type="curve" smooth="yes"/>
      <point x="275" y="52"/>
      <point x="284" y="62"/>
      <point x="295" y="80" type="curve" smooth="yes"/>
      <point x="906" y="1075" type="line" smooth="yes"/>
      <point x="921" y="1100"/>
      <point x="932" y="1124"/>
      <point x="956" y="1124" type="curve" smooth="yes"/>
      <point x="985" y="1124"/>
      <point x="992" y="1107"/>
      <point x="992" y="1094" type="curve" smooth="yes"/>
      <point x="992" y="1075"/>
      <point x="983" y="1058"/>
    </contour>
  </outline>
</glyph>
<glyph name="ampersand" format="1">
  <advance width="1164"/>
  <unicode hex="0026"/>
  <outline>
    <contour>
      <point x="471" y="1085" type="curve" smooth="yes"/>
      <point x="343" y="1085"/>
      <point x="251" y="1012"/>
      <point x="251" y="905" type="curve" smooth="yes"/>
      <point x="251" y="821"/>
      <point x="305" y="750"/>
      <point x="358" y="695" type="curve"/>
      <point x="675" y="695" type="line"/>
      <point x="675" y="855" type="line" smooth="yes"/>
      <point x="675" y="876"/>
      <point x="695" y="886"/>
      <point x="715" y="886" type="curve" smooth="yes"/>
      <point x="735" y="886"/>
      <point x="755" y="876"/>
      <point x="755" y="855" type="curve" smooth="yes"/>
      <point x="755" y="695" type="line"/>
      <point x="916" y="695" type="line" smooth="yes"/>
      <point x="952" y="695"/>
      <point x="957" y="685"/>
      <point x="957" y="666" type="curve" smooth="yes"/>
      <point x="957" y="651"/>
      <point x="952" y="636"/>
      <point x="916" y="636" type="curve" smooth="yes"/>
      <point x="755" y="636" type="line"/>
      <point x="755" y="279" type="line" smooth="yes"/>
      <point x="755" y="84"/>
      <point x="840" y="49"/>
      <point x="944" y="49" type="curve" smooth="yes"/>
      <point x="1032" y="49"/>
      <point x="1102" y="124"/>
      <point x="1123" y="124" type="curve" smooth="yes"/>
      <point x="1136" y="124"/>
      <point x="1145" y="113"/>
      <point x="1145" y="100" type="curve" smooth="yes"/>
      <point x="1145" y="66"/>
      <point x="1038" y="-10"/>
      <point x="930" y="-10" type="curve" smooth="yes"/>
      <point x="850" y="-10"/>
      <point x="783" y="11"/>
      <point x="736" y="67" type="curve"/>
      <point x="644" y="11"/>
      <point x="538" y="-18"/>
      <point x="434" y="-18" type="curve" smooth="yes"/>
      <point x="237" y="-18"/>
      <point x="58" y="90"/>
      <point x="58" y="327" type="curve" smooth="yes"/>
      <point x="58" y="555"/>
      <point x="215" y="640"/>
      <point x="322" y="671" type="curve"/>
      <point x="264" y="699"/>
      <point x="181" y="767"/>
      <point x="181" y="909" type="curve" smooth="yes"/>
      <point x="181" y="1057"/>
      <point x="317" y="1144"/>
      <point x="457" y="1144" type="curve" smooth="yes"/>
      <point x="657" y="1144"/>
      <point x="708" y="1073"/>
      <point x="708" y="1058" type="curve" smooth="yes"/>
      <point x="708" y="1043"/>
      <point x="698" y="1027"/>
      <point x="682" y="1027" type="curve" smooth="yes"/>
      <point x="660" y="1027"/>
      <point x="603" y="1085"/>
    </contour>
    <contour>
      <point x="134" y="331" type="curve" smooth="yes"/>
      <point x="134" y="127"/>
      <point x="279" y="48"/>
      <point x="436" y="48" type="curve" smooth="yes"/>
      <point x="531" y="48"/>
      <point x="627" y="76"/>
      <point x="702" y="123" type="curve"/>
      <point x="685" y="163"/>
      <point x="675" y="215"/>
      <point x="675" y="279" type="curve" smooth="yes"/>
      <point x="675" y="636" type="line"/>
      <point x="364" y="636" type="line"/>
      <point x="223" y="591"/>
      <point x="134" y="507"/>
    </contour>
  </outline>
</glyph>
<glyph name="quotesingle" format="1">
  <advance width="246"/>
  <unicode hex="0027"/>
  <outline>
    <contour>
      <point x="97" y="810" type="curve"/>
      <point x="93.0404" y="857.428"/>
      <point x="82.4816" y="1086.03"/>
      <point x="74" y="1099" type="curve"/>
      <point x="74" y="1123"/>
      <point x="96" y="1135"/>
      <point x="123" y="1135" type="curve" smooth="yes"/>
      <point x="150" y="1135"/>
      <point x="171" y="1123"/>
      <point x="171" y="1099" type="curve"/>
      <point x="164.167" y="1093.78"/>
      <point x="152.226" y="852.158"/>
      <point x="149" y="810" type="curve" smooth="yes"/>
      <point x="147" y="795"/>
      <point x="135" y="789"/>
      <point x="123" y="789" type="curve" smooth="yes"/>
      <point x="111" y="789"/>
      <point x="97" y="795"/>
    </contour>
  </outline>
</glyph>
<glyph name="parenright" format="1">
  <advance width="444"/>
  <unicode hex="0029"/>
  <outline>
    <contour>
      <point x="374" y="551" type="curve" smooth="yes"/>
      <point x="374" y="185"/>
      <point x="255" y="-177"/>
      <point x="-37" y="-177" type="curve" smooth="yes"/>
      <point x="-59" y="-177"/>
      <point x="-70" y="-161"/>
      <point x="-70" y="-145" type="curve" smooth="yes"/>
      <point x="-70" y="-129"/>
      <point x="-59" y="-113"/>
      <point x="-37" y="-113" type="curve" smooth="yes"/>
      <point x="206" y="-113"/>
      <point x="296" y="219"/>
      <point x="296" y="552" type="curve" smooth="yes"/>
      <point x="296" y="885"/>
      <point x="206" y="1217"/>
      <point x="-37" y="1217" type="curve" smooth="yes"/>
      <point x="-59" y="1217"/>
      <point x="-70" y="1233"/>
      <point x="-70" y="1249" type="curve" smooth="yes"/>
      <point x="-70" y="1265"/>
      <point x="-59" y="1281"/>
      <point x="-37" y="1281" type="curve" smooth="yes"/>
      <point x="255" y="1281"/>
      <point x="374" y="917"/>
    </contour>
  </outline>
</glyph>
<glyph name="plus" format="1">
  <advance width="797"/>
  <unicode hex="002B"/>
  <outline>
    <contour>
      <point x="107" y="511" type="curve" smooth="yes"/>
      <point x="368" y="511" type="line"/>
      <point x="368" y="742" type="line" smooth="yes"/>
      <point x="368" y="765"/>
      <point x="382" y="775"/>
      <point x="398" y="775" type="curve" smooth="yes"/>
      <point x="413" y="775"/>
      <point x="428" y="765"/>
      <point x="428" y="742" type="curve" smooth="yes"/>
      <point x="428" y="511" type="line"/>
      <point x="690" y="511" type="line" smooth="yes"/>
      <point x="715" y="511"/>
      <point x="726" y="498"/>
      <point x="726" y="483" type="curve" smooth="yes"/>
      <point x="726" y="470"/>
      <point x="715" y="457"/>
      <point x="690" y="457" type="curve" smooth="yes"/>
      <point x="428" y="457" type="line"/>
      <point x="428" y="224" type="line" smooth="yes"/>
      <point x="428" y="201"/>
      <point x="413" y="192"/>
      <point x="398" y="192" type="curve" smooth="yes"/>
      <point x="382" y="192"/>
      <point x="368" y="201"/>
      <point x="368" y="224" type="curve" smooth="yes"/>
      <point x="368" y="457" type="line"/>
      <point x="107" y="457" type="line" smooth="yes"/>
      <point x="82" y="457"/>
      <point x="71" y="470"/>
      <point x="71" y="483" type="curve" smooth="yes"/>
      <point x="71" y="498"/>
      <point x="82" y="511"/>
    </contour>
  </outline>
</glyph>
<glyph name="comma" format="1">
  <advance width="323"/>
  <unicode hex="002C"/>
  <outline>
    <contour>
      <point x="85" y="-124" type="curve"/>
      <point x="85" y="-88" type="line"/>
      <point x="134" y="-88"/>
      <point x="148" y="-60"/>
      <point x="148" y="-21" type="curve"/>
      <point x="126" y="-14"/>
      <point x="99" y="6"/>
      <point x="99" y="46" type="curve" smooth="yes"/>
      <point x="99" y="85"/>
      <point x="131" y="105"/>
      <point x="169" y="105" type="curve" smooth="yes"/>
      <point x="200" y="105"/>
      <point x="237" y="81"/>
      <point x="237" y="31" type="curve" smooth="yes"/>
      <point x="237" y="-37"/>
      <point x="187" y="-124"/>
    </contour>
  </outline>
</glyph>
<glyph name="hyphen" format="1">
  <advance width="603"/>
  <unicode hex="002D"/>
  <outline>
    <contour>
      <point x="122" y="518" type="curve" smooth="yes"/>
      <point x="481" y="518" type="line" smooth="yes"/>
      <point x="500" y="518"/>
      <point x="508" y="497"/>
      <point x="508" y="480" type="curve" smooth="yes"/>
      <point x="508" y="464"/>
      <point x="500" y="444"/>
      <point x="481" y="444" type="curve" smooth="yes"/>
      <point x="122" y="444" type="line" smooth="yes"/>
      <point x="103" y="444"/>
      <point x="95" y="464"/>
      <point x="95" y="480" type="curve" smooth="yes"/>
      <point x="95" y="497"/>
      <point x="103" y="518"/>
    </contour>
  </outline>
</glyph>
<glyph name="period" format="1">
  <advance width="312"/>
  <unicode hex="002E"/>
  <outline>
    <contour>
      <point x="93" y="52" type="curve" smooth="yes"/>
      <point x="93" y="90"/>
      <point x="118" y="117"/>
      <point x="157" y="117" type="curve" smooth="yes"/>
      <point x="193" y="117"/>
      <point x="223" y="90"/>
      <point x="223" y="52" type="curve" smooth="yes"/>
      <point x="223" y="15"/>
      <point x="193" y="-10"/>
      <point x="157" y="-10" type="curve" smooth="yes"/>
      <point x="118" y="-10"/>
      <point x="93" y="15"/>
    </contour>
  </outline>
</glyph>
<glyph name="zero" format="1">
  <advance width="1060"/>
  <unicode hex="0030"/>
  <outline>
    <contour>
      <point x="92" y="557" type="curve" smooth="yes"/>
      <point x="92" y="905"/>
      <point x="167" y="1135"/>
      <point x="530" y="1135" type="curve" smooth="yes"/>
      <point x="893" y="1135"/>
      <point x="968" y="905"/>
      <point x="968" y="557" type="curve" smooth="yes"/>
      <point x="968" y="209"/>
      <point x="893" y="-21"/>
      <point x="530" y="-21" type="curve" smooth="yes"/>
      <point x="167" y="-21"/>
      <point x="92" y="209"/>
    </contour>
    <contour>
      <point x="892" y="557" type="curve" smooth="yes"/>
      <point x="892" y="905"/>
      <point x="822" y="1069"/>
      <point x="530" y="1069" type="curve" smooth="yes"/>
      <point x="242" y="1069"/>
      <point x="168" y="905"/>
      <point x="168" y="557" type="curve" smooth="yes"/>
      <point x="168" y="209"/>
      <point x="242" y="45"/>
      <point x="530" y="45" type="curve" smooth="yes"/>
      <point x="822" y="45"/>
      <point x="892" y="209"/>
    </contour>
  </outline>
</glyph>
<glyph name="two" format="1">
  <advance width="925"/>
  <unicode hex="0032"/>
  <outline>
    <contour>
      <point x="770.222" y="761.341" type="curve" smooth="yes"/>
      <point x="770.222" y="979.758"/>
      <point x="628.706" y="1065"/>
      <point x="433" y="1065" type="curve" smooth="yes"/>
      <point x="321.61" y="1065"/>
      <point x="226.404" y="1038"/>
      <point x="155" y="1015" type="curve" smooth="yes"/>
      <point x="146" y="1012"/>
      <point x="138" y="1010"/>
      <point x="129" y="1010" type="curve" smooth="yes"/>
      <point x="106" y="1010"/>
      <point x="93" y="1021"/>
      <point x="93" y="1036" type="curve" smooth="yes"/>
      <point x="93" y="1087"/>
      <point x="289.893" y="1134"/>
      <point x="433" y="1134" type="curve" smooth="yes"/>
      <point x="709.189" y="1134"/>
      <point x="844.089" y="990.955"/>
      <point x="844.089" y="756.631" type="curve" smooth="yes"/>
      <point x="844.089" y="365.106"/>
      <point x="213.203" y="304.613"/>
      <point x="152" y="70" type="curve"/>
      <point x="774" y="70" type="line" smooth="yes"/>
      <point x="805" y="70"/>
      <point x="819" y="53"/>
      <point x="819" y="34" type="curve" smooth="yes"/>
      <point x="819" y="15"/>
      <point x="805" y="-2"/>
      <point x="774" y="-2" type="curve" smooth="yes"/>
      <point x="119" y="-2" type="line" smooth="yes"/>
      <point x="91.2009" y="-2"/>
      <point x="74.5743" y="9.18862"/>
      <point x="74.5743" y="33.6812" type="curve" smooth="yes"/>
      <point x="74.5743" y="364.119"/>
      <point x="770.222" y="382.529"/>
    </contour>
  </outline>
</glyph>
<glyph name="three" format="1">
  <advance width="946"/>
  <unicode hex="0033"/>
  <outline>
    <contour>
      <point x="95.1161" y="1037.44" type="curve" smooth="yes"/>
      <point x="95.1161" y="1102.72"/>
      <point x="326.121" y="1135"/>
      <point x="445" y="1135" type="curve" smooth="yes"/>
      <point x="745.408" y="1135"/>
      <point x="832.976" y="994.749"/>
      <point x="832.976" y="862.439" type="curve" smooth="yes"/>
      <point x="832.976" y="754.651"/>
      <point x="784.05" y="638.721"/>
      <point x="596" y="604" type="curve"/>
      <point x="769.674" y="574.699"/>
      <point x="859.055" y="462.071"/>
      <point x="859.055" y="300.251" type="curve" smooth="yes"/>
      <point x="859.055" y="119.491"/>
      <point x="739.347" y="-21"/>
      <point x="445" y="-21" type="curve" smooth="yes"/>
      <point x="287" y="-21"/>
      <point x="91" y="28"/>
      <point x="91" y="77" type="curve" smooth="yes"/>
      <point x="91" y="92"/>
      <point x="104.519" y="107.859"/>
      <point x="127" y="103" type="curve" smooth="yes"/>
      <point x="196.394" y="87.7368"/>
      <point x="261" y="45"/>
      <point x="445" y="45" type="curve" smooth="yes"/>
      <point x="698.973" y="45"/>
      <point x="791.126" y="150.659"/>
      <point x="791.126" y="303.137" type="curve" smooth="yes"/>
      <point x="791.126" y="444.77"/>
      <point x="718.113" y="570"/>
      <point x="431" y="570" type="curve" smooth="yes"/>
      <point x="289" y="570" type="line" smooth="yes"/>
      <point x="265" y="570"/>
      <point x="254" y="586"/>
      <point x="254" y="602" type="curve" smooth="yes"/>
      <point x="254" y="618"/>
      <point x="265" y="634"/>
      <point x="289" y="634" type="curve" smooth="yes"/>
      <point x="422" y="634" type="line" smooth="yes"/>
      <point x="692.132" y="634"/>
      <point x="761.568" y="739.185"/>
      <point x="761.568" y="856.894" type="curve" smooth="yes"/>
      <point x="761.568" y="963.709"/>
      <point x="698.874" y="1074"/>
      <point x="448" y="1074" type="curve" smooth="yes"/>
      <point x="304.407" y="1074"/>
      <point x="229.743" y="1052.23"/>
      <point x="153" y="1016" type="curve" smooth="yes"/>
      <point x="143.29" y="1010.81"/>
      <point x="134.458" y="1008.63"/>
      <point x="126.78" y="1008.63" type="curve" smooth="yes"/>
      <point x="107.194" y="1008.63"/>
      <point x="95.1161" y="1022.82"/>
    </contour>
  </outline>
</glyph>
<glyph name="four" format="1">
  <advance width="1058"/>
  <unicode hex="0034"/>
  <outline>
    <contour>
      <point x="1044" y="381" type="curve" smooth="yes"/>
      <point x="1044" y="352"/>
      <point x="1007" y="347"/>
      <point x="962" y="347" type="curve" smooth="yes"/>
      <point x="942" y="347"/>
      <point x="919" y="348"/>
      <point x="898" y="348" type="curve" smooth="yes"/>
      <point x="753" y="348" type="line"/>
      <point x="753" y="70" type="line" smooth="yes"/>
      <point x="753" y="35"/>
      <point x="753" y="0"/>
      <point x="718" y="0" type="curve" smooth="yes"/>
      <point x="679" y="0"/>
      <point x="681" y="35"/>
      <point x="681" y="70" type="curve" smooth="yes"/>
      <point x="681" y="348" type="line"/>
      <point x="173" y="348" type="line" smooth="yes"/>
      <point x="100" y="348"/>
      <point x="100" y="383"/>
      <point x="100" y="418" type="curve" smooth="yes"/>
      <point x="100" y="1047" type="line" smooth="yes"/>
      <point x="100" y="1079"/>
      <point x="100" y="1114"/>
      <point x="139" y="1114" type="curve" smooth="yes"/>
      <point x="174" y="1114"/>
      <point x="173" y="1076"/>
      <point x="173" y="1047" type="curve" smooth="yes"/>
      <point x="173" y="418" type="line"/>
      <point x="681" y="418" type="line"/>
      <point x="681" y="1044" type="line" smooth="yes"/>
      <point x="681" y="1079"/>
      <point x="679" y="1114"/>
      <point x="718" y="1114" type="curve" smooth="yes"/>
      <point x="753" y="1114"/>
      <point x="753" y="1079"/>
      <point x="753" y="1044" type="curve" smooth="yes"/>
      <point x="753" y="418" type="line"/>
      <point x="972" y="418" type="line" smooth="yes"/>
      <point x="1016" y="418"/>
      <point x="1044" y="420"/>
    </contour>
  </outline>
</glyph>
<glyph name="six" format="1">
  <advance width="1023"/>
  <unicode hex="0036"/>
  <outline>
    <contour>
      <point x="170" y="526" type="curve"/>
      <point x="170" y="162"/>
      <point x="260" y="49"/>
      <point x="516" y="49" type="curve" smooth="yes"/>
      <point x="797" y="49"/>
      <point x="872" y="176"/>
      <point x="872" y="306" type="curve" smooth="yes"/>
      <point x="872" y="532"/>
      <point x="750" y="557"/>
      <point x="499" y="557" type="curve" smooth="yes"/>
      <point x="332" y="557"/>
      <point x="236" y="542"/>
    </contour>
    <contour>
      <point x="93" y="557" type="curve" smooth="yes"/>
      <point x="93" y="975"/>
      <point x="181" y="1134"/>
      <point x="545" y="1134" type="curve" smooth="yes"/>
      <point x="703" y="1134"/>
      <point x="899" y="1085"/>
      <point x="899" y="1036" type="curve" smooth="yes"/>
      <point x="899" y="1021"/>
      <point x="886" y="1010"/>
      <point x="863" y="1010" type="curve" smooth="yes"/>
      <point x="836" y="1010"/>
      <point x="785" y="1031"/>
      <point x="745" y="1040" type="curve" smooth="yes"/>
      <point x="689" y="1053"/>
      <point x="617" y="1065"/>
      <point x="545" y="1065" type="curve" smooth="yes"/>
      <point x="306" y="1065"/>
      <point x="170" y="1020"/>
      <point x="170" y="579" type="curve"/>
      <point x="215" y="601"/>
      <point x="300" y="627"/>
      <point x="499" y="627" type="curve" smooth="yes"/>
      <point x="795" y="627"/>
      <point x="948" y="562"/>
      <point x="948" y="298" type="curve" smooth="yes"/>
      <point x="948" y="135"/>
      <point x="836" y="-20"/>
      <point x="512" y="-20" type="curve" smooth="yes"/>
      <point x="203" y="-20"/>
      <point x="93" y="127"/>
    </contour>
  </outline>
</glyph>
<glyph name="seven" format="1">
  <advance width="707"/>
  <unicode hex="0037"/>
  <outline>
    <contour>
      <point x="675" y="1024" type="curve" smooth="yes"/>
      <point x="251" y="57" type="line" smooth="yes"/>
      <point x="240" y="33"/>
      <point x="224" y="23"/>
      <point x="209" y="23" type="curve" smooth="yes"/>
      <point x="190" y="23"/>
      <point x="176" y="37"/>
      <point x="176" y="60" type="curve" smooth="yes"/>
      <point x="176" y="67"/>
      <point x="177" y="75"/>
      <point x="180" y="82" type="curve" smooth="yes"/>
      <point x="599" y="1044" type="line"/>
      <point x="74" y="1044" type="line" smooth="yes"/>
      <point x="49" y="1044"/>
      <point x="36" y="1060"/>
      <point x="36" y="1079" type="curve" smooth="yes"/>
      <point x="36" y="1096"/>
      <point x="49" y="1114"/>
      <point x="74" y="1114" type="curve" smooth="yes"/>
      <point x="629" y="1114" type="line" smooth="yes"/>
      <point x="670" y="1114"/>
      <point x="683" y="1090"/>
      <point x="683" y="1063" type="curve" smooth="yes"/>
      <point x="683" y="1049"/>
      <point x="680" y="1036"/>
    </contour>
  </outline>
</glyph>
<glyph name="colon" format="1">
  <advance width="393"/>
  <unicode hex="003A"/>
  <outline>
    <contour>
      <point x="133" y="204" type="curve" smooth="yes"/>
      <point x="133" y="242"/>
      <point x="158" y="269"/>
      <point x="197" y="269" type="curve" smooth="yes"/>
      <point x="233" y="269"/>
      <point x="263" y="242"/>
      <point x="263" y="204" type="curve" smooth="yes"/>
      <point x="263" y="167"/>
      <point x="233" y="142"/>
      <point x="197" y="142" type="curve" smooth="yes"/>
      <point x="158" y="142"/>
      <point x="133" y="167"/>
    </contour>
    <contour>
      <point x="133" y="561" type="curve" smooth="yes"/>
      <point x="133" y="599"/>
      <point x="158" y="626"/>
      <point x="197" y="626" type="curve" smooth="yes"/>
      <point x="233" y="626"/>
      <point x="263" y="599"/>
      <point x="263" y="561" type="curve" smooth="yes"/>
      <point x="263" y="524"/>
      <point x="233" y="499"/>
      <point x="197" y="499" type="curve" smooth="yes"/>
      <point x="158" y="499"/>
      <point x="133" y="524"/>
    </contour>
  </outline>
</glyph>
<glyph name="semicolon" format="1">
  <advance width="379"/>
  <unicode hex="003B"/>
  <outline>
    <contour>
      <point x="125" y="35" type="curve"/>
      <point x="125" y="71" type="line"/>
      <point x="174" y="71"/>
      <point x="188" y="99"/>
      <point x="188" y="138" type="curve"/>
      <point x="166" y="145"/>
      <point x="139" y="165"/>
      <point x="139" y="205" type="curve" smooth="yes"/>
      <point x="139" y="244"/>
      <point x="171" y="264"/>
      <point x="209" y="264" type="curve" smooth="yes"/>
      <point x="240" y="264"/>
      <point x="277" y="240"/>
      <point x="277" y="190" type="curve" smooth="yes"/>
      <point x="277" y="122"/>
      <point x="227" y="35"/>
    </contour>
    <contour>
      <point x="123" y="561" type="curve" smooth="yes"/>
      <point x="123" y="599"/>
      <point x="148" y="626"/>
      <point x="187" y="626" type="curve" smooth="yes"/>
      <point x="223" y="626"/>
      <point x="253" y="599"/>
      <point x="253" y="561" type="curve" smooth="yes"/>
      <point x="253" y="524"/>
      <point x="223" y="499"/>
      <point x="187" y="499" type="curve" smooth="yes"/>
      <point x="148" y="499"/>
      <point x="123" y="524"/>
    </contour>
  </outline>
</glyph>
<glyph name="less" format="1">
  <advance width="775"/>
  <unicode hex="003C"/>
  <outline>
    <contour>
      <point x="65" y="335" type="curve" smooth="yes"/>
      <point x="65" y="364"/>
      <point x="84" y="373"/>
      <point x="116" y="388" type="curve" smooth="yes"/>
      <point x="620" y="622" type="line" smooth="yes"/>
      <point x="628" y="625"/>
      <point x="633" y="627"/>
      <point x="640" y="627" type="curve" smooth="yes"/>
      <point x="660" y="627"/>
      <point x="674" y="610"/>
      <point x="674" y="591" type="curve" smooth="yes"/>
      <point x="674" y="576"/>
      <point x="667" y="565"/>
      <point x="653" y="559" type="curve" smooth="yes"/>
      <point x="166" y="335" type="line"/>
      <point x="653" y="112" type="line" smooth="yes"/>
      <point x="668" y="105"/>
      <point x="674" y="92"/>
      <point x="674" y="79" type="curve" smooth="yes"/>
      <point x="674" y="62"/>
      <point x="660" y="44"/>
      <point x="640" y="44" type="curve" smooth="yes"/>
      <point x="633" y="44"/>
      <point x="627" y="46"/>
      <point x="620" y="49" type="curve" smooth="yes"/>
      <point x="116" y="283" type="line" smooth="yes"/>
      <point x="84" y="298"/>
      <point x="65" y="307"/>
    </contour>
  </outline>
</glyph>
<glyph name="equal" format="1">
  <advance width="906"/>
  <unicode hex="003D"/>
  <outline>
    <contour>
      <point x="781" y="638" type="curve" smooth="yes"/>
      <point x="781" y="623"/>
      <point x="773" y="609"/>
      <point x="756" y="609" type="curve" smooth="yes"/>
      <point x="151" y="609" type="line" smooth="yes"/>
      <point x="134" y="609"/>
      <point x="127" y="623"/>
      <point x="127" y="638" type="curve" smooth="yes"/>
      <point x="127" y="653"/>
      <point x="134" y="667"/>
      <point x="151" y="667" type="curve" smooth="yes"/>
      <point x="756" y="667" type="line" smooth="yes"/>
      <point x="773" y="667"/>
      <point x="781" y="653"/>
    </contour>
    <contour>
      <point x="779" y="499" type="curve" smooth="yes"/>
      <point x="779" y="484"/>
      <point x="771" y="470"/>
      <point x="754" y="470" type="curve" smooth="yes"/>
      <point x="149" y="470" type="line" smooth="yes"/>
      <point x="132" y="470"/>
      <point x="125" y="484"/>
      <point x="125" y="499" type="curve" smooth="yes"/>
      <point x="125" y="514"/>
      <point x="132" y="528"/>
      <point x="149" y="528" type="curve" smooth="yes"/>
      <point x="754" y="528" type="line" smooth="yes"/>
      <point x="771" y="528"/>
      <point x="779" y="514"/>
    </contour>
  </outline>
</glyph>
<glyph name="greater" format="1">
  <advance width="773"/>
  <unicode hex="003E"/>
  <outline>
    <contour>
      <point x="708" y="335" type="curve" smooth="yes"/>
      <point x="708" y="307"/>
      <point x="689" y="298"/>
      <point x="657" y="283" type="curve" smooth="yes"/>
      <point x="153" y="49" type="line" smooth="yes"/>
      <point x="146" y="46"/>
      <point x="140" y="44"/>
      <point x="133" y="44" type="curve" smooth="yes"/>
      <point x="113" y="44"/>
      <point x="99" y="62"/>
      <point x="99" y="79" type="curve" smooth="yes"/>
      <point x="99" y="92"/>
      <point x="105" y="105"/>
      <point x="120" y="112" type="curve" smooth="yes"/>
      <point x="607" y="335" type="line"/>
      <point x="120" y="559" type="line" smooth="yes"/>
      <point x="106" y="565"/>
      <point x="99" y="576"/>
      <point x="99" y="591" type="curve" smooth="yes"/>
      <point x="99" y="610"/>
      <point x="113" y="627"/>
      <point x="133" y="627" type="curve" smooth="yes"/>
      <point x="140" y="627"/>
      <point x="145" y="625"/>
      <point x="153" y="622" type="curve" smooth="yes"/>
      <point x="657" y="388" type="line" smooth="yes"/>
      <point x="689" y="373"/>
      <point x="708" y="364"/>
    </contour>
  </outline>
</glyph>
<glyph name="B" format="1">
  <advance width="1408"/>
  <unicode hex="0042"/>
  <outline>
    <contour>
      <point x="1193" y="326" type="curve" smooth="yes"/>
      <point x="1193" y="510"/>
      <point x="1009" y="564"/>
      <point x="718" y="564" type="curve" smooth="yes"/>
      <point x="245" y="564" type="line"/>
      <point x="245" y="66" type="line"/>
      <point x="808" y="66" type="line" smooth="yes"/>
      <point x="1169" y="66"/>
      <point x="1193" y="193"/>
    </contour>
    <contour>
      <point x="1134" y="836" type="curve" smooth="yes"/>
      <point x="1134" y="972"/>
      <point x="1062" y="1048"/>
      <point x="694" y="1048" type="curve" smooth="yes"/>
      <point x="245" y="1048" type="line"/>
      <point x="245" y="619" type="line"/>
      <point x="718" y="619" type="line" smooth="yes"/>
      <point x="1006" y="619"/>
      <point x="1134" y="656"/>
    </contour>
    <contour>
      <point x="1278" y="326" type="curve"/>
      <point x="1278" y="55"/>
      <point x="1056" y="0"/>
      <point x="770" y="0" type="curve" smooth="yes"/>
      <point x="194" y="0" type="line" smooth="yes"/>
      <point x="171" y="0"/>
      <point x="160" y="15"/>
      <point x="160" y="35" type="curve" smooth="yes"/>
      <point x="160" y="1077" type="line" smooth="yes"/>
      <point x="160" y="1101"/>
      <point x="176" y="1114"/>
      <point x="199" y="1114" type="curve" smooth="yes"/>
      <point x="657" y="1114" type="line" smooth="yes"/>
      <point x="946" y="1114"/>
      <point x="1219" y="1108"/>
      <point x="1219" y="836" type="curve" smooth="yes"/>
      <point x="1219" y="591"/>
      <point x="976" y="593"/>
      <point x="959" y="594" type="curve"/>
      <point x="1121" y="578"/>
      <point x="1275" y="522"/>
    </contour>
  </outline>
</glyph>
<glyph name="D" format="1">
  <advance width="1670"/>
  <unicode hex="0044"/>
  <outline>
    <contour>
      <point x="1462" y="559" type="curve" smooth="yes"/>
      <point x="1462" y="903"/>
      <point x="1321" y="1048"/>
      <point x="887" y="1048" type="curve" smooth="yes"/>
      <point x="245" y="1048" type="line"/>
      <point x="245" y="66" type="line"/>
      <point x="887" y="66" type="line" smooth="yes"/>
      <point x="1321" y="66"/>
      <point x="1462" y="210"/>
    </contour>
    <contour>
      <point x="1547" y="559" type="curve" smooth="yes"/>
      <point x="1547" y="133"/>
      <point x="1322" y="0"/>
      <point x="887" y="0" type="curve" smooth="yes"/>
      <point x="199" y="0" type="line" smooth="yes"/>
      <point x="160" y="0"/>
      <point x="160" y="0"/>
      <point x="160" y="35" type="curve" smooth="yes"/>
      <point x="160" y="1077" type="line" smooth="yes"/>
      <point x="160" y="1116"/>
      <point x="160" y="1114"/>
      <point x="201" y="1114" type="curve" smooth="yes"/>
      <point x="887" y="1114" type="line" smooth="yes"/>
      <point x="1322" y="1114"/>
      <point x="1547" y="975"/>
    </contour>
  </outline>
</glyph>
<glyph name="E" format="1">
  <advance width="1302"/>
  <unicode hex="0045"/>
  <outline>
    <contour>
      <point x="1187" y="35" type="curve" smooth="yes"/>
      <point x="1187" y="-4"/>
      <point x="1160" y="1"/>
      <point x="1121" y="0" type="curve"/>
      <point x="200" y="0" type="line" smooth="yes"/>
      <point x="187" y="0" type="line" smooth="yes"/>
      <point x="161" y="0"/>
      <point x="161" y="4"/>
      <point x="161" y="35" type="curve" smooth="yes"/>
      <point x="161" y="1067" type="line" smooth="yes"/>
      <point x="161" y="1106"/>
      <point x="159" y="1114"/>
      <point x="198" y="1114" type="curve" smooth="yes"/>
      <point x="1111" y="1114" type="line" smooth="yes"/>
      <point x="1150" y="1114"/>
      <point x="1185" y="1118"/>
      <point x="1185" y="1079" type="curve" smooth="yes"/>
      <point x="1185" y="1046"/>
      <point x="1150" y="1048"/>
      <point x="1111" y="1048" type="curve" smooth="yes"/>
      <point x="246" y="1048" type="line"/>
      <point x="246" y="610" type="line"/>
      <point x="1106" y="610" type="line" smooth="yes"/>
      <point x="1135" y="610"/>
      <point x="1158" y="604"/>
      <point x="1158" y="578" type="curve" smooth="yes"/>
      <point x="1158" y="549"/>
      <point x="1139" y="542"/>
      <point x="1113" y="542" type="curve" smooth="yes"/>
      <point x="246" y="542" type="line"/>
      <point x="246" y="66" type="line"/>
      <point x="1113" y="66" type="line" smooth="yes"/>
      <point x="1152" y="66"/>
      <point x="1187" y="68"/>
    </contour>
  </outline>
</glyph>
<glyph name="G" format="1">
  <advance width="1623"/>
  <unicode hex="0047"/>
  <outline>
    <contour>
      <point x="873" y="45" type="curve" smooth="yes"/>
      <point x="1070" y="45"/>
      <point x="1256" y="74"/>
      <point x="1437" y="118" type="curve"/>
      <point x="1437" y="536" type="line"/>
      <point x="927" y="536" type="line" smooth="yes"/>
      <point x="895" y="536"/>
      <point x="856" y="536"/>
      <point x="856" y="571" type="curve" smooth="yes"/>
      <point x="856" y="606"/>
      <point x="893" y="606"/>
      <point x="927" y="606" type="curve" smooth="yes"/>
      <point x="1437" y="606" type="line" smooth="yes"/>
      <point x="1493" y="606"/>
      <point x="1509" y="587"/>
      <point x="1509" y="536" type="curve" smooth="yes"/>
      <point x="1509" y="118" type="line" smooth="yes"/>
      <point x="1509" y="77"/>
      <point x="1472" y="56"/>
      <point x="1437" y="49" type="curve" smooth="yes"/>
      <point x="1240" y="10"/>
      <point x="1057" y="-21"/>
      <point x="873" y="-21" type="curve" smooth="yes"/>
      <point x="377" y="-21"/>
      <point x="123" y="142"/>
      <point x="123" y="557" type="curve" smooth="yes"/>
      <point x="123" y="972"/>
      <point x="377" y="1135"/>
      <point x="873" y="1135" type="curve" smooth="yes"/>
      <point x="1045" y="1135"/>
      <point x="1206" y="1105"/>
      <point x="1373" y="1036" type="curve" smooth="yes"/>
      <point x="1394" y="1027"/>
      <point x="1403" y="1011"/>
      <point x="1403" y="998" type="curve" smooth="yes"/>
      <point x="1403" y="982"/>
      <point x="1390" y="968"/>
      <point x="1371" y="968" type="curve" smooth="yes"/>
      <point x="1365" y="968"/>
      <point x="1359" y="970"/>
      <point x="1352" y="973" type="curve" smooth="yes"/>
      <point x="1199" y="1037"/>
      <point x="1028" y="1069"/>
      <point x="873" y="1069" type="curve" smooth="yes"/>
      <point x="398" y="1069"/>
      <point x="208" y="916"/>
      <point x="208" y="557" type="curve" smooth="yes"/>
      <point x="208" y="198"/>
      <point x="398" y="45"/>
    </contour>
  </outline>
</glyph>
<glyph name="I" format="1">
  <advance width="1031"/>
  <unicode hex="0049"/>
  <outline>
    <contour>
      <point x="473" y="66" type="line"/>
      <point x="473" y="1048" type="line"/>
      <point x="116" y="1048" type="line" smooth="yes"/>
      <point x="81" y="1048"/>
      <point x="43" y="1046"/>
      <point x="43" y="1079" type="curve" smooth="yes"/>
      <point x="43" y="1118"/>
      <point x="84" y="1114"/>
      <point x="116" y="1114" type="curve" smooth="yes"/>
      <point x="915" y="1114" type="line" smooth="yes"/>
      <point x="954" y="1114"/>
      <point x="987" y="1117"/>
      <point x="987" y="1081" type="curve" smooth="yes"/>
      <point x="987" y="1045"/>
      <point x="954" y="1048"/>
      <point x="915" y="1048" type="curve" smooth="yes"/>
      <point x="558" y="1048" type="line"/>
      <point x="558" y="66" type="line"/>
      <point x="915" y="66" type="line" smooth="yes"/>
      <point x="954" y="66"/>
      <point x="987" y="69"/>
      <point x="987" y="33" type="curve" smooth="yes"/>
      <point x="987" y="-3"/>
      <point x="954" y="0"/>
      <point x="915" y="0" type="curve" smooth="yes"/>
      <point x="116" y="0" type="line" smooth="yes"/>
      <point x="84" y="0"/>
      <point x="43" y="-4"/>
      <point x="43" y="35" type="curve" smooth="yes"/>
      <point x="43" y="68"/>
      <point x="81" y="66"/>
      <point x="116" y="66" type="curve" smooth="yes"/>
    </contour>
  </outline>
</glyph>
<glyph name="L" format="1">
  <advance width="1145"/>
  <unicode hex="004C"/>
  <outline>
    <contour>
      <point x="1104" y="0" type="curve" smooth="yes"/>
      <point x="201" y="0" type="line" smooth="yes"/>
      <point x="160" y="0"/>
      <point x="160" y="2"/>
      <point x="160" y="37" type="curve" smooth="yes"/>
      <point x="160" y="1049" type="line" smooth="yes"/>
      <point x="160" y="1084"/>
      <point x="168" y="1114"/>
      <point x="207" y="1114" type="curve" smooth="yes"/>
      <point x="239" y="1114"/>
      <point x="245" y="1081"/>
      <point x="245" y="1049" type="curve" smooth="yes"/>
      <point x="245" y="66" type="line"/>
      <point x="1104" y="66" type="line" smooth="yes"/>
      <point x="1131" y="66"/>
      <point x="1145" y="49"/>
      <point x="1145" y="33" type="curve" smooth="yes"/>
      <point x="1145" y="16"/>
      <point x="1131" y="0"/>
    </contour>
  </outline>
</glyph>
<glyph name="M" format="1">
  <advance width="1768"/>
  <unicode hex="004D"/>
  <outline>
    <contour>
      <point x="264" y="1071" type="curve" smooth="yes"/>
      <point x="884" y="139" type="line"/>
      <point x="1504" y="1071" type="line" smooth="yes"/>
      <point x="1524" y="1102"/>
      <point x="1545" y="1114"/>
      <point x="1565" y="1114" type="curve" smooth="yes"/>
      <point x="1590" y="1114"/>
      <point x="1609" y="1091"/>
      <point x="1609" y="1060" type="curve" smooth="yes"/>
      <point x="1609" y="70" type="line" smooth="yes"/>
      <point x="1609" y="31"/>
      <point x="1605" y="0"/>
      <point x="1566" y="0" type="curve" smooth="yes"/>
      <point x="1533" y="0"/>
      <point x="1524" y="31"/>
      <point x="1524" y="70" type="curve" smooth="yes"/>
      <point x="1524" y="958" type="line"/>
      <point x="933" y="86" type="line" smooth="yes"/>
      <point x="917" y="63"/>
      <point x="901" y="52"/>
      <point x="884" y="52" type="curve" smooth="yes"/>
      <point x="867" y="52"/>
      <point x="850" y="63"/>
      <point x="835" y="86" type="curve" smooth="yes"/>
      <point x="244" y="958" type="line"/>
      <point x="244" y="70" type="line" smooth="yes"/>
      <point x="244" y="31"/>
      <point x="235" y="0"/>
      <point x="202" y="0" type="curve" smooth="yes"/>
      <point x="163" y="0"/>
      <point x="159" y="31"/>
      <point x="159" y="70" type="curve" smooth="yes"/>
      <point x="159" y="1060" type="line" smooth="yes"/>
      <point x="159" y="1091"/>
      <point x="178" y="1114"/>
      <point x="203" y="1114" type="curve" smooth="yes"/>
      <point x="222" y="1114"/>
      <point x="243" y="1102"/>
    </contour>
  </outline>
</glyph>
<glyph name="N" format="1">
  <advance width="1527"/>
  <unicode hex="004E"/>
  <outline>
    <contour>
      <point x="259" y="1081" type="curve" smooth="yes"/>
      <point x="1282" y="128" type="line"/>
      <point x="1282" y="1038" type="line" smooth="yes"/>
      <point x="1282" y="1077"/>
      <point x="1285" y="1114"/>
      <point x="1325" y="1114" type="curve" smooth="yes"/>
      <point x="1360" y="1114"/>
      <point x="1367" y="1079"/>
      <point x="1367" y="1038" type="curve" smooth="yes"/>
      <point x="1367" y="64" type="line" smooth="yes"/>
      <point x="1367" y="21"/>
      <point x="1356" y="0"/>
      <point x="1333" y="0" type="curve" smooth="yes"/>
      <point x="1318" y="0"/>
      <point x="1299" y="10"/>
      <point x="1276" y="31" type="curve" smooth="yes"/>
      <point x="245" y="986" type="line"/>
      <point x="245" y="70" type="line" smooth="yes"/>
      <point x="245" y="31"/>
      <point x="236" y="0"/>
      <point x="204" y="0" type="curve" smooth="yes"/>
      <point x="165" y="0"/>
      <point x="160" y="31"/>
      <point x="160" y="70" type="curve" smooth="yes"/>
      <point x="160" y="1049" type="line" smooth="yes"/>
      <point x="160" y="1089"/>
      <point x="176" y="1111"/>
      <point x="201" y="1111" type="curve" smooth="yes"/>
      <point x="218" y="1111"/>
      <point x="237" y="1101"/>
    </contour>
  </outline>
</glyph>
<glyph name="O" format="1">
  <advance width="1715"/>
  <unicode hex="004F"/>
  <outline>
    <contour>
      <point x="208" y="557" type="curve" smooth="yes"/>
      <point x="208" y="185"/>
      <point x="420" y="45"/>
      <point x="857" y="45" type="curve" smooth="yes"/>
      <point x="1294" y="45"/>
      <point x="1507" y="185"/>
      <point x="1507" y="557" type="curve" smooth="yes"/>
      <point x="1507" y="929"/>
      <point x="1294" y="1069"/>
      <point x="857" y="1069" type="curve" smooth="yes"/>
      <point x="420" y="1069"/>
      <point x="208" y="929"/>
    </contour>
    <contour>
      <point x="1592" y="557" type="curve" smooth="yes"/>
      <point x="1592" y="168"/>
      <point x="1364" y="-21"/>
      <point x="857" y="-21" type="curve" smooth="yes"/>
      <point x="350" y="-21"/>
      <point x="123" y="168"/>
      <point x="123" y="557" type="curve" smooth="yes"/>
      <point x="123" y="946"/>
      <point x="350" y="1135"/>
      <point x="857" y="1135" type="curve" smooth="yes"/>
      <point x="1364" y="1135"/>
      <point x="1592" y="946"/>
    </contour>
  </outline>
</glyph>
<glyph name="P" format="1">
  <advance width="1187"/>
  <unicode hex="0050"/>
  <outline>
    <contour>
      <point x="1069" y="717" type="curve" smooth="yes"/>
      <point x="1069" y="995"/>
      <point x="905" y="1048"/>
      <point x="543" y="1048" type="curve" smooth="yes"/>
      <point x="245" y="1048" type="line"/>
      <point x="245" y="410" type="line"/>
      <point x="543" y="410" type="line" smooth="yes"/>
      <point x="907" y="410"/>
      <point x="1069" y="437"/>
    </contour>
    <contour>
      <point x="1154" y="717" type="curve" smooth="yes"/>
      <point x="1154" y="354"/>
      <point x="873" y="348"/>
      <point x="543" y="348" type="curve" smooth="yes"/>
      <point x="245" y="348" type="line"/>
      <point x="245" y="76" type="line" smooth="yes"/>
      <point x="245" y="37"/>
      <point x="238" y="0"/>
      <point x="206" y="0" type="curve" smooth="yes"/>
      <point x="167" y="0"/>
      <point x="160" y="35"/>
      <point x="160" y="76" type="curve" smooth="yes"/>
      <point x="160" y="1077" type="line" smooth="yes"/>
      <point x="160" y="1116"/>
      <point x="172" y="1114"/>
      <point x="211" y="1114" type="curve" smooth="yes"/>
      <point x="543" y="1114" type="line" smooth="yes"/>
      <point x="907" y="1114"/>
      <point x="1154" y="1065"/>
    </contour>
  </outline>
</glyph>
<glyph name="Q" format="1">
  <advance width="1715"/>
  <unicode hex="0051"/>
  <outline>
    <contour>
      <point x="208" y="557" type="curve" smooth="yes"/>
      <point x="208" y="185"/>
      <point x="420" y="45"/>
      <point x="857" y="45" type="curve" smooth="yes"/>
      <point x="894" y="45"/>
      <point x="929" y="46"/>
      <point x="963" y="48" type="curve"/>
      <point x="951" y="109" type="line" smooth="yes"/>
      <point x="948" y="124"/>
      <point x="945" y="138"/>
      <point x="945" y="150" type="curve" smooth="yes"/>
      <point x="945" y="168"/>
      <point x="953" y="187"/>
      <point x="981" y="187" type="curve" smooth="yes"/>
      <point x="1009" y="187"/>
      <point x="1015" y="158"/>
      <point x="1021" y="126" type="curve" smooth="yes"/>
      <point x="1035" y="54" type="line"/>
      <point x="1352" y="91"/>
      <point x="1507" y="240"/>
      <point x="1507" y="557" type="curve" smooth="yes"/>
      <point x="1507" y="929"/>
      <point x="1294" y="1069"/>
      <point x="857" y="1069" type="curve" smooth="yes"/>
      <point x="420" y="1069"/>
      <point x="208" y="929"/>
    </contour>
    <contour>
      <point x="1592" y="557" type="curve" smooth="yes"/>
      <point x="1592" y="221"/>
      <point x="1422" y="34"/>
      <point x="1049" y="-10" type="curve"/>
      <point x="1074" y="-133" type="line" smooth="yes"/>
      <point x="1077" y="-149"/>
      <point x="1080" y="-164"/>
      <point x="1080" y="-176" type="curve" smooth="yes"/>
      <point x="1080" y="-195"/>
      <point x="1072" y="-209"/>
      <point x="1045" y="-209" type="curve" smooth="yes"/>
      <point x="1016" y="-209"/>
      <point x="1010" y="-180"/>
      <point x="1004" y="-150" type="curve" smooth="yes"/>
      <point x="977" y="-17" type="line"/>
      <point x="939" y="-19"/>
      <point x="899" y="-21"/>
      <point x="857" y="-21" type="curve" smooth="yes"/>
      <point x="350" y="-21"/>
      <point x="123" y="168"/>
      <point x="123" y="557" type="curve" smooth="yes"/>
      <point x="123" y="946"/>
      <point x="350" y="1135"/>
      <point x="857" y="1135" type="curve" smooth="yes"/>
      <point x="1364" y="1135"/>
      <point x="1592" y="946"/>
    </contour>
  </outline>
</glyph>
<glyph name="R" format="1">
  <advance width="1256"/>
  <unicode hex="0052"/>
  <outline>
    <contour>
      <point x="1056" y="768" type="curve" smooth="yes"/>
      <point x="1056" y="1033"/>
      <point x="858" y="1048"/>
      <point x="488" y="1048" type="curve" smooth="yes"/>
      <point x="246" y="1048" type="line"/>
      <point x="246" y="518" type="line"/>
      <point x="621" y="518" type="line" smooth="yes"/>
      <point x="853" y="518"/>
      <point x="1056" y="548"/>
    </contour>
    <contour>
      <point x="1141" y="768" type="curve" smooth="yes"/>
      <point x="1141" y="525"/>
      <point x="912" y="464"/>
      <point x="718" y="456" type="curve"/>
      <point x="1086" y="69" type="line" smooth="yes"/>
      <point x="1098" y="57"/>
      <point x="1103" y="45"/>
      <point x="1103" y="33" type="curve" smooth="yes"/>
      <point x="1103" y="15"/>
      <point x="1089" y="0"/>
      <point x="1069" y="0" type="curve" smooth="yes"/>
      <point x="1055" y="0"/>
      <point x="1037" y="6"/>
      <point x="1021" y="24" type="curve" smooth="yes"/>
      <point x="620" y="452" type="line"/>
      <point x="246" y="452" type="line"/>
      <point x="246" y="76" type="line" smooth="yes"/>
      <point x="246" y="37"/>
      <point x="240" y="0"/>
      <point x="208" y="0" type="curve" smooth="yes"/>
      <point x="169" y="0"/>
      <point x="161" y="35"/>
      <point x="161" y="76" type="curve" smooth="yes"/>
      <point x="161" y="1077" type="line" smooth="yes"/>
      <point x="161" y="1116"/>
      <point x="159" y="1114"/>
      <point x="198" y="1114" type="curve" smooth="yes"/>
      <point x="488" y="1114" type="line" smooth="yes"/>
      <point x="860" y="1114"/>
      <point x="1141" y="1106"/>
    </contour>
  </outline>
</glyph>
<glyph name="T" format="1">
  <advance width="1343"/>
  <unicode hex="0054"/>
  <outline>
    <contour>
      <point x="1325" y="1077" type="curve" smooth="yes"/>
      <point x="1325" y="1044"/>
      <point x="1292" y="1048"/>
      <point x="1253" y="1048" type="curve" smooth="yes"/>
      <point x="716" y="1048" type="line"/>
      <point x="716" y="74" type="line" smooth="yes"/>
      <point x="716" y="35"/>
      <point x="713" y="0"/>
      <point x="674" y="0" type="curve" smooth="yes"/>
      <point x="639" y="0"/>
      <point x="631" y="35"/>
      <point x="631" y="74" type="curve" smooth="yes"/>
      <point x="631" y="1048" type="line"/>
      <point x="92" y="1048" type="line" smooth="yes"/>
      <point x="55" y="1048"/>
      <point x="18" y="1044"/>
      <point x="18" y="1077" type="curve" smooth="yes"/>
      <point x="18" y="1116"/>
      <point x="59" y="1114"/>
      <point x="92" y="1114" type="curve" smooth="yes"/>
      <point x="1253" y="1114" type="line" smooth="yes"/>
      <point x="1292" y="1114"/>
      <point x="1325" y="1116"/>
    </contour>
  </outline>
</glyph>
<glyph name="U" format="1">
  <advance width="1586"/>
  <unicode hex="0055"/>
  <outline>
    <contour>
      <point x="794" y="45" type="curve" smooth="yes"/>
      <point x="1230" y="45"/>
      <point x="1360" y="212"/>
      <point x="1360" y="560" type="curve" smooth="yes"/>
      <point x="1360" y="1044" type="line" smooth="yes"/>
      <point x="1360" y="1079"/>
      <point x="1368" y="1114"/>
      <point x="1401" y="1114" type="curve" smooth="yes"/>
      <point x="1440" y="1114"/>
      <point x="1445" y="1079"/>
      <point x="1445" y="1044" type="curve" smooth="yes"/>
      <point x="1445" y="560" type="line" smooth="yes"/>
      <point x="1445" y="143"/>
      <point x="1230" y="-21"/>
      <point x="794" y="-21" type="curve" smooth="yes"/>
      <point x="358" y="-21"/>
      <point x="141" y="143"/>
      <point x="141" y="560" type="curve" smooth="yes"/>
      <point x="141" y="1044" type="line" smooth="yes"/>
      <point x="141" y="1079"/>
      <point x="147" y="1114"/>
      <point x="186" y="1114" type="curve" smooth="yes"/>
      <point x="219" y="1114"/>
      <point x="226" y="1079"/>
      <point x="226" y="1044" type="curve" smooth="yes"/>
      <point x="226" y="560" type="line" smooth="yes"/>
      <point x="226" y="212"/>
      <point x="358" y="45"/>
    </contour>
  </outline>
</glyph>
<glyph name="W" format="1">
  <advance width="1792"/>
  <unicode hex="0057"/>
  <outline>
    <contour>
      <point x="944" y="1059" type="curve" smooth="yes"/>
      <point x="1276" y="125" type="line"/>
      <point x="1610" y="1059" type="line" smooth="yes"/>
      <point x="1620" y="1086"/>
      <point x="1632" y="1114"/>
      <point x="1655" y="1114" type="curve" smooth="yes"/>
      <point x="1682" y="1114"/>
      <point x="1690" y="1096"/>
      <point x="1690" y="1081" type="curve" smooth="yes"/>
      <point x="1690" y="1066"/>
      <point x="1685" y="1051"/>
      <point x="1678" y="1032" type="curve" smooth="yes"/>
      <point x="1325" y="53" type="line"/>
      <point x="1310" y="22"/>
      <point x="1303" y="0"/>
      <point x="1276" y="0" type="curve" smooth="yes"/>
      <point x="1249" y="0"/>
      <point x="1240" y="22"/>
      <point x="1229" y="53" type="curve" smooth="yes"/>
      <point x="895" y="981" type="line"/>
      <point x="563" y="53" type="line" smooth="yes"/>
      <point x="552" y="22"/>
      <point x="539" y="0"/>
      <point x="514" y="0" type="curve" smooth="yes"/>
      <point x="487" y="0"/>
      <point x="478" y="22"/>
      <point x="467" y="53" type="curve" smooth="yes"/>
      <point x="115" y="1032" type="line" smooth="yes"/>
      <point x="108" y="1051"/>
      <point x="101" y="1066"/>
      <point x="101" y="1081" type="curve" smooth="yes"/>
      <point x="101" y="1096"/>
      <point x="110" y="1114"/>
      <point x="137" y="1114" type="curve" smooth="yes"/>
      <point x="162" y="1114"/>
      <point x="173" y="1086"/>
      <point x="183" y="1059" type="curve" smooth="yes"/>
      <point x="514" y="125" type="line"/>
      <point x="848" y="1059" type="line" smooth="yes"/>
      <point x="858" y="1086"/>
      <point x="869" y="1114"/>
      <point x="893" y="1114" type="curve" smooth="yes"/>
      <point x="924" y="1114"/>
      <point x="932" y="1092"/>
    </contour>
  </outline>
</glyph>
<glyph name="Z" format="1">
  <advance width="1335"/>
  <unicode hex="005A"/>
  <outline>
    <contour>
      <point x="1257" y="1026" type="curve"/>
      <point x="172" y="66" type="line"/>
      <point x="1212" y="66" type="line" smooth="yes"/>
      <point x="1243" y="66"/>
      <point x="1259" y="49"/>
      <point x="1259" y="33" type="curve" smooth="yes"/>
      <point x="1259" y="16"/>
      <point x="1243" y="0"/>
      <point x="1212" y="0" type="curve" smooth="yes"/>
      <point x="120" y="0" type="line" smooth="yes"/>
      <point x="71" y="0"/>
      <point x="47" y="0"/>
      <point x="47" y="36" type="curve" smooth="yes"/>
      <point x="47" y="57"/>
      <point x="58" y="69"/>
      <point x="79" y="88" type="curve" smooth="yes"/>
      <point x="1163" y="1048" type="line"/>
      <point x="120" y="1048" type="line" smooth="yes"/>
      <point x="89" y="1048"/>
      <point x="75" y="1064"/>
      <point x="75" y="1081" type="curve" smooth="yes"/>
      <point x="75" y="1097"/>
      <point x="89" y="1114"/>
      <point x="120" y="1114" type="curve" smooth="yes"/>
      <point x="1208" y="1114" type="line" smooth="yes"/>
      <point x="1255" y="1114"/>
      <point x="1290" y="1112"/>
      <point x="1290" y="1079" type="curve" smooth="yes"/>
      <point x="1290" y="1060"/>
      <point x="1272" y="1042"/>
    </contour>
  </outline>
</glyph>
<glyph name="bracketright" format="1">
  <advance width="390"/>
  <unicode hex="005D"/>
  <outline>
    <contour>
      <point x="58" y="-174" type="curve" smooth="yes"/>
      <point x="58" y="-132"/>
      <point x="117" y="-139"/>
      <point x="204" y="-139" type="curve"/>
      <point x="204" y="1253" type="line"/>
      <point x="130" y="1253" type="line" smooth="yes"/>
      <point x="95" y="1253"/>
      <point x="58" y="1251"/>
      <point x="58" y="1290" type="curve" smooth="yes"/>
      <point x="58" y="1323"/>
      <point x="95" y="1323"/>
      <point x="130" y="1323" type="curve" smooth="yes"/>
      <point x="234" y="1323" type="line" smooth="yes"/>
      <point x="275" y="1323"/>
      <point x="275" y="1292"/>
      <point x="275" y="1253" type="curve" smooth="yes"/>
      <point x="275" y="-139" type="line" smooth="yes"/>
      <point x="275" y="-178"/>
      <point x="276" y="-209"/>
      <point x="236" y="-209" type="curve" smooth="yes"/>
      <point x="130" y="-209" type="line" smooth="yes"/>
      <point x="95" y="-209"/>
      <point x="58" y="-205"/>
    </contour>
  </outline>
</glyph>
<glyph name="asciicircum" format="1">
  <advance width="619"/>
  <unicode hex="005E"/>
  <outline>
    <contour>
      <point x="494" y="997" type="curve"/>
      <point x="312" y="1204" type="line"/>
      <point x="172" y="1049" type="line"/>
      <point x="149" y="1020"/>
      <point x="98" y="954"/>
      <point x="72" y="954" type="curve" smooth="yes"/>
      <point x="53" y="954"/>
      <point x="39" y="976"/>
      <point x="39" y="987" type="curve" smooth="yes"/>
      <point x="39" y="1005"/>
      <point x="54" y="1018"/>
      <point x="70" y="1038" type="curve" smooth="yes"/>
      <point x="104" y="1082"/>
      <point x="262" y="1288"/>
      <point x="310" y="1288" type="curve" smooth="yes"/>
      <point x="325" y="1288"/>
      <point x="337" y="1280"/>
      <point x="348" y="1272" type="curve"/>
      <point x="365" y="1255" type="line"/>
      <point x="551" y="1038" type="line"/>
      <point x="568" y="1022"/>
      <point x="580" y="1006"/>
      <point x="580" y="989" type="curve" smooth="yes"/>
      <point x="580" y="978"/>
      <point x="570" y="954"/>
      <point x="547" y="954" type="curve" smooth="yes"/>
      <point x="531" y="954"/>
      <point x="517" y="974"/>
    </contour>
  </outline>
</glyph>
<glyph name="grave" format="1">
  <advance width="376"/>
  <unicode hex="0060"/>
  <outline>
    <contour>
      <point x="101" y="1289" type="curve" smooth="yes"/>
      <point x="353" y="1013" type="line" smooth="yes"/>
      <point x="358" y="1008"/>
      <point x="361" y="1002"/>
      <point x="361" y="995" type="curve" smooth="yes"/>
      <point x="361" y="980"/>
      <point x="349" y="969"/>
      <point x="334" y="969" type="curve" smooth="yes"/>
      <point x="328" y="969"/>
      <point x="323" y="971"/>
      <point x="319" y="974" type="curve" smooth="yes"/>
      <point x="27" y="1211" type="line" smooth="yes"/>
      <point x="17" y="1219"/>
      <point x="12" y="1228"/>
      <point x="12" y="1239" type="curve" smooth="yes"/>
      <point x="12" y="1268"/>
      <point x="47" y="1300"/>
      <point x="76" y="1300" type="curve" smooth="yes"/>
      <point x="85" y="1300"/>
      <point x="94" y="1296"/>
    </contour>
  </outline>
</glyph>
<glyph name="a" format="1">
  <advance width="1191"/>
  <unicode hex="0061"/>
  <outline>
    <contour>
      <point x="963" y="421" type="curve"/>
      <point x="963" y="686.746"/>
      <point x="813.993" y="727.849"/>
      <point x="587.172" y="727.849" type="curve" smooth="yes"/>
      <point x="379.237" y="727.849"/>
      <point x="290.67" y="697.025"/>
      <point x="227" y="676" type="curve" smooth="yes"/>
      <point x="224" y="675"/>
      <point x="222" y="674"/>
      <point x="219" y="674" type="curve" smooth="yes"/>
      <point x="203" y="674"/>
      <point x="187" y="694"/>
      <point x="187" y="712" type="curve" smooth="yes"/>
      <point x="187" y="720"/>
      <point x="191" y="727"/>
      <point x="199" y="731" type="curve" smooth="yes"/>
      <point x="220.608" y="741.564"/>
      <point x="344.114" y="786.233"/>
      <point x="615.648" y="786.233" type="curve" smooth="yes"/>
      <point x="861.831" y="786.233"/>
      <point x="1044" y="723.483"/>
      <point x="1044" y="388" type="curve" smooth="yes"/>
      <point x="1044" y="70" type="line" smooth="yes"/>
      <point x="1044" y="39"/>
      <point x="1040" y="0"/>
      <point x="1003" y="0" type="curve" smooth="yes"/>
      <point x="972" y="0"/>
      <point x="963" y="31"/>
      <point x="963" y="74" type="curve" smooth="yes"/>
      <point x="963" y="130" type="line"/>
      <point x="903.552" y="68.6928"/>
      <point x="779.049" y="-10"/>
      <point x="502" y="-10" type="curve" smooth="yes"/>
      <point x="296.871" y="-10"/>
      <point x="134" y="56"/>
      <point x="134" y="224" type="curve" smooth="yes"/>
      <point x="134" y="419"/>
      <point x="308" y="477"/>
      <point x="532" y="477" type="curve" smooth="yes"/>
      <point x="702" y="477"/>
      <point x="878" y="458.059"/>
    </contour>
    <contour>
      <point x="214" y="224" type="curve" smooth="yes"/>
      <point x="214" y="97"/>
      <point x="331.091" y="49"/>
      <point x="494" y="49" type="curve" smooth="yes"/>
      <point x="755.924" y="49"/>
      <point x="895.84" y="123"/>
      <point x="963" y="178" type="curve"/>
      <point x="963" y="379" type="line"/>
      <point x="833" y="397"/>
      <point x="682" y="418"/>
      <point x="540" y="418" type="curve" smooth="yes"/>
      <point x="335" y="418"/>
      <point x="214" y="376"/>
    </contour>
  </outline>
</glyph>
<glyph name="b" format="1">
  <advance width="1255"/>
  <unicode hex="0062"/>
  <outline>
    <contour>
      <point x="689" y="727" type="curve"/>
      <point x="529" y="724"/>
      <point x="287" y="691"/>
      <point x="239" y="524" type="curve"/>
      <point x="239" y="140" type="line"/>
      <point x="353" y="97"/>
      <point x="503" y="49"/>
      <point x="689" y="49" type="curve" smooth="yes"/>
      <point x="945" y="49"/>
      <point x="1052" y="153"/>
      <point x="1052" y="396" type="curve" smooth="yes"/>
      <point x="1052" y="648"/>
      <point x="890" y="727"/>
    </contour>
    <contour>
      <point x="689" y="786" type="curve" smooth="yes"/>
      <point x="929" y="786"/>
      <point x="1132" y="697"/>
      <point x="1132" y="396" type="curve" smooth="yes"/>
      <point x="1132" y="97"/>
      <point x="972" y="-10"/>
      <point x="689" y="-10" type="curve" smooth="yes"/>
      <point x="473" y="-10"/>
      <point x="329" y="48"/>
      <point x="239" y="97" type="curve"/>
      <point x="239" y="73" type="line" smooth="yes"/>
      <point x="239" y="34"/>
      <point x="237" y="0"/>
      <point x="198" y="0" type="curve" smooth="yes"/>
      <point x="159" y="0"/>
      <point x="159" y="34"/>
      <point x="159" y="73" type="curve" smooth="yes"/>
      <point x="159" y="1065" type="line" smooth="yes"/>
      <point x="159" y="1108"/>
      <point x="181" y="1114"/>
      <point x="201" y="1114" type="curve" smooth="yes"/>
      <point x="221" y="1114"/>
      <point x="239" y="1108"/>
      <point x="239" y="1065" type="curve" smooth="yes"/>
      <point x="239" y="587" type="line"/>
      <point x="283" y="757"/>
      <point x="552" y="786"/>
    </contour>
  </outline>
</glyph>
<glyph name="c" format="1">
  <advance width="1132"/>
  <unicode hex="0063"/>
  <outline>
    <contour>
      <point x="628" y="727" type="curve" smooth="yes"/>
      <point x="322" y="727"/>
      <point x="200" y="629"/>
      <point x="200" y="385" type="curve" smooth="yes"/>
      <point x="200" y="140"/>
      <point x="342" y="49"/>
      <point x="627" y="49" type="curve" smooth="yes"/>
      <point x="754" y="49"/>
      <point x="900" y="90"/>
      <point x="964" y="122" type="curve" smooth="yes"/>
      <point x="971" y="125"/>
      <point x="978" y="127"/>
      <point x="985" y="127" type="curve" smooth="yes"/>
      <point x="1002" y="127"/>
      <point x="1013" y="116"/>
      <point x="1013" y="101" type="curve" smooth="yes"/>
      <point x="1013" y="90"/>
      <point x="1007" y="78"/>
      <point x="992" y="70" type="curve" smooth="yes"/>
      <point x="876" y="10"/>
      <point x="745" y="-10"/>
      <point x="628" y="-10" type="curve" smooth="yes"/>
      <point x="325" y="-10"/>
      <point x="120" y="74"/>
      <point x="120" y="385" type="curve" smooth="yes"/>
      <point x="120" y="694"/>
      <point x="305" y="786"/>
      <point x="628" y="786" type="curve" smooth="yes"/>
      <point x="745" y="786"/>
      <point x="876" y="766"/>
      <point x="992" y="706" type="curve" smooth="yes"/>
      <point x="1007" y="698"/>
      <point x="1013" y="686"/>
      <point x="1013" y="675" type="curve" smooth="yes"/>
      <point x="1013" y="660"/>
      <point x="1002" y="649"/>
      <point x="985" y="649" type="curve" smooth="yes"/>
      <point x="978" y="649"/>
      <point x="971" y="651"/>
      <point x="964" y="654" type="curve" smooth="yes"/>
      <point x="900" y="686"/>
      <point x="754" y="727"/>
    </contour>
  </outline>
</glyph>
<glyph name="e" format="1">
  <advance width="1130"/>
  <unicode hex="0065"/>
  <outline>
    <contour>
      <point x="201" y="389" type="line"/>
      <point x="206.32" y="126.18"/>
      <point x="339.419" y="48.0246"/>
      <point x="592.194" y="48.0246" type="curve" smooth="yes"/>
      <point x="815.279" y="48.0246"/>
      <point x="924.885" y="124.923"/>
      <point x="970" y="155" type="curve" smooth="yes"/>
      <point x="973" y="157"/>
      <point x="975" y="157"/>
      <point x="978" y="157" type="curve" smooth="yes"/>
      <point x="992" y="157"/>
      <point x="1008" y="140"/>
      <point x="1008" y="124" type="curve" smooth="yes"/>
      <point x="1008" y="118"/>
      <point x="1005" y="111"/>
      <point x="998" y="106" type="curve"/>
      <point x="976.236" y="84.236"/>
      <point x="856.872" y="-10.9518"/>
      <point x="593.307" y="-10.9518" type="curve" smooth="yes"/>
      <point x="259.662" y="-10.9518"/>
      <point x="121" y="136.019"/>
      <point x="121" y="385" type="curve" smooth="yes"/>
      <point x="121" y="694"/>
      <point x="331" y="786"/>
      <point x="600" y="786" type="curve" smooth="yes"/>
      <point x="877" y="786"/>
      <point x="1015" y="676"/>
      <point x="1015" y="479" type="curve" smooth="yes"/>
      <point x="1015" y="443"/>
      <point x="1002" y="379"/>
      <point x="991" y="379" type="curve" smooth="yes"/>
      <point x="697" y="379" type="line"/>
    </contour>
    <contour>
      <point x="600" y="727" type="curve" smooth="yes"/>
      <point x="353" y="727"/>
      <point x="213" y="646"/>
      <point x="202" y="431" type="curve"/>
      <point x="956" y="431" type="line"/>
      <point x="956" y="485" type="line" smooth="yes"/>
      <point x="956" y="618"/>
      <point x="864" y="727"/>
    </contour>
  </outline>
</glyph>
<glyph name="f" format="1">
  <advance width="689"/>
  <unicode hex="0066"/>
  <outline>
    <contour>
      <point x="264" y="816" type="curve" smooth="yes"/>
      <point x="264" y="751" type="line"/>
      <point x="629" y="751" type="line" smooth="yes"/>
      <point x="649" y="751"/>
      <point x="659" y="739"/>
      <point x="659" y="727" type="curve" smooth="yes"/>
      <point x="659" y="715"/>
      <point x="648" y="703"/>
      <point x="629" y="703" type="curve" smooth="yes"/>
      <point x="264" y="703" type="line"/>
      <point x="264" y="49" type="line" smooth="yes"/>
      <point x="264" y="6"/>
      <point x="247" y="0"/>
      <point x="224" y="0" type="curve" smooth="yes"/>
      <point x="205" y="0"/>
      <point x="184" y="6"/>
      <point x="184" y="49" type="curve" smooth="yes"/>
      <point x="184" y="703" type="line"/>
      <point x="96" y="703" type="line" smooth="yes"/>
      <point x="77" y="703"/>
      <point x="68" y="715"/>
      <point x="68" y="727" type="curve" smooth="yes"/>
      <point x="68" y="739"/>
      <point x="77" y="751"/>
      <point x="96" y="751" type="curve" smooth="yes"/>
      <point x="185" y="751" type="line"/>
      <point x="185" y="816" type="line" smooth="yes"/>
      <point x="185" y="1032"/>
      <point x="276" y="1105"/>
      <point x="419" y="1105" type="curve" smooth="yes"/>
      <point x="499" y="1105"/>
      <point x="558" y="1098"/>
      <point x="655" y="1066" type="curve" smooth="yes"/>
      <point x="674" y="1059"/>
      <point x="686" y="1048"/>
      <point x="686" y="1035" type="curve" smooth="yes"/>
      <point x="686" y="1025"/>
      <point x="675" y="1010"/>
      <point x="655" y="1010" type="curve" smooth="yes"/>
      <point x="649" y="1010"/>
      <point x="643" y="1011"/>
      <point x="636" y="1014" type="curve" smooth="yes"/>
      <point x="564" y="1039"/>
      <point x="497" y="1047"/>
      <point x="433" y="1047" type="curve" smooth="yes"/>
      <point x="328" y="1047"/>
      <point x="264" y="1012"/>
    </contour>
  </outline>
</glyph>
<glyph name="g" format="1">
  <advance width="1239"/>
  <unicode hex="0067"/>
  <outline>
    <contour>
      <point x="602" y="-10" type="curve" smooth="yes"/>
      <point x="295.647" y="-10"/>
      <point x="120.908" y="72.9921"/>
      <point x="120.908" y="394.181" type="curve" smooth="yes"/>
      <point x="120.908" y="692.336"/>
      <point x="319.478" y="786"/>
      <point x="611" y="786" type="curve" smooth="yes"/>
      <point x="907.33" y="786"/>
      <point x="979.526" y="670"/>
      <point x="1000" y="594" type="curve"/>
      <point x="1000" y="618"/>
      <point x="997" y="651"/>
      <point x="997" y="682" type="curve" smooth="yes"/>
      <point x="997" y="727"/>
      <point x="1003" y="766"/>
      <point x="1032" y="766" type="curve" smooth="yes"/>
      <point x="1071" y="766"/>
      <point x="1080" y="728"/>
      <point x="1080" y="696" type="curve" smooth="yes"/>
      <point x="1080" y="-23" type="line" smooth="yes"/>
      <point x="1080" y="-234"/>
      <point x="914" y="-340"/>
      <point x="621" y="-340" type="curve" smooth="yes"/>
      <point x="428" y="-340"/>
      <point x="324.71" y="-297.481"/>
      <point x="254" y="-265" type="curve"/>
      <point x="227.263" y="-251.572"/>
      <point x="215.104" y="-230.464"/>
      <point x="215.104" y="-213.775" type="curve" smooth="yes"/>
      <point x="215.104" y="-199.344"/>
      <point x="224.195" y="-188.218"/>
      <point x="240.814" y="-188.218" type="curve" smooth="yes"/>
      <point x="248.249" y="-188.218"/>
      <point x="257.191" y="-190.445"/>
      <point x="267.5" y="-195.6" type="curve" smooth="yes"/>
      <point x="339.749" y="-228.617"/>
      <point x="453.448" y="-270"/>
      <point x="621" y="-270" type="curve" smooth="yes"/>
      <point x="840" y="-270"/>
      <point x="1000" y="-195"/>
      <point x="1000" y="-23" type="curve" smooth="yes"/>
      <point x="1000" y="96" type="line"/>
      <point x="885" y="16"/>
      <point x="734" y="-10"/>
    </contour>
    <contour>
      <point x="619" y="717" type="curve" smooth="yes"/>
      <point x="341.901" y="717"/>
      <point x="201" y="629"/>
      <point x="201" y="383" type="curve" smooth="yes"/>
      <point x="201" y="137"/>
      <point x="305" y="49"/>
      <point x="606" y="49" type="curve" smooth="yes"/>
      <point x="744" y="49"/>
      <point x="891" y="78"/>
      <point x="1000" y="150" type="curve"/>
      <point x="1000" y="524" type="line"/>
      <point x="979.493" y="599"/>
      <point x="906.099" y="717"/>
    </contour>
  </outline>
</glyph>
<glyph name="h" format="1">
  <advance width="1198"/>
  <unicode hex="0068"/>
  <outline>
    <contour>
      <point x="1051" y="418" type="curve" smooth="yes"/>
      <point x="1051" y="72" type="line" smooth="yes"/>
      <point x="1051" y="37"/>
      <point x="1045" y="0"/>
      <point x="1013" y="0" type="curve" smooth="yes"/>
      <point x="974" y="0"/>
      <point x="971" y="37"/>
      <point x="971" y="72" type="curve" smooth="yes"/>
      <point x="971" y="418" type="line" smooth="yes"/>
      <point x="971" y="626"/>
      <point x="920" y="727"/>
      <point x="664" y="727" type="curve" smooth="yes"/>
      <point x="509" y="727"/>
      <point x="287" y="681"/>
      <point x="239" y="524" type="curve"/>
      <point x="239" y="72" type="line" smooth="yes"/>
      <point x="239" y="37"/>
      <point x="233" y="0"/>
      <point x="201" y="0" type="curve" smooth="yes"/>
      <point x="163" y="0"/>
      <point x="159" y="37"/>
      <point x="159" y="72" type="curve" smooth="yes"/>
      <point x="159" y="1044" type="line" smooth="yes"/>
      <point x="159" y="1076"/>
      <point x="163" y="1114"/>
      <point x="201" y="1114" type="curve" smooth="yes"/>
      <point x="233" y="1114"/>
      <point x="239" y="1079"/>
      <point x="239" y="1044" type="curve" smooth="yes"/>
      <point x="239" y="594" type="line"/>
      <point x="283" y="755"/>
      <point x="528" y="786"/>
      <point x="664" y="786" type="curve" smooth="yes"/>
      <point x="952" y="786"/>
      <point x="1051" y="695"/>
    </contour>
  </outline>
</glyph>
<glyph name="i" format="1">
  <advance width="426"/>
  <unicode hex="0069"/>
  <outline>
    <contour>
      <point x="159" y="992" type="curve" smooth="yes"/>
      <point x="159" y="1023"/>
      <point x="181" y="1046"/>
      <point x="212" y="1046" type="curve" smooth="yes"/>
      <point x="243" y="1046"/>
      <point x="267" y="1023"/>
      <point x="267" y="992" type="curve" smooth="yes"/>
      <point x="267" y="961"/>
      <point x="243" y="941"/>
      <point x="212" y="941" type="curve" smooth="yes"/>
      <point x="181" y="941"/>
      <point x="159" y="961"/>
    </contour>
    <contour>
      <point x="252" y="707" type="curve" smooth="yes"/>
      <point x="252" y="63" type="line" smooth="yes"/>
      <point x="252" y="28"/>
      <point x="251" y="0"/>
      <point x="212" y="0" type="curve" smooth="yes"/>
      <point x="175" y="0"/>
      <point x="172" y="24"/>
      <point x="172" y="63" type="curve" smooth="yes"/>
      <point x="172" y="705" type="line" smooth="yes"/>
      <point x="172" y="738"/>
      <point x="177" y="766"/>
      <point x="214" y="766" type="curve" smooth="yes"/>
      <point x="247" y="766"/>
      <point x="252" y="737"/>
    </contour>
  </outline>
</glyph>
<glyph name="j" format="1">
  <advance width="483"/>
  <unicode hex="006A"/>
  <outline>
    <contour>
      <point x="265" y="992" type="curve" smooth="yes"/>
      <point x="265" y="1023"/>
      <point x="287" y="1046"/>
      <point x="318" y="1046" type="curve" smooth="yes"/>
      <point x="349" y="1046"/>
      <point x="373" y="1023"/>
      <point x="373" y="992" type="curve" smooth="yes"/>
      <point x="373" y="961"/>
      <point x="349" y="941"/>
      <point x="318" y="941" type="curve" smooth="yes"/>
      <point x="287" y="941"/>
      <point x="265" y="961"/>
    </contour>
    <contour>
      <point x="359" y="714" type="curve" smooth="yes"/>
      <point x="359" y="94" type="line" smooth="yes"/>
      <point x="359" y="-45"/>
      <point x="355" y="-266"/>
      <point x="66" y="-266" type="curve" smooth="yes"/>
      <point x="31" y="-266"/>
      <point x="0" y="-266"/>
      <point x="0" y="-231" type="curve" smooth="yes"/>
      <point x="0" y="-196"/>
      <point x="31" y="-197"/>
      <point x="66" y="-197" type="curve" smooth="yes"/>
      <point x="287" y="-197"/>
      <point x="279" y="-45"/>
      <point x="279" y="94" type="curve" smooth="yes"/>
      <point x="279" y="714" type="line" smooth="yes"/>
      <point x="279" y="743"/>
      <point x="285" y="766"/>
      <point x="320" y="766" type="curve" smooth="yes"/>
      <point x="359" y="766"/>
      <point x="359" y="743"/>
    </contour>
  </outline>
</glyph>
<glyph name="k" format="1">
  <advance width="999"/>
  <unicode hex="006B"/>
  <outline>
    <contour>
      <point x="453" y="461" type="line"/>
      <point x="904" y="59" type="line" smooth="yes"/>
      <point x="913" y="50"/>
      <point x="917" y="41"/>
      <point x="917" y="30" type="curve" smooth="yes"/>
      <point x="917" y="13"/>
      <point x="904" y="0"/>
      <point x="885" y="0" type="curve" smooth="yes"/>
      <point x="874" y="0"/>
      <point x="863" y="5"/>
      <point x="851" y="16" type="curve" smooth="yes"/>
      <point x="392" y="430" type="line"/>
      <point x="240" y="345" type="line"/>
      <point x="240" y="44" type="line" smooth="yes"/>
      <point x="240" y="13"/>
      <point x="219" y="0"/>
      <point x="200" y="0" type="curve" smooth="yes"/>
      <point x="183" y="0"/>
      <point x="160" y="13"/>
      <point x="160" y="44" type="curve" smooth="yes"/>
      <point x="160" y="1070" type="line" smooth="yes"/>
      <point x="160" y="1097"/>
      <point x="185" y="1110"/>
      <point x="202" y="1110" type="curve" smooth="yes"/>
      <point x="221" y="1110"/>
      <point x="240" y="1097"/>
      <point x="240" y="1070" type="curve" smooth="yes"/>
      <point x="240" y="410" type="line"/>
      <point x="866" y="774" type="line" smooth="yes"/>
      <point x="870" y="776"/>
      <point x="874" y="777"/>
      <point x="879" y="777" type="curve" smooth="yes"/>
      <point x="896" y="777"/>
      <point x="909" y="761"/>
      <point x="909" y="746" type="curve" smooth="yes"/>
      <point x="909" y="737"/>
      <point x="903" y="729"/>
      <point x="892" y="722" type="curve" smooth="yes"/>
    </contour>
  </outline>
</glyph>
<glyph name="l" format="1">
  <advance width="399"/>
  <unicode hex="006C"/>
  <outline>
    <contour>
      <point x="240" y="1044" type="curve" smooth="yes"/>
      <point x="240" y="70" type="line" smooth="yes"/>
      <point x="240" y="31"/>
      <point x="234" y="0"/>
      <point x="201" y="0" type="curve" smooth="yes"/>
      <point x="162" y="0"/>
      <point x="160" y="32"/>
      <point x="160" y="68" type="curve" smooth="yes"/>
      <point x="160" y="1042" type="line" smooth="yes"/>
      <point x="160" y="1081"/>
      <point x="163" y="1114"/>
      <point x="203" y="1114" type="curve" smooth="yes"/>
      <point x="236" y="1114"/>
      <point x="240" y="1079"/>
    </contour>
  </outline>
</glyph>
<glyph name="n" format="1">
  <advance width="1192"/>
  <unicode hex="006E"/>
  <outline>
    <contour>
      <point x="1045" y="418" type="curve" smooth="yes"/>
      <point x="1045" y="72" type="line" smooth="yes"/>
      <point x="1045" y="37"/>
      <point x="1036" y="0"/>
      <point x="1004" y="0" type="curve" smooth="yes"/>
      <point x="965" y="0"/>
      <point x="965" y="37"/>
      <point x="965" y="72" type="curve" smooth="yes"/>
      <point x="965" y="418" type="line" smooth="yes"/>
      <point x="965" y="626"/>
      <point x="916" y="727"/>
      <point x="660" y="727" type="curve" smooth="yes"/>
      <point x="504" y="727"/>
      <point x="287" y="681"/>
      <point x="239" y="524" type="curve"/>
      <point x="239" y="72" type="line" smooth="yes"/>
      <point x="239" y="37"/>
      <point x="235" y="0"/>
      <point x="202" y="0" type="curve" smooth="yes"/>
      <point x="165" y="0"/>
      <point x="159" y="37"/>
      <point x="159" y="72" type="curve" smooth="yes"/>
      <point x="159" y="720" type="line" smooth="yes"/>
      <point x="159" y="742"/>
      <point x="164" y="766"/>
      <point x="201" y="766" type="curve" smooth="yes"/>
      <point x="234" y="766"/>
      <point x="239" y="745"/>
      <point x="239" y="720" type="curve" smooth="yes"/>
      <point x="239" y="610" type="line"/>
      <point x="350.791" y="764.882"/>
      <point x="526.031" y="786"/>
      <point x="663" y="786" type="curve" smooth="yes"/>
      <point x="948.756" y="786"/>
      <point x="1045" y="695"/>
    </contour>
  </outline>
</glyph>
<glyph name="o" format="1">
  <advance width="1240"/>
  <unicode hex="006F"/>
  <outline>
    <contour>
      <point x="620" y="49" type="curve" smooth="yes"/>
      <point x="983" y="49"/>
      <point x="1037" y="222"/>
      <point x="1037" y="385" type="curve" smooth="yes"/>
      <point x="1037" y="633"/>
      <point x="912" y="727"/>
      <point x="620" y="727" type="curve" smooth="yes"/>
      <point x="328" y="727"/>
      <point x="203" y="633"/>
      <point x="203" y="385" type="curve" smooth="yes"/>
      <point x="203" y="222"/>
      <point x="257" y="49"/>
    </contour>
    <contour>
      <point x="620" y="-10" type="curve" smooth="yes"/>
      <point x="252" y="-10"/>
      <point x="123" y="141"/>
      <point x="123" y="385" type="curve" smooth="yes"/>
      <point x="123" y="667"/>
      <point x="279" y="786"/>
      <point x="620" y="786" type="curve" smooth="yes"/>
      <point x="961" y="786"/>
      <point x="1117" y="667"/>
      <point x="1117" y="385" type="curve" smooth="yes"/>
      <point x="1117" y="141"/>
      <point x="988" y="-10"/>
    </contour>
  </outline>
</glyph>
<glyph name="p" format="1">
  <advance width="1255"/>
  <unicode hex="0070"/>
  <outline>
    <contour>
      <point x="689" y="727" type="curve"/>
      <point x="529" y="724"/>
      <point x="287" y="691"/>
      <point x="239" y="524" type="curve"/>
      <point x="239" y="140" type="line"/>
      <point x="353" y="97"/>
      <point x="503" y="49"/>
      <point x="689" y="49" type="curve" smooth="yes"/>
      <point x="945" y="49"/>
      <point x="1052" y="153"/>
      <point x="1052" y="396" type="curve" smooth="yes"/>
      <point x="1052" y="648"/>
      <point x="890" y="727"/>
    </contour>
    <contour>
      <point x="689" y="786" type="curve" smooth="yes"/>
      <point x="929" y="786"/>
      <point x="1132" y="697"/>
      <point x="1132" y="396" type="curve" smooth="yes"/>
      <point x="1132" y="97"/>
      <point x="972" y="-10"/>
      <point x="689" y="-10" type="curve" smooth="yes"/>
      <point x="473" y="-10"/>
      <point x="329" y="48"/>
      <point x="239" y="97" type="curve"/>
      <point x="237" y="-267" type="line" smooth="yes"/>
      <point x="237" y="-302"/>
      <point x="237" y="-337"/>
      <point x="198" y="-337" type="curve" smooth="yes"/>
      <point x="159" y="-337"/>
      <point x="159" y="-300"/>
      <point x="159" y="-261" type="curve" smooth="yes"/>
      <point x="159" y="717" type="line" smooth="yes"/>
      <point x="159" y="760"/>
      <point x="178" y="766"/>
      <point x="197" y="766" type="curve" smooth="yes"/>
      <point x="220" y="766"/>
      <point x="234" y="760"/>
      <point x="234" y="717" type="curve" smooth="yes"/>
      <point x="234" y="585" type="line"/>
      <point x="282" y="755"/>
      <point x="549" y="786"/>
    </contour>
  </outline>
</glyph>
<glyph name="s" format="1">
  <advance width="1182"/>
  <unicode hex="0073"/>
  <outline>
    <contour>
      <point x="992" y="209" type="curve" smooth="yes"/>
      <point x="992" y="494"/>
      <point x="119" y="201"/>
      <point x="119" y="557" type="curve" smooth="yes"/>
      <point x="119" y="740"/>
      <point x="338" y="786"/>
      <point x="550" y="786" type="curve" smooth="yes"/>
      <point x="721" y="786"/>
      <point x="877" y="759"/>
      <point x="1004" y="692" type="curve" smooth="yes"/>
      <point x="1017" y="685"/>
      <point x="1021" y="675"/>
      <point x="1022" y="664" type="curve"/>
      <point x="1022" y="647"/>
      <point x="1009" y="631"/>
      <point x="996" y="631" type="curve" smooth="yes"/>
      <point x="992" y="631"/>
      <point x="989" y="632"/>
      <point x="988" y="633" type="curve" smooth="yes"/>
      <point x="875" y="690"/>
      <point x="729" y="727"/>
      <point x="554" y="727" type="curve" smooth="yes"/>
      <point x="373" y="727"/>
      <point x="199" y="687"/>
      <point x="199" y="557" type="curve" smooth="yes"/>
      <point x="199" y="288"/>
      <point x="1072" y="574"/>
      <point x="1072" y="209" type="curve" smooth="yes"/>
      <point x="1072" y="46"/>
      <point x="853" y="-10"/>
      <point x="617" y="-10" type="curve" smooth="yes"/>
      <point x="474" y="-10"/>
      <point x="270" y="-4"/>
      <point x="155" y="87" type="curve" smooth="yes"/>
      <point x="146" y="94"/>
      <point x="141" y="102"/>
      <point x="141" y="113" type="curve" smooth="yes"/>
      <point x="141" y="130"/>
      <point x="152" y="145"/>
      <point x="167" y="145" type="curve" smooth="yes"/>
      <point x="172" y="145"/>
      <point x="176" y="144"/>
      <point x="179" y="141" type="curve" smooth="yes"/>
      <point x="291" y="64"/>
      <point x="439" y="49"/>
      <point x="607" y="49" type="curve" smooth="yes"/>
      <point x="807" y="49"/>
      <point x="992" y="85"/>
    </contour>
  </outline>
</glyph>
<glyph name="u" format="1">
  <advance width="1178"/>
  <unicode hex="0075"/>
  <outline>
    <contour>
      <point x="938" y="70" type="line" smooth="yes"/>
      <point x="939" y="141" type="line"/>
      <point x="882" y="75"/>
      <point x="768" y="-10"/>
      <point x="545" y="-10" type="curve" smooth="yes"/>
      <point x="260" y="-10"/>
      <point x="147" y="96"/>
      <point x="147" y="348" type="curve" smooth="yes"/>
      <point x="147" y="694" type="line" smooth="yes"/>
      <point x="147" y="729"/>
      <point x="152" y="766"/>
      <point x="187" y="766" type="curve" smooth="yes"/>
      <point x="226" y="766"/>
      <point x="227" y="729"/>
      <point x="227" y="694" type="curve" smooth="yes"/>
      <point x="227" y="348" type="line" smooth="yes"/>
      <point x="227" y="125"/>
      <point x="290" y="49"/>
      <point x="545" y="49" type="curve" smooth="yes"/>
      <point x="731" y="49"/>
      <point x="863" y="120"/>
      <point x="939" y="178" type="curve"/>
      <point x="939" y="694" type="line" smooth="yes"/>
      <point x="939" y="729"/>
      <point x="941" y="766"/>
      <point x="976" y="766" type="curve" smooth="yes"/>
      <point x="1016" y="766"/>
      <point x="1019" y="729"/>
      <point x="1019" y="694" type="curve" smooth="yes"/>
      <point x="1019" y="70" type="line" smooth="yes"/>
      <point x="1019" y="35"/>
      <point x="1013" y="0"/>
      <point x="981" y="0" type="curve" smooth="yes"/>
      <point x="944" y="0"/>
      <point x="938" y="29"/>
      <point x="938" y="61" type="curve" smooth="yes"/>
    </contour>
  </outline>
</glyph>
<glyph name="v" format="1">
  <advance width="1024"/>
  <unicode hex="0076"/>
  <outline>
    <contour>
      <point x="512" y="-10" type="curve" smooth="yes"/>
      <point x="484" y="-10"/>
      <point x="469" y="14"/>
      <point x="461" y="29" type="curve" smooth="yes"/>
      <point x="71" y="695" type="line" smooth="yes"/>
      <point x="63" y="708"/>
      <point x="61" y="720"/>
      <point x="61" y="730" type="curve" smooth="yes"/>
      <point x="61" y="752"/>
      <point x="76" y="766"/>
      <point x="95" y="766" type="curve" smooth="yes"/>
      <point x="110" y="766"/>
      <point x="127" y="756"/>
      <point x="139" y="735" type="curve" smooth="yes"/>
      <point x="512" y="73" type="line"/>
      <point x="885" y="735" type="line" smooth="yes"/>
      <point x="897" y="756"/>
      <point x="914" y="766"/>
      <point x="929" y="766" type="curve" smooth="yes"/>
      <point x="947" y="766"/>
      <point x="963" y="752"/>
      <point x="963" y="730" type="curve" smooth="yes"/>
      <point x="963" y="720"/>
      <point x="960" y="708"/>
      <point x="953" y="695" type="curve" smooth="yes"/>
      <point x="563" y="29" type="line" smooth="yes"/>
      <point x="554" y="14"/>
      <point x="539" y="-10"/>
    </contour>
  </outline>
</glyph>
<glyph name="x" format="1">
  <advance width="1139"/>
  <unicode hex="0078"/>
  <outline>
    <contour>
      <point x="624" y="387" type="line"/>
      <point x="971" y="70" type="line" smooth="yes"/>
      <point x="986" y="56"/>
      <point x="993" y="40"/>
      <point x="993" y="27" type="curve" smooth="yes"/>
      <point x="993" y="10"/>
      <point x="981" y="-3"/>
      <point x="963" y="-3" type="curve" smooth="yes"/>
      <point x="951" y="-3"/>
      <point x="936" y="3"/>
      <point x="921" y="17" type="curve" smooth="yes"/>
      <point x="570" y="337" type="line"/>
      <point x="219" y="17" type="line" smooth="yes"/>
      <point x="204" y="3"/>
      <point x="189" y="-3"/>
      <point x="177" y="-3" type="curve" smooth="yes"/>
      <point x="159" y="-3"/>
      <point x="146" y="10"/>
      <point x="146" y="28" type="curve" smooth="yes"/>
      <point x="146" y="41"/>
      <point x="153" y="55"/>
      <point x="169" y="70" type="curve" smooth="yes"/>
      <point x="516" y="387" type="line"/>
      <point x="165" y="698" type="line" smooth="yes"/>
      <point x="151" y="710"/>
      <point x="145" y="723"/>
      <point x="145" y="735" type="curve" smooth="yes"/>
      <point x="145" y="752"/>
      <point x="159" y="766"/>
      <point x="178" y="766" type="curve" smooth="yes"/>
      <point x="190" y="766"/>
      <point x="205" y="761"/>
      <point x="219" y="748" type="curve" smooth="yes"/>
      <point x="570" y="436" type="line"/>
      <point x="921" y="748" type="line" smooth="yes"/>
      <point x="936" y="761"/>
      <point x="948" y="766"/>
      <point x="961" y="766" type="curve" smooth="yes"/>
      <point x="980" y="766"/>
      <point x="994" y="753"/>
      <point x="994" y="735" type="curve" smooth="yes"/>
      <point x="994" y="723"/>
      <point x="988" y="710"/>
      <point x="975" y="698" type="curve" smooth="yes"/>
    </contour>
  </outline>
</glyph>
<glyph name="y" format="1">
  <advance width="1170"/>
  <unicode hex="0079"/>
  <outline>
    <contour>
      <point x="587" y="-275" type="curve" smooth="yes"/>
      <point x="862" y="-275"/>
      <point x="946" y="-166"/>
      <point x="946" y="170" type="curve"/>
      <point x="902" y="7"/>
      <point x="672" y="-10"/>
      <point x="536" y="-10" type="curve" smooth="yes"/>
      <point x="249" y="-10"/>
      <point x="147" y="86"/>
      <point x="147" y="387" type="curve" smooth="yes"/>
      <point x="147" y="694" type="line" smooth="yes"/>
      <point x="147" y="729"/>
      <point x="150" y="766"/>
      <point x="186" y="766" type="curve" smooth="yes"/>
      <point x="225" y="766"/>
      <point x="227" y="729"/>
      <point x="227" y="694" type="curve" smooth="yes"/>
      <point x="227" y="387" type="line" smooth="yes"/>
      <point x="227" y="126"/>
      <point x="282" y="49"/>
      <point x="536" y="49" type="curve" smooth="yes"/>
      <point x="689" y="49"/>
      <point x="901" y="84"/>
      <point x="946" y="240" type="curve"/>
      <point x="946" y="694" type="line" smooth="yes"/>
      <point x="946" y="729"/>
      <point x="952" y="766"/>
      <point x="984" y="766" type="curve" smooth="yes"/>
      <point x="1023" y="766"/>
      <point x="1026" y="729"/>
      <point x="1026" y="694" type="curve" smooth="yes"/>
      <point x="1026" y="203" type="line" smooth="yes"/>
      <point x="1026" y="-208"/>
      <point x="901" y="-334"/>
      <point x="587" y="-334" type="curve" smooth="yes"/>
      <point x="364" y="-334"/>
      <point x="290" y="-281"/>
      <point x="238" y="-240" type="curve" smooth="yes"/>
      <point x="232" y="-235"/>
      <point x="230" y="-228"/>
      <point x="230" y="-221" type="curve" smooth="yes"/>
      <point x="230" y="-202"/>
      <point x="240" y="-188"/>
      <point x="261" y="-188" type="curve" smooth="yes"/>
      <point x="266" y="-188"/>
      <point x="272" y="-190"/>
      <point x="278" y="-194" type="curve" smooth="yes"/>
      <point x="329" y="-232"/>
      <point x="408" y="-275"/>
    </contour>
  </outline>
</glyph>
<glyph name="z" format="1">
  <advance width="1032"/>
  <unicode hex="007A"/>
  <outline>
    <contour>
      <point x="867" y="0" type="curve" smooth="yes"/>
      <point x="151" y="0" type="line" smooth="yes"/>
      <point x="128" y="0"/>
      <point x="109" y="20"/>
      <point x="109" y="45" type="curve" smooth="yes"/>
      <point x="109" y="61"/>
      <point x="117" y="78"/>
      <point x="135" y="94" type="curve" smooth="yes"/>
      <point x="820" y="699" type="line"/>
      <point x="173" y="699" type="line" smooth="yes"/>
      <point x="134" y="699"/>
      <point x="100" y="697"/>
      <point x="100" y="730" type="curve" smooth="yes"/>
      <point x="100" y="769"/>
      <point x="132" y="766"/>
      <point x="171" y="766" type="curve" smooth="yes"/>
      <point x="875" y="766" type="line" smooth="yes"/>
      <point x="907" y="766"/>
      <point x="925" y="747"/>
      <point x="925" y="723" type="curve" smooth="yes"/>
      <point x="925" y="708"/>
      <point x="917" y="691"/>
      <point x="901" y="677" type="curve" smooth="yes"/>
      <point x="211" y="67" type="line"/>
      <point x="865" y="67" type="line" smooth="yes"/>
      <point x="904" y="67"/>
      <point x="938" y="70"/>
      <point x="938" y="31" type="curve" smooth="yes"/>
      <point x="938" y="-2"/>
      <point x="901" y="0"/>
    </contour>
  </outline>
</glyph>
<glyph name="braceleft" format="1">
  <advance width="605"/>
  <unicode hex="007B"/>
  <outline>
    <contour>
      <point x="42" y="782" type="curve" smooth="yes"/>
      <point x="481" y="782"/>
      <point x="41" y="1477"/>
      <point x="566" y="1477" type="curve" smooth="yes"/>
      <point x="589" y="1477"/>
      <point x="599" y="1460"/>
      <point x="599" y="1444" type="curve" smooth="yes"/>
      <point x="599" y="1427"/>
      <point x="589" y="1413"/>
      <point x="566" y="1413" type="curve" smooth="yes"/>
      <point x="549" y="1413" type="line" smooth="yes"/>
      <point x="190" y="1413"/>
      <point x="486" y="777"/>
      <point x="151" y="750" type="curve"/>
      <point x="486" y="723"/>
      <point x="189" y="86"/>
      <point x="549" y="86" type="curve" smooth="yes"/>
      <point x="556" y="86"/>
      <point x="561" y="87"/>
      <point x="568" y="87" type="curve" smooth="yes"/>
      <point x="589" y="87"/>
      <point x="599" y="71"/>
      <point x="599" y="56" type="curve" smooth="yes"/>
      <point x="599" y="39"/>
      <point x="589" y="23"/>
      <point x="566" y="23" type="curve" smooth="yes"/>
      <point x="41" y="23"/>
      <point x="481" y="718"/>
      <point x="42" y="718" type="curve" smooth="yes"/>
      <point x="19" y="718"/>
      <point x="9" y="734"/>
      <point x="9" y="750" type="curve" smooth="yes"/>
      <point x="9" y="766"/>
      <point x="19" y="782"/>
    </contour>
  </outline>
</glyph>
<glyph name="bar" format="1">
  <advance width="304"/>
  <unicode hex="007C"/>
  <outline>
    <contour>
      <point x="188" y="1227" type="curve" smooth="yes"/>
      <point x="188" y="-63" type="line" smooth="yes"/>
      <point x="188" y="-102"/>
      <point x="188" y="-133"/>
      <point x="153" y="-133" type="curve" smooth="yes"/>
      <point x="114" y="-133"/>
      <point x="116" y="-101"/>
      <point x="116" y="-66" type="curve" smooth="yes"/>
      <point x="116" y="1225" type="line" smooth="yes"/>
      <point x="116" y="1264"/>
      <point x="114" y="1296"/>
      <point x="153" y="1296" type="curve" smooth="yes"/>
      <point x="188" y="1296"/>
      <point x="188" y="1262"/>
    </contour>
  </outline>
</glyph>
<glyph name="asciitilde" format="1">
  <advance width="969"/>
  <unicode hex="007E"/>
  <outline>
    <contour>
      <point x="668" y="475" type="curve" smooth="yes"/>
      <point x="744" y="475"/>
      <point x="814" y="508"/>
      <point x="814" y="647" type="curve"/>
      <point x="887" y="647" type="line"/>
      <point x="887" y="438"/>
      <point x="742" y="403"/>
      <point x="668" y="403" type="curve" smooth="yes"/>
      <point x="488" y="403"/>
      <point x="447" y="612"/>
      <point x="306" y="612" type="curve" smooth="yes"/>
      <point x="232" y="612"/>
      <point x="160" y="580"/>
      <point x="160" y="440" type="curve"/>
      <point x="89" y="440" type="line"/>
      <point x="89" y="647"/>
      <point x="231" y="684"/>
      <point x="306" y="684" type="curve" smooth="yes"/>
      <point x="486" y="684"/>
      <point x="527" y="475"/>
    </contour>
  </outline>
</glyph>
<glyph name="exclamdown" format="1">
  <advance width="328"/>
  <unicode hex="00A1"/>
  <outline>
    <contour>
      <point x="108" y="1054" type="curve" smooth="yes"/>
      <point x="108" y="1087"/>
      <point x="131" y="1110"/>
      <point x="166" y="1110" type="curve" smooth="yes"/>
      <point x="199" y="1110"/>
      <point x="226" y="1087"/>
      <point x="226" y="1054" type="curve" smooth="yes"/>
      <point x="226" y="1019"/>
      <point x="199" y="995"/>
      <point x="166" y="995" type="curve" smooth="yes"/>
      <point x="131" y="995"/>
      <point x="108" y="1019"/>
    </contour>
    <contour>
      <point x="108" y="35" type="curve" smooth="yes"/>
      <point x="108" y="36"/>
      <point x="108" y="37"/>
      <point x="140" y="850" type="curve" smooth="yes"/>
      <point x="141" y="869"/>
      <point x="152" y="879"/>
      <point x="164" y="879" type="curve" smooth="yes"/>
      <point x="177" y="879"/>
      <point x="188" y="869"/>
      <point x="189" y="850" type="curve" smooth="yes"/>
      <point x="221" y="37" type="line"/>
      <point x="221" y="5"/>
      <point x="193" y="-10"/>
      <point x="164" y="-10" type="curve" smooth="yes"/>
      <point x="136" y="-10"/>
      <point x="108" y="2"/>
    </contour>
  </outline>
</glyph>
<glyph name="cent" format="1">
  <advance width="1132"/>
  <unicode hex="00A2"/>
  <outline>
    <contour>
      <point x="200" y="385" type="curve" smooth="yes"/>
      <point x="200" y="152"/>
      <point x="328" y="58"/>
      <point x="586" y="49" type="curve"/>
      <point x="586" y="726" type="line"/>
      <point x="311" y="717"/>
      <point x="200" y="617"/>
    </contour>
    <contour>
      <point x="658" y="-9" type="curve"/>
      <point x="658" y="-63" type="line" smooth="yes"/>
      <point x="658" y="-102"/>
      <point x="658" y="-133"/>
      <point x="623" y="-133" type="curve" smooth="yes"/>
      <point x="584" y="-133"/>
      <point x="586" y="-101"/>
      <point x="586" y="-66" type="curve" smooth="yes"/>
      <point x="586" y="-9" type="line"/>
      <point x="306" y="-1"/>
      <point x="120" y="88"/>
      <point x="120" y="385" type="curve" smooth="yes"/>
      <point x="120" y="680"/>
      <point x="289" y="777"/>
      <point x="586" y="785" type="curve"/>
      <point x="586" y="879" type="line" smooth="yes"/>
      <point x="586" y="918"/>
      <point x="584" y="950"/>
      <point x="623" y="950" type="curve" smooth="yes"/>
      <point x="658" y="950"/>
      <point x="658" y="916"/>
      <point x="658" y="881" type="curve" smooth="yes"/>
      <point x="658" y="785" type="line"/>
      <point x="767" y="782"/>
      <point x="886" y="761"/>
      <point x="992" y="706" type="curve" smooth="yes"/>
      <point x="1007" y="698"/>
      <point x="1013" y="686"/>
      <point x="1013" y="675" type="curve" smooth="yes"/>
      <point x="1013" y="660"/>
      <point x="1002" y="649"/>
      <point x="985" y="649" type="curve" smooth="yes"/>
      <point x="978" y="649"/>
      <point x="971" y="651"/>
      <point x="964" y="654" type="curve" smooth="yes"/>
      <point x="905" y="683"/>
      <point x="776" y="721"/>
      <point x="658" y="726" type="curve"/>
      <point x="658" y="49" type="line"/>
      <point x="777" y="55"/>
      <point x="905" y="92"/>
      <point x="964" y="122" type="curve" smooth="yes"/>
      <point x="971" y="125"/>
      <point x="978" y="127"/>
      <point x="985" y="127" type="curve" smooth="yes"/>
      <point x="1002" y="127"/>
      <point x="1013" y="116"/>
      <point x="1013" y="101" type="curve" smooth="yes"/>
      <point x="1013" y="90"/>
      <point x="1007" y="78"/>
      <point x="992" y="70" type="curve" smooth="yes"/>
      <point x="886" y="15"/>
      <point x="767" y="-6"/>
    </contour>
  </outline>
</glyph>
<glyph name="sterling" format="1">
  <advance width="987"/>
  <unicode hex="00A3"/>
  <outline>
    <contour>
      <point x="376" y="106" type="curve"/>
      <point x="331" y="120"/>
      <point x="286" y="129"/>
      <point x="232" y="129" type="curve" smooth="yes"/>
      <point x="162" y="129"/>
      <point x="135" y="110"/>
      <point x="135" y="91" type="curve" smooth="yes"/>
      <point x="135" y="72"/>
      <point x="160" y="54"/>
      <point x="229" y="54" type="curve" smooth="yes"/>
      <point x="305" y="54"/>
      <point x="352" y="72"/>
    </contour>
    <contour>
      <point x="444" y="83" type="curve"/>
      <point x="401" y="17"/>
      <point x="313" y="-10"/>
      <point x="232" y="-10" type="curve" smooth="yes"/>
      <point x="114" y="-10"/>
      <point x="61" y="39"/>
      <point x="61" y="90" type="curve" smooth="yes"/>
      <point x="61" y="141"/>
      <point x="114" y="192"/>
      <point x="232" y="192" type="curve" smooth="yes"/>
      <point x="294" y="192"/>
      <point x="347" y="183"/>
      <point x="396" y="170" type="curve"/>
      <point x="396" y="179" type="line" smooth="yes"/>
      <point x="396" y="192"/>
      <point x="393" y="236"/>
      <point x="344" y="521" type="curve"/>
      <point x="134" y="521" type="line" smooth="yes"/>
      <point x="103" y="521"/>
      <point x="90" y="539"/>
      <point x="90" y="556" type="curve" smooth="yes"/>
      <point x="90" y="575"/>
      <point x="103" y="592"/>
      <point x="134" y="592" type="curve" smooth="yes"/>
      <point x="334" y="592" type="line"/>
      <point x="315" y="753" type="line" smooth="yes"/>
      <point x="312" y="775"/>
      <point x="311" y="797"/>
      <point x="311" y="817" type="curve" smooth="yes"/>
      <point x="311" y="1043"/>
      <point x="455" y="1135"/>
      <point x="624" y="1135" type="curve" smooth="yes"/>
      <point x="699" y="1135"/>
      <point x="790" y="1124"/>
      <point x="878" y="1060" type="curve" smooth="yes"/>
      <point x="890" y="1051"/>
      <point x="895" y="1037"/>
      <point x="896" y="1025" type="curve"/>
      <point x="896" y="1008"/>
      <point x="880" y="998"/>
      <point x="863" y="998" type="curve" smooth="yes"/>
      <point x="849" y="998"/>
      <point x="848" y="1001"/>
      <point x="835" y="1010" type="curve" smooth="yes"/>
      <point x="756" y="1060"/>
      <point x="675" y="1070"/>
      <point x="621" y="1070" type="curve" smooth="yes"/>
      <point x="499" y="1070"/>
      <point x="389" y="999"/>
      <point x="389" y="816" type="curve" smooth="yes"/>
      <point x="389" y="799"/>
      <point x="390" y="782"/>
      <point x="392" y="763" type="curve" smooth="yes"/>
      <point x="411" y="592" type="line"/>
      <point x="703" y="592" type="line" smooth="yes"/>
      <point x="742" y="592"/>
      <point x="773" y="592"/>
      <point x="773" y="557" type="curve" smooth="yes"/>
      <point x="773" y="522"/>
      <point x="744" y="521"/>
      <point x="703" y="521" type="curve" smooth="yes"/>
      <point x="421" y="521" type="line"/>
      <point x="481" y="172"/>
      <point x="472" y="190"/>
      <point x="472" y="183" type="curve" smooth="yes"/>
      <point x="472" y="171"/>
      <point x="471" y="159"/>
      <point x="469" y="148" type="curve"/>
      <point x="574" y="113"/>
      <point x="678" y="71"/>
      <point x="842" y="71" type="curve" smooth="yes"/>
      <point x="885" y="71"/>
      <point x="912" y="67"/>
      <point x="912" y="36" type="curve" smooth="yes"/>
      <point x="912" y="0"/>
      <point x="884" y="0"/>
      <point x="844" y="0" type="curve" smooth="yes"/>
      <point x="654" y="0"/>
      <point x="544" y="46"/>
    </contour>
  </outline>
</glyph>
<glyph name="section" format="1">
  <advance width="1108"/>
  <unicode hex="00A7"/>
  <outline>
    <contour>
      <point x="954" y="574" type="curve" smooth="yes"/>
      <point x="954" y="714"/>
      <point x="738" y="716"/>
      <point x="521" y="721" type="curve"/>
      <point x="339" y="721"/>
      <point x="161" y="687"/>
      <point x="161" y="557" type="curve" smooth="yes"/>
      <point x="161" y="421"/>
      <point x="379" y="427"/>
      <point x="597" y="419" type="curve"/>
      <point x="785" y="422"/>
      <point x="954" y="457"/>
    </contour>
    <contour>
      <point x="954" y="209" type="curve" smooth="yes"/>
      <point x="954" y="494"/>
      <point x="81" y="201"/>
      <point x="81" y="557" type="curve" smooth="yes"/>
      <point x="81" y="659"/>
      <point x="151" y="716"/>
      <point x="250" y="748" type="curve"/>
      <point x="150" y="772"/>
      <point x="81" y="821"/>
      <point x="81" y="922" type="curve" smooth="yes"/>
      <point x="81" y="1105"/>
      <point x="300" y="1151"/>
      <point x="512" y="1151" type="curve" smooth="yes"/>
      <point x="683" y="1151"/>
      <point x="839" y="1124"/>
      <point x="966" y="1057" type="curve" smooth="yes"/>
      <point x="979" y="1050"/>
      <point x="983" y="1040"/>
      <point x="984" y="1029" type="curve"/>
      <point x="984" y="1012"/>
      <point x="971" y="996"/>
      <point x="958" y="996" type="curve" smooth="yes"/>
      <point x="954" y="996"/>
      <point x="951" y="997"/>
      <point x="950" y="998" type="curve" smooth="yes"/>
      <point x="837" y="1055"/>
      <point x="691" y="1092"/>
      <point x="516" y="1092" type="curve" smooth="yes"/>
      <point x="335" y="1092"/>
      <point x="161" y="1052"/>
      <point x="161" y="922" type="curve" smooth="yes"/>
      <point x="161" y="653"/>
      <point x="1034" y="939"/>
      <point x="1034" y="574" type="curve" smooth="yes"/>
      <point x="1034" y="478"/>
      <point x="961" y="424"/>
      <point x="853" y="392" type="curve"/>
      <point x="959" y="368"/>
      <point x="1034" y="315"/>
      <point x="1034" y="209" type="curve" smooth="yes"/>
      <point x="1034" y="46"/>
      <point x="815" y="-10"/>
      <point x="579" y="-10" type="curve" smooth="yes"/>
      <point x="436" y="-10"/>
      <point x="232" y="-4"/>
      <point x="117" y="87" type="curve" smooth="yes"/>
      <point x="108" y="94"/>
      <point x="103" y="102"/>
      <point x="103" y="113" type="curve" smooth="yes"/>
      <point x="103" y="130"/>
      <point x="114" y="145"/>
      <point x="129" y="145" type="curve" smooth="yes"/>
      <point x="134" y="145"/>
      <point x="138" y="144"/>
      <point x="141" y="141" type="curve" smooth="yes"/>
      <point x="253" y="64"/>
      <point x="401" y="49"/>
      <point x="569" y="49" type="curve" smooth="yes"/>
      <point x="769" y="49"/>
      <point x="954" y="85"/>
    </contour>
  </outline>
</glyph>
<glyph name="copyright" format="1">
  <advance width="1181"/>
  <unicode hex="00A9"/>
  <outline>
    <contour>
      <point x="1106" y="556" type="curve" smooth="yes"/>
      <point x="1106" y="249"/>
      <point x="848" y="92"/>
      <point x="590" y="92" type="curve" smooth="yes"/>
      <point x="334" y="92"/>
      <point x="75" y="249"/>
      <point x="75" y="556" type="curve" smooth="yes"/>
      <point x="75" y="863"/>
      <point x="334" y="1020"/>
      <point x="590" y="1020" type="curve" smooth="yes"/>
      <point x="848" y="1020"/>
      <point x="1106" y="863"/>
    </contour>
    <contour>
      <point x="1040" y="556" type="curve" smooth="yes"/>
      <point x="1040" y="823"/>
      <point x="817" y="959"/>
      <point x="594" y="959" type="curve" smooth="yes"/>
      <point x="371" y="959"/>
      <point x="148" y="823"/>
      <point x="148" y="556" type="curve" smooth="yes"/>
      <point x="148" y="289"/>
      <point x="371" y="153"/>
      <point x="594" y="153" type="curve" smooth="yes"/>
      <point x="817" y="153"/>
      <point x="1040" y="289"/>
    </contour>
    <contour>
      <point x="248" y="556" type="curve" smooth="yes"/>
      <point x="248" y="777"/>
      <point x="409" y="871"/>
      <point x="581" y="871" type="curve" smooth="yes"/>
      <point x="666" y="871"/>
      <point x="754" y="849"/>
      <point x="827" y="806" type="curve" smooth="yes"/>
      <point x="836" y="801"/>
      <point x="841" y="793"/>
      <point x="841" y="782" type="curve" smooth="yes"/>
      <point x="841" y="766"/>
      <point x="828" y="750"/>
      <point x="813" y="750" type="curve" smooth="yes"/>
      <point x="808" y="750"/>
      <point x="803" y="751"/>
      <point x="800" y="754" type="curve"/>
      <point x="740" y="790"/>
      <point x="662" y="811"/>
      <point x="586" y="811" type="curve" smooth="yes"/>
      <point x="448" y="811"/>
      <point x="316" y="740"/>
      <point x="316" y="556" type="curve" smooth="yes"/>
      <point x="316" y="372"/>
      <point x="448" y="301"/>
      <point x="586" y="301" type="curve" smooth="yes"/>
      <point x="662" y="301"/>
      <point x="740" y="322"/>
      <point x="800" y="358" type="curve"/>
      <point x="803" y="361"/>
      <point x="808" y="362"/>
      <point x="813" y="362" type="curve" smooth="yes"/>
      <point x="828" y="362"/>
      <point x="841" y="346"/>
      <point x="841" y="330" type="curve" smooth="yes"/>
      <point x="841" y="319"/>
      <point x="836" y="311"/>
      <point x="827" y="306" type="curve" smooth="yes"/>
      <point x="754" y="263"/>
      <point x="666" y="241"/>
      <point x="581" y="241" type="curve" smooth="yes"/>
      <point x="409" y="241"/>
      <point x="248" y="334"/>
    </contour>
  </outline>
</glyph>
<glyph name="ordfeminine" format="1">
  <advance width="1191"/>
  <unicode hex="00AA"/>
  <outline>
    <contour>
      <point x="639" y="1063" type="curve" smooth="yes"/>
      <point x="392" y="1063"/>
      <point x="295" y="1035"/>
      <point x="227" y="1012" type="curve" smooth="yes"/>
      <point x="224" y="1011"/>
      <point x="222" y="1010"/>
      <point x="219" y="1010" type="curve" smooth="yes"/>
      <point x="203" y="1010"/>
      <point x="187" y="1030"/>
      <point x="187" y="1048" type="curve" smooth="yes"/>
      <point x="187" y="1056"/>
      <point x="191" y="1063"/>
      <point x="199" y="1067" type="curve" smooth="yes"/>
      <point x="221" y="1078"/>
      <point x="351" y="1122"/>
      <point x="640" y="1122" type="curve" smooth="yes"/>
      <point x="844" y="1122"/>
      <point x="1044" y="1059"/>
      <point x="1044" y="694" type="curve" smooth="yes"/>
      <point x="1044" y="406" type="line" smooth="yes"/>
      <point x="1044" y="375"/>
      <point x="1040" y="336"/>
      <point x="1003" y="336" type="curve" smooth="yes"/>
      <point x="972" y="336"/>
      <point x="963" y="367"/>
      <point x="963" y="410" type="curve" smooth="yes"/>
      <point x="963" y="479" type="line"/>
      <point x="910" y="412"/>
      <point x="799" y="326"/>
      <point x="552" y="326" type="curve" smooth="yes"/>
      <point x="319" y="326"/>
      <point x="134" y="392"/>
      <point x="134" y="560" type="curve" smooth="yes"/>
      <point x="134" y="755"/>
      <point x="308" y="813"/>
      <point x="532" y="813" type="curve" smooth="yes"/>
      <point x="702" y="813"/>
      <point x="878" y="790"/>
      <point x="963" y="745" type="curve"/>
      <point x="963" y="1016"/>
      <point x="808" y="1063"/>
    </contour>
    <contour>
      <point x="214" y="560" type="curve" smooth="yes"/>
      <point x="214" y="433"/>
      <point x="352" y="385"/>
      <point x="544" y="385" type="curve" smooth="yes"/>
      <point x="778" y="385"/>
      <point x="903" y="459"/>
      <point x="963" y="514" type="curve"/>
      <point x="963" y="715" type="line"/>
      <point x="833" y="733"/>
      <point x="682" y="754"/>
      <point x="540" y="754" type="curve" smooth="yes"/>
      <point x="335" y="754"/>
      <point x="214" y="712"/>
    </contour>
    <contour>
      <point x="302" y="259" type="curve" smooth="yes"/>
      <point x="843" y="259" type="line" smooth="yes"/>
      <point x="855" y="259"/>
      <point x="865" y="248"/>
      <point x="865" y="235" type="curve" smooth="yes"/>
      <point x="865" y="222"/>
      <point x="855" y="211"/>
      <point x="843" y="211" type="curve" smooth="yes"/>
      <point x="302" y="211" type="line" smooth="yes"/>
      <point x="290" y="211"/>
      <point x="280" y="222"/>
      <point x="280" y="235" type="curve" smooth="yes"/>
      <point x="280" y="248"/>
      <point x="290" y="259"/>
    </contour>
  </outline>
</glyph>
<glyph name="guillemotleft" format="1">
  <advance width="646"/>
  <unicode hex="00AB"/>
  <outline>
    <contour>
      <point x="57" y="367" type="curve" smooth="yes"/>
      <point x="298" y="619" type="line" smooth="yes"/>
      <point x="306" y="627"/>
      <point x="315" y="631"/>
      <point x="325" y="631" type="curve" smooth="yes"/>
      <point x="345" y="631"/>
      <point x="363" y="615"/>
      <point x="363" y="596" type="curve" smooth="yes"/>
      <point x="363" y="587"/>
      <point x="359" y="578"/>
      <point x="352" y="571" type="curve" smooth="yes"/>
      <point x="114" y="334" type="line"/>
      <point x="352" y="97" type="line" smooth="yes"/>
      <point x="360" y="89"/>
      <point x="364" y="81"/>
      <point x="364" y="72" type="curve" smooth="yes"/>
      <point x="364" y="53"/>
      <point x="345" y="37"/>
      <point x="325" y="37" type="curve" smooth="yes"/>
      <point x="315" y="37"/>
      <point x="306" y="41"/>
      <point x="298" y="49" type="curve" smooth="yes"/>
      <point x="57" y="301" type="line" smooth="yes"/>
      <point x="46" y="312"/>
      <point x="40" y="324"/>
      <point x="40" y="335" type="curve"/>
      <point x="41" y="343"/>
      <point x="45" y="355"/>
    </contour>
    <contour>
      <point x="256" y="367" type="curve" smooth="yes"/>
      <point x="497" y="619" type="line" smooth="yes"/>
      <point x="505" y="627"/>
      <point x="514" y="631"/>
      <point x="524" y="631" type="curve" smooth="yes"/>
      <point x="544" y="631"/>
      <point x="562" y="615"/>
      <point x="562" y="596" type="curve" smooth="yes"/>
      <point x="562" y="587"/>
      <point x="558" y="578"/>
      <point x="551" y="571" type="curve" smooth="yes"/>
      <point x="313" y="334" type="line"/>
      <point x="551" y="97" type="line" smooth="yes"/>
      <point x="559" y="89"/>
      <point x="563" y="81"/>
      <point x="563" y="72" type="curve" smooth="yes"/>
      <point x="563" y="53"/>
      <point x="544" y="37"/>
      <point x="524" y="37" type="curve" smooth="yes"/>
      <point x="514" y="37"/>
      <point x="505" y="41"/>
      <point x="497" y="49" type="curve" smooth="yes"/>
      <point x="256" y="301" type="line" smooth="yes"/>
      <point x="245" y="312"/>
      <point x="239" y="324"/>
      <point x="239" y="335" type="curve"/>
      <point x="240" y="343"/>
      <point x="244" y="355"/>
    </contour>
  </outline>
</glyph>
<glyph name="logicalnot" format="1">
  <advance width="731"/>
  <unicode hex="00AC"/>
  <outline>
    <contour>
      <point x="164" y="504" type="curve" smooth="yes"/>
      <point x="596" y="504" type="line" smooth="yes"/>
      <point x="614" y="504"/>
      <point x="623" y="494"/>
      <point x="623" y="482" type="curve"/>
      <point x="623" y="481" type="line"/>
      <point x="623" y="327" type="line" smooth="yes"/>
      <point x="623" y="308"/>
      <point x="612" y="300"/>
      <point x="600" y="300" type="curve" smooth="yes"/>
      <point x="589" y="300"/>
      <point x="578" y="308"/>
      <point x="578" y="327" type="curve" smooth="yes"/>
      <point x="578" y="459" type="line"/>
      <point x="164" y="459" type="line" smooth="yes"/>
      <point x="145" y="459"/>
      <point x="137" y="470"/>
      <point x="137" y="481" type="curve" smooth="yes"/>
      <point x="137" y="493"/>
      <point x="145" y="504"/>
    </contour>
  </outline>
</glyph>
<glyph name="uni00AD" format="1">
  <advance width="827"/>
  <unicode hex="00AD"/>
  <outline>
    <contour>
      <point x="197" y="518" type="curve" smooth="yes"/>
      <point x="556" y="518" type="line" smooth="yes"/>
      <point x="575" y="518"/>
      <point x="583" y="497"/>
      <point x="583" y="480" type="curve" smooth="yes"/>
      <point x="583" y="464"/>
      <point x="575" y="444"/>
      <point x="556" y="444" type="curve" smooth="yes"/>
      <point x="197" y="444" type="line" smooth="yes"/>
      <point x="178" y="444"/>
      <point x="170" y="464"/>
      <point x="170" y="480" type="curve" smooth="yes"/>
      <point x="170" y="497"/>
      <point x="178" y="518"/>
    </contour>
  </outline>
</glyph>
<glyph name="registered" format="1">
  <advance width="1181"/>
  <unicode hex="00AE"/>
  <outline>
    <contour>
      <point x="1106" y="556" type="curve" smooth="yes"/>
      <point x="1106" y="249"/>
      <point x="848" y="92"/>
      <point x="590" y="92" type="curve" smooth="yes"/>
      <point x="334" y="92"/>
      <point x="75" y="249"/>
      <point x="75" y="556" type="curve" smooth="yes"/>
      <point x="75" y="863"/>
      <point x="334" y="1020"/>
      <point x="590" y="1020" type="curve" smooth="yes"/>
      <point x="848" y="1020"/>
      <point x="1106" y="863"/>
    </contour>
    <contour>
      <point x="1040" y="556" type="curve" smooth="yes"/>
      <point x="1040" y="823"/>
      <point x="817" y="959"/>
      <point x="594" y="959" type="curve" smooth="yes"/>
      <point x="371" y="959"/>
      <point x="148" y="823"/>
      <point x="148" y="556" type="curve" smooth="yes"/>
      <point x="148" y="289"/>
      <point x="371" y="153"/>
      <point x="594" y="153" type="curve" smooth="yes"/>
      <point x="817" y="153"/>
      <point x="1040" y="289"/>
    </contour>
    <contour>
      <point x="819" y="674" type="curve" smooth="yes"/>
      <point x="819" y="821"/>
      <point x="712" y="815"/>
      <point x="527" y="815" type="curve" smooth="yes"/>
      <point x="430" y="815" type="line"/>
      <point x="430" y="542" type="line"/>
      <point x="601" y="542" type="line" smooth="yes"/>
      <point x="712" y="542"/>
      <point x="819" y="542"/>
    </contour>
    <contour>
      <point x="887" y="674" type="curve" smooth="yes"/>
      <point x="887" y="534"/>
      <point x="751" y="495"/>
      <point x="674" y="495" type="curve"/>
      <point x="837" y="304" type="line" smooth="yes"/>
      <point x="842" y="298"/>
      <point x="844" y="292"/>
      <point x="844" y="285" type="curve" smooth="yes"/>
      <point x="844" y="269"/>
      <point x="829" y="254"/>
      <point x="811" y="254" type="curve" smooth="yes"/>
      <point x="802" y="254"/>
      <point x="793" y="258"/>
      <point x="785" y="268" type="curve" smooth="yes"/>
      <point x="601" y="493" type="line"/>
      <point x="430" y="493" type="line"/>
      <point x="430" y="290" type="line" smooth="yes"/>
      <point x="430" y="264"/>
      <point x="413" y="252"/>
      <point x="396" y="252" type="curve" smooth="yes"/>
      <point x="380" y="252"/>
      <point x="363" y="264"/>
      <point x="363" y="290" type="curve" smooth="yes"/>
      <point x="363" y="830" type="line" smooth="yes"/>
      <point x="363" y="851"/>
      <point x="373" y="865"/>
      <point x="396" y="865" type="curve" smooth="yes"/>
      <point x="527" y="865" type="line" smooth="yes"/>
      <point x="728" y="865"/>
      <point x="887" y="866"/>
    </contour>
  </outline>
</glyph>
<glyph name="macron" format="1">
  <advance width="677"/>
  <unicode hex="00AF"/>
  <outline>
    <contour>
      <point x="162" y="981" type="curve" smooth="yes"/>
      <point x="514" y="981" type="line" smooth="yes"/>
      <point x="533" y="981"/>
      <point x="541" y="964"/>
      <point x="541" y="952" type="curve" smooth="yes"/>
      <point x="541" y="941"/>
      <point x="533" y="926"/>
      <point x="514" y="926" type="curve" smooth="yes"/>
      <point x="162" y="926" type="line" smooth="yes"/>
      <point x="143" y="926"/>
      <point x="135" y="941"/>
      <point x="135" y="952" type="curve" smooth="yes"/>
      <point x="135" y="964"/>
      <point x="143" y="981"/>
    </contour>
  </outline>
</glyph>
<glyph name="degree" format="1">
  <advance width="367"/>
  <unicode hex="00B0"/>
  <outline>
    <contour>
      <point x="117" y="997" type="curve" smooth="yes"/>
      <point x="117" y="962"/>
      <point x="147" y="932"/>
      <point x="184" y="932" type="curve" smooth="yes"/>
      <point x="221" y="932"/>
      <point x="252" y="962"/>
      <point x="252" y="997" type="curve" smooth="yes"/>
      <point x="252" y="1033"/>
      <point x="221" y="1061"/>
      <point x="184" y="1061" type="curve" smooth="yes"/>
      <point x="147" y="1061"/>
      <point x="117" y="1033"/>
    </contour>
    <contour>
      <point x="301" y="997" type="curve" smooth="yes"/>
      <point x="301" y="933"/>
      <point x="248" y="885"/>
      <point x="184" y="885" type="curve" smooth="yes"/>
      <point x="121" y="885"/>
      <point x="66" y="933"/>
      <point x="66" y="997" type="curve" smooth="yes"/>
      <point x="66" y="1061"/>
      <point x="117" y="1110"/>
      <point x="184" y="1110" type="curve" smooth="yes"/>
      <point x="248" y="1110"/>
      <point x="301" y="1061"/>
    </contour>
  </outline>
</glyph>
<glyph name="uni00B2" format="1">
  <advance width="925"/>
  <unicode hex="00B2"/>
  <outline>
    <contour>
      <point x="247" y="994" type="curve" smooth="yes"/>
      <point x="241" y="992"/>
      <point x="235" y="991"/>
      <point x="230" y="991" type="curve" smooth="yes"/>
      <point x="207" y="991"/>
      <point x="193" y="1007"/>
      <point x="193" y="1024" type="curve" smooth="yes"/>
      <point x="193" y="1039"/>
      <point x="203" y="1051"/>
      <point x="224" y="1058" type="curve" smooth="yes"/>
      <point x="308" y="1085"/>
      <point x="416" y="1114"/>
      <point x="524" y="1114" type="curve" smooth="yes"/>
      <point x="673" y="1114"/>
      <point x="813" y="1061"/>
      <point x="813" y="879" type="curve" smooth="yes"/>
      <point x="813" y="580"/>
      <point x="243" y="559"/>
      <point x="243" y="399" type="curve"/>
      <point x="749" y="399" type="line" smooth="yes"/>
      <point x="780" y="399"/>
      <point x="794" y="382"/>
      <point x="794" y="363" type="curve" smooth="yes"/>
      <point x="794" y="344"/>
      <point x="780" y="327"/>
      <point x="749" y="327" type="curve" smooth="yes"/>
      <point x="198" y="327" type="line" smooth="yes"/>
      <point x="171" y="327"/>
      <point x="162" y="369"/>
      <point x="162" y="400" type="curve" smooth="yes"/>
      <point x="162" y="618"/>
      <point x="737" y="625"/>
      <point x="737" y="884" type="curve"/>
      <point x="732" y="1014"/>
      <point x="635" y="1051"/>
      <point x="526" y="1051" type="curve" smooth="yes"/>
      <point x="419" y="1051"/>
      <point x="306" y="1013"/>
    </contour>
  </outline>
</glyph>
<glyph name="uni00B3" format="1">
  <advance width="946"/>
  <unicode hex="00B3"/>
  <outline>
    <contour>
      <point x="244" y="1003" type="curve" smooth="yes"/>
      <point x="236" y="997"/>
      <point x="228" y="995"/>
      <point x="221" y="995" type="curve" smooth="yes"/>
      <point x="204" y="995"/>
      <point x="192" y="1009"/>
      <point x="192" y="1027" type="curve" smooth="yes"/>
      <point x="192" y="1060"/>
      <point x="306" y="1116"/>
      <point x="465" y="1116" type="curve" smooth="yes"/>
      <point x="681" y="1116"/>
      <point x="759" y="1020"/>
      <point x="759" y="919" type="curve" smooth="yes"/>
      <point x="759" y="839"/>
      <point x="725" y="755"/>
      <point x="584" y="715" type="curve"/>
      <point x="743" y="670"/>
      <point x="784" y="577"/>
      <point x="784" y="488" type="curve" smooth="yes"/>
      <point x="784" y="376"/>
      <point x="696" y="270"/>
      <point x="465" y="270" type="curve" smooth="yes"/>
      <point x="289" y="270"/>
      <point x="193" y="328"/>
      <point x="193" y="359" type="curve" smooth="yes"/>
      <point x="193" y="375"/>
      <point x="208" y="388"/>
      <point x="228" y="388" type="curve" smooth="yes"/>
      <point x="235" y="388"/>
      <point x="242" y="386"/>
      <point x="249" y="383" type="curve" smooth="yes"/>
      <point x="308" y="354"/>
      <point x="373" y="336"/>
      <point x="465" y="336" type="curve" smooth="yes"/>
      <point x="652" y="336"/>
      <point x="711" y="414"/>
      <point x="711" y="492" type="curve" smooth="yes"/>
      <point x="711" y="585"/>
      <point x="638" y="681"/>
      <point x="440" y="681" type="curve" smooth="yes"/>
      <point x="379" y="681" type="line" smooth="yes"/>
      <point x="355" y="681"/>
      <point x="344" y="697"/>
      <point x="344" y="713" type="curve" smooth="yes"/>
      <point x="344" y="729"/>
      <point x="355" y="745"/>
      <point x="379" y="745" type="curve" smooth="yes"/>
      <point x="440" y="745" type="line" smooth="yes"/>
      <point x="624" y="745"/>
      <point x="687" y="831"/>
      <point x="687" y="912" type="curve" smooth="yes"/>
      <point x="687" y="986"/>
      <point x="641" y="1057"/>
      <point x="475" y="1057" type="curve" smooth="yes"/>
      <point x="328" y="1057"/>
      <point x="252" y="1008"/>
    </contour>
  </outline>
</glyph>
<glyph name="paragraph" format="1">
  <advance width="816"/>
  <unicode hex="00B6"/>
  <outline>
    <contour>
      <point x="404" y="76" type="curve" smooth="yes"/>
      <point x="404" y="542" type="line"/>
      <point x="177" y="542"/>
      <point x="57" y="683"/>
      <point x="57" y="825" type="curve" smooth="yes"/>
      <point x="57" y="966"/>
      <point x="175" y="1106"/>
      <point x="423" y="1111" type="curve"/>
      <point x="654" y="1114" type="line" smooth="yes"/>
      <point x="681" y="1114"/>
      <point x="688" y="1110"/>
      <point x="688" y="1077" type="curve" smooth="yes"/>
      <point x="688" y="76" type="line" smooth="yes"/>
      <point x="688" y="35"/>
      <point x="681" y="0"/>
      <point x="642" y="0" type="curve" smooth="yes"/>
      <point x="610" y="0"/>
      <point x="603" y="37"/>
      <point x="603" y="76" type="curve" smooth="yes"/>
      <point x="603" y="1021" type="line"/>
      <point x="489" y="1021" type="line"/>
      <point x="489" y="76" type="line" smooth="yes"/>
      <point x="489" y="35"/>
      <point x="482" y="0"/>
      <point x="443" y="0" type="curve" smooth="yes"/>
      <point x="411" y="0"/>
      <point x="404" y="37"/>
    </contour>
  </outline>
</glyph>
<glyph name="periodcentered" format="1">
  <advance width="312"/>
  <unicode hex="00B7"/>
  <outline>
    <contour>
      <point x="93" y="1005.5" type="curve" smooth="yes"/>
      <point x="93" y="1043.5"/>
      <point x="118" y="1070.5"/>
      <point x="157" y="1070.5" type="curve" smooth="yes"/>
      <point x="193" y="1070.5"/>
      <point x="223" y="1043.5"/>
      <point x="223" y="1005.5" type="curve" smooth="yes"/>
      <point x="223" y="968.5"/>
      <point x="193" y="943.5"/>
      <point x="157" y="943.5" type="curve" smooth="yes"/>
      <point x="118" y="943.5"/>
      <point x="93" y="968.5"/>
    </contour>
  </outline>
</glyph>
<glyph name="cedilla" format="1">
  <advance width="266"/>
  <unicode hex="00B8"/>
  <outline>
    <contour>
      <point x="21" y="-264" type="curve" smooth="yes"/>
      <point x="210" y="10" type="line" smooth="yes"/>
      <point x="219" y="23"/>
      <point x="227" y="29"/>
      <point x="236" y="29" type="curve" smooth="yes"/>
      <point x="247" y="29"/>
      <point x="254" y="19"/>
      <point x="254" y="7" type="curve" smooth="yes"/>
      <point x="254" y="2"/>
      <point x="253" y="-3"/>
      <point x="250" y="-8" type="curve" smooth="yes"/>
      <point x="84" y="-298" type="line" smooth="yes"/>
      <point x="73" y="-317"/>
      <point x="60" y="-324"/>
      <point x="45" y="-324" type="curve" smooth="yes"/>
      <point x="26" y="-324"/>
      <point x="11" y="-310"/>
      <point x="11" y="-291" type="curve" smooth="yes"/>
      <point x="11" y="-282"/>
      <point x="14" y="-273"/>
    </contour>
  </outline>
</glyph>
<glyph name="ordmasculine" format="1">
  <advance width="1125"/>
  <unicode hex="00BA"/>
  <outline>
    <contour>
      <point x="625" y="382" type="curve" smooth="yes"/>
      <point x="988" y="382"/>
      <point x="1042" y="555"/>
      <point x="1042" y="718" type="curve" smooth="yes"/>
      <point x="1042" y="966"/>
      <point x="917" y="1060"/>
      <point x="625" y="1060" type="curve" smooth="yes"/>
      <point x="333" y="1060"/>
      <point x="208" y="966"/>
      <point x="208" y="718" type="curve" smooth="yes"/>
      <point x="208" y="555"/>
      <point x="262" y="382"/>
    </contour>
    <contour>
      <point x="625" y="323" type="curve" smooth="yes"/>
      <point x="257" y="323"/>
      <point x="128" y="474"/>
      <point x="128" y="718" type="curve" smooth="yes"/>
      <point x="128" y="1000"/>
      <point x="284" y="1119"/>
      <point x="625" y="1119" type="curve" smooth="yes"/>
      <point x="966" y="1119"/>
      <point x="1122" y="1000"/>
      <point x="1122" y="718" type="curve" smooth="yes"/>
      <point x="1122" y="474"/>
      <point x="993" y="323"/>
    </contour>
    <contour>
      <point x="281" y="262" type="curve" smooth="yes"/>
      <point x="822" y="262" type="line" smooth="yes"/>
      <point x="834" y="262"/>
      <point x="844" y="251"/>
      <point x="844" y="238" type="curve" smooth="yes"/>
      <point x="844" y="225"/>
      <point x="834" y="214"/>
      <point x="822" y="214" type="curve" smooth="yes"/>
      <point x="281" y="214" type="line" smooth="yes"/>
      <point x="269" y="214"/>
      <point x="259" y="225"/>
      <point x="259" y="238" type="curve" smooth="yes"/>
      <point x="259" y="251"/>
      <point x="269" y="262"/>
    </contour>
  </outline>
</glyph>
<glyph name="onequarter" format="1">
  <advance width="1570"/>
  <unicode hex="00BC"/>
  <outline>
    <contour>
      <point x="1562" y="321" type="curve" smooth="yes"/>
      <point x="1562" y="293"/>
      <point x="1536" y="288"/>
      <point x="1491" y="288" type="curve" smooth="yes"/>
      <point x="1321" y="288" type="line"/>
      <point x="1321" y="70" type="line" smooth="yes"/>
      <point x="1321" y="35"/>
      <point x="1321" y="0"/>
      <point x="1286" y="0" type="curve" smooth="yes"/>
      <point x="1247" y="0"/>
      <point x="1249" y="35"/>
      <point x="1249" y="70" type="curve" smooth="yes"/>
      <point x="1249" y="288" type="line"/>
      <point x="877" y="288" type="line" smooth="yes"/>
      <point x="804" y="288"/>
      <point x="804" y="323"/>
      <point x="804" y="358" type="curve" smooth="yes"/>
      <point x="804" y="709" type="line" smooth="yes"/>
      <point x="804" y="741"/>
      <point x="804" y="776"/>
      <point x="843" y="776" type="curve" smooth="yes"/>
      <point x="878" y="776"/>
      <point x="877" y="738"/>
      <point x="877" y="709" type="curve" smooth="yes"/>
      <point x="877" y="358" type="line"/>
      <point x="1249" y="358" type="line"/>
      <point x="1249" y="706" type="line" smooth="yes"/>
      <point x="1249" y="741"/>
      <point x="1247" y="776"/>
      <point x="1286" y="776" type="curve" smooth="yes"/>
      <point x="1321" y="776"/>
      <point x="1321" y="741"/>
      <point x="1321" y="706" type="curve" smooth="yes"/>
      <point x="1321" y="358" type="line"/>
      <point x="1490" y="358" type="line" smooth="yes"/>
      <point x="1534" y="358"/>
      <point x="1562" y="359"/>
    </contour>
    <contour>
      <point x="331" y="1039" type="curve" smooth="yes"/>
      <point x="331" y="403" type="line" smooth="yes"/>
      <point x="331" y="368"/>
      <point x="334" y="333"/>
      <point x="298" y="333" type="curve" smooth="yes"/>
      <point x="259" y="333"/>
      <point x="259" y="368"/>
      <point x="259" y="403" type="curve" smooth="yes"/>
      <point x="259" y="1039" type="line"/>
      <point x="105" y="1039" type="line" smooth="yes"/>
      <point x="78" y="1039"/>
      <point x="42" y="1036"/>
      <point x="42" y="1068" type="curve" smooth="yes"/>
      <point x="42" y="1109"/>
      <point x="82" y="1109"/>
      <point x="103" y="1109" type="curve" smooth="yes"/>
      <point x="296" y="1109" type="line" smooth="yes"/>
      <point x="335" y="1109"/>
      <point x="331" y="1071"/>
    </contour>
    <contour>
      <point x="826" y="1098" type="curve" smooth="yes"/>
      <point x="414" y="4" type="line"/>
      <point x="399" y="-27"/>
      <point x="393" y="-53"/>
      <point x="369" y="-53" type="curve" smooth="yes"/>
      <point x="339" y="-53"/>
      <point x="332" y="-32"/>
      <point x="332" y="-17" type="curve"/>
      <point x="331" y="-3"/>
      <point x="338" y="9"/>
      <point x="344" y="25" type="curve" smooth="yes"/>
      <point x="754" y="1118" type="line"/>
      <point x="763" y="1149"/>
      <point x="772" y="1176"/>
      <point x="803" y="1176" type="curve" smooth="yes"/>
      <point x="831" y="1176"/>
      <point x="836" y="1158"/>
      <point x="836" y="1141" type="curve" smooth="yes"/>
      <point x="836" y="1127"/>
      <point x="831" y="1112"/>
    </contour>
  </outline>
</glyph>
<glyph name="onehalf" format="1">
  <advance width="1570"/>
  <unicode hex="00BD"/>
  <outline>
    <contour>
      <point x="931" y="666" type="curve" smooth="yes"/>
      <point x="925" y="664"/>
      <point x="919" y="663"/>
      <point x="914" y="663" type="curve" smooth="yes"/>
      <point x="891" y="663"/>
      <point x="877" y="679"/>
      <point x="877" y="696" type="curve" smooth="yes"/>
      <point x="877" y="711"/>
      <point x="887" y="723"/>
      <point x="908" y="730" type="curve" smooth="yes"/>
      <point x="992" y="757"/>
      <point x="1100" y="786"/>
      <point x="1208" y="786" type="curve" smooth="yes"/>
      <point x="1357" y="786"/>
      <point x="1497" y="733"/>
      <point x="1497" y="551" type="curve" smooth="yes"/>
      <point x="1497" y="252"/>
      <point x="927" y="231"/>
      <point x="927" y="71" type="curve"/>
      <point x="1433" y="71" type="line" smooth="yes"/>
      <point x="1464" y="71"/>
      <point x="1478" y="54"/>
      <point x="1478" y="35" type="curve" smooth="yes"/>
      <point x="1478" y="16"/>
      <point x="1464" y="-1"/>
      <point x="1433" y="-1" type="curve" smooth="yes"/>
      <point x="882" y="-1" type="line" smooth="yes"/>
      <point x="855" y="-1"/>
      <point x="846" y="41"/>
      <point x="846" y="72" type="curve" smooth="yes"/>
      <point x="846" y="290"/>
      <point x="1421" y="297"/>
      <point x="1421" y="556" type="curve"/>
      <point x="1416" y="686"/>
      <point x="1319" y="723"/>
      <point x="1210" y="723" type="curve" smooth="yes"/>
      <point x="1103" y="723"/>
      <point x="990" y="685"/>
    </contour>
    <contour>
      <point x="331" y="1039" type="curve" smooth="yes"/>
      <point x="331" y="403" type="line" smooth="yes"/>
      <point x="331" y="368"/>
      <point x="334" y="333"/>
      <point x="298" y="333" type="curve" smooth="yes"/>
      <point x="259" y="333"/>
      <point x="259" y="368"/>
      <point x="259" y="403" type="curve" smooth="yes"/>
      <point x="259" y="1039" type="line"/>
      <point x="105" y="1039" type="line" smooth="yes"/>
      <point x="78" y="1039"/>
      <point x="42" y="1036"/>
      <point x="42" y="1068" type="curve" smooth="yes"/>
      <point x="42" y="1109"/>
      <point x="82" y="1109"/>
      <point x="103" y="1109" type="curve" smooth="yes"/>
      <point x="296" y="1109" type="line" smooth="yes"/>
      <point x="335" y="1109"/>
      <point x="331" y="1071"/>
    </contour>
    <contour>
      <point x="859" y="1098" type="curve" smooth="yes"/>
      <point x="447" y="4" type="line"/>
      <point x="432" y="-27"/>
      <point x="426" y="-53"/>
      <point x="402" y="-53" type="curve" smooth="yes"/>
      <point x="372" y="-53"/>
      <point x="365" y="-32"/>
      <point x="365" y="-17" type="curve"/>
      <point x="364" y="-3"/>
      <point x="371" y="9"/>
      <point x="377" y="25" type="curve" smooth="yes"/>
      <point x="787" y="1118" type="line"/>
      <point x="796" y="1149"/>
      <point x="805" y="1176"/>
      <point x="836" y="1176" type="curve" smooth="yes"/>
      <point x="864" y="1176"/>
      <point x="869" y="1158"/>
      <point x="869" y="1141" type="curve" smooth="yes"/>
      <point x="869" y="1127"/>
      <point x="864" y="1112"/>
    </contour>
  </outline>
</glyph>
<glyph name="threequarters" format="1">
  <advance width="2087"/>
  <unicode hex="00BE"/>
  <outline>
    <contour>
      <point x="1245" y="1098" type="curve" smooth="yes"/>
      <point x="833" y="4" type="line"/>
      <point x="818" y="-27"/>
      <point x="812" y="-53"/>
      <point x="788" y="-53" type="curve" smooth="yes"/>
      <point x="758" y="-53"/>
      <point x="751" y="-32"/>
      <point x="751" y="-17" type="curve"/>
      <point x="750" y="-3"/>
      <point x="757" y="9"/>
      <point x="763" y="25" type="curve" smooth="yes"/>
      <point x="1173" y="1118" type="line"/>
      <point x="1182" y="1149"/>
      <point x="1191" y="1176"/>
      <point x="1222" y="1176" type="curve" smooth="yes"/>
      <point x="1250" y="1176"/>
      <point x="1255" y="1158"/>
      <point x="1255" y="1141" type="curve" smooth="yes"/>
      <point x="1255" y="1127"/>
      <point x="1250" y="1112"/>
    </contour>
    <contour>
      <point x="2032" y="264" type="curve" smooth="yes"/>
      <point x="2032" y="235"/>
      <point x="1995" y="230"/>
      <point x="1950" y="230" type="curve" smooth="yes"/>
      <point x="1930" y="230"/>
      <point x="1907" y="231"/>
      <point x="1886" y="231" type="curve" smooth="yes"/>
      <point x="1741" y="231" type="line"/>
      <point x="1741" y="70" type="line" smooth="yes"/>
      <point x="1741" y="35"/>
      <point x="1741" y="0"/>
      <point x="1706" y="0" type="curve" smooth="yes"/>
      <point x="1667" y="0"/>
      <point x="1669" y="35"/>
      <point x="1669" y="70" type="curve" smooth="yes"/>
      <point x="1669" y="231" type="line"/>
      <point x="1325" y="231" type="line" smooth="yes"/>
      <point x="1252" y="231"/>
      <point x="1252" y="266"/>
      <point x="1252" y="301" type="curve" smooth="yes"/>
      <point x="1252" y="708" type="line" smooth="yes"/>
      <point x="1252" y="740"/>
      <point x="1252" y="775"/>
      <point x="1291" y="775" type="curve" smooth="yes"/>
      <point x="1326" y="775"/>
      <point x="1325" y="737"/>
      <point x="1325" y="708" type="curve" smooth="yes"/>
      <point x="1325" y="301" type="line"/>
      <point x="1669" y="301" type="line"/>
      <point x="1669" y="705" type="line" smooth="yes"/>
      <point x="1669" y="740"/>
      <point x="1667" y="775"/>
      <point x="1706" y="775" type="curve" smooth="yes"/>
      <point x="1741" y="775"/>
      <point x="1741" y="740"/>
      <point x="1741" y="705" type="curve" smooth="yes"/>
      <point x="1741" y="301" type="line"/>
      <point x="1960" y="301" type="line" smooth="yes"/>
      <point x="2004" y="301"/>
      <point x="2032" y="303"/>
    </contour>
    <contour>
      <point x="154" y="1003" type="curve"/>
      <point x="147" y="1001"/>
      <point x="140" y="1000"/>
      <point x="135" y="1000" type="curve" smooth="yes"/>
      <point x="114" y="1000"/>
      <point x="102" y="1012"/>
      <point x="102" y="1027" type="curve" smooth="yes"/>
      <point x="102" y="1060"/>
      <point x="215" y="1116"/>
      <point x="375" y="1116" type="curve" smooth="yes"/>
      <point x="591" y="1116"/>
      <point x="669" y="1020"/>
      <point x="669" y="919" type="curve" smooth="yes"/>
      <point x="669" y="839"/>
      <point x="633" y="755"/>
      <point x="484" y="715" type="curve"/>
      <point x="651" y="670"/>
      <point x="694" y="577"/>
      <point x="694" y="488" type="curve" smooth="yes"/>
      <point x="694" y="376"/>
      <point x="606" y="270"/>
      <point x="375" y="270" type="curve" smooth="yes"/>
      <point x="168" y="270"/>
      <point x="91" y="347"/>
      <point x="91" y="368" type="curve" smooth="yes"/>
      <point x="91" y="383"/>
      <point x="104" y="394"/>
      <point x="127" y="394" type="curve" smooth="yes"/>
      <point x="152" y="394"/>
      <point x="177" y="375"/>
      <point x="210" y="364" type="curve" smooth="yes"/>
      <point x="247" y="351"/>
      <point x="302" y="339"/>
      <point x="375" y="339" type="curve" smooth="yes"/>
      <point x="570" y="339"/>
      <point x="627" y="419"/>
      <point x="627" y="502" type="curve" smooth="yes"/>
      <point x="627" y="590"/>
      <point x="555" y="681"/>
      <point x="350" y="681" type="curve" smooth="yes"/>
      <point x="289" y="681" type="line" smooth="yes"/>
      <point x="265" y="681"/>
      <point x="254" y="697"/>
      <point x="254" y="713" type="curve" smooth="yes"/>
      <point x="254" y="729"/>
      <point x="265" y="745"/>
      <point x="289" y="745" type="curve" smooth="yes"/>
      <point x="350" y="745" type="line" smooth="yes"/>
      <point x="542" y="745"/>
      <point x="606" y="831"/>
      <point x="606" y="912" type="curve" smooth="yes"/>
      <point x="606" y="986"/>
      <point x="559" y="1057"/>
      <point x="385" y="1057" type="curve" smooth="yes"/>
      <point x="238" y="1057"/>
      <point x="154" y="1006"/>
    </contour>
  </outline>
</glyph>
<glyph name="questiondown" format="1">
  <advance width="888"/>
  <unicode hex="00BF"/>
  <outline>
    <contour>
      <point x="684" y="1079" type="curve" smooth="yes"/>
      <point x="684" y="1044"/>
      <point x="661" y="1020"/>
      <point x="626" y="1020" type="curve" smooth="yes"/>
      <point x="593" y="1020"/>
      <point x="566" y="1044"/>
      <point x="566" y="1079" type="curve" smooth="yes"/>
      <point x="566" y="1112"/>
      <point x="593" y="1135"/>
      <point x="626" y="1135" type="curve" smooth="yes"/>
      <point x="661" y="1135"/>
      <point x="684" y="1112"/>
    </contour>
    <contour>
      <point x="592" y="645" type="curve"/>
      <point x="592" y="861" type="line" smooth="yes"/>
      <point x="592" y="900"/>
      <point x="592" y="931"/>
      <point x="625" y="931" type="curve" smooth="yes"/>
      <point x="664" y="931"/>
      <point x="664" y="899"/>
      <point x="664" y="863" type="curve" smooth="yes"/>
      <point x="664" y="613" type="line" smooth="yes"/>
      <point x="664" y="597"/>
      <point x="653" y="581"/>
      <point x="629" y="581" type="curve" smooth="yes"/>
      <point x="196" y="581"/>
      <point x="125" y="456"/>
      <point x="125" y="324" type="curve" smooth="yes"/>
      <point x="125" y="168"/>
      <point x="197" y="59"/>
      <point x="473" y="59" type="curve" smooth="yes"/>
      <point x="590" y="59"/>
      <point x="690" y="86"/>
      <point x="765" y="109" type="curve" smooth="yes"/>
      <point x="774" y="112"/>
      <point x="782" y="114"/>
      <point x="791" y="114" type="curve" smooth="yes"/>
      <point x="814" y="114"/>
      <point x="827" y="103"/>
      <point x="827" y="88" type="curve" smooth="yes"/>
      <point x="827" y="37"/>
      <point x="622" y="-10"/>
      <point x="473" y="-10" type="curve" smooth="yes"/>
      <point x="158" y="-10"/>
      <point x="59" y="133"/>
      <point x="59" y="318" type="curve" smooth="yes"/>
      <point x="59" y="471"/>
      <point x="104" y="637"/>
    </contour>
  </outline>
</glyph>
<glyph name="AE" format="1">
  <advance width="1446"/>
  <unicode hex="00C6"/>
  <outline>
    <contour>
      <point x="290" y="397" type="line"/>
      <point x="627" y="397" type="line"/>
      <point x="627" y="1014" type="line"/>
    </contour>
    <contour>
      <point x="1352" y="35" type="curve" smooth="yes"/>
      <point x="1352" y="-4"/>
      <point x="1317" y="0"/>
      <point x="1278" y="0" type="curve" smooth="yes"/>
      <point x="666" y="0" type="line" smooth="yes"/>
      <point x="627" y="0"/>
      <point x="627" y="0"/>
      <point x="627" y="35" type="curve" smooth="yes"/>
      <point x="627" y="348" type="line"/>
      <point x="269" y="348" type="line"/>
      <point x="206" y="225"/>
      <point x="89" y="-18"/>
      <point x="46" y="-18" type="curve" smooth="yes"/>
      <point x="21" y="-18"/>
      <point x="9" y="1"/>
      <point x="9" y="12" type="curve" smooth="yes"/>
      <point x="9" y="29"/>
      <point x="19" y="44"/>
      <point x="30" y="63" type="curve" smooth="yes"/>
      <point x="578" y="1065" type="line"/>
      <point x="593" y="1090"/>
      <point x="603" y="1111"/>
      <point x="619" y="1114" type="curve"/>
      <point x="1276" y="1114" type="line" smooth="yes"/>
      <point x="1315" y="1114"/>
      <point x="1350" y="1118"/>
      <point x="1350" y="1079" type="curve" smooth="yes"/>
      <point x="1350" y="1046"/>
      <point x="1315" y="1048"/>
      <point x="1276" y="1048" type="curve" smooth="yes"/>
      <point x="712" y="1048" type="line"/>
      <point x="712" y="601" type="line"/>
      <point x="1249" y="601" type="line" smooth="yes"/>
      <point x="1287" y="601"/>
      <point x="1323" y="604"/>
      <point x="1323" y="572" type="curve" smooth="yes"/>
      <point x="1323" y="543"/>
      <point x="1304" y="539"/>
      <point x="1278" y="539" type="curve" smooth="yes"/>
      <point x="1269" y="539"/>
      <point x="1259" y="540"/>
      <point x="1249" y="540" type="curve" smooth="yes"/>
      <point x="712" y="540" type="line"/>
      <point x="712" y="66" type="line"/>
      <point x="1278" y="66" type="line" smooth="yes"/>
      <point x="1317" y="66"/>
      <point x="1352" y="68"/>
    </contour>
  </outline>
</glyph>
<glyph name="Eth" format="1">
  <advance width="1650"/>
  <unicode hex="00D0"/>
  <outline>
    <contour>
      <point x="1442" y="559" type="curve" smooth="yes"/>
      <point x="1442" y="903"/>
      <point x="1301" y="1048"/>
      <point x="867" y="1048" type="curve" smooth="yes"/>
      <point x="225" y="1048" type="line"/>
      <point x="225" y="614" type="line"/>
      <point x="409" y="614" type="line" smooth="yes"/>
      <point x="428" y="614"/>
      <point x="436" y="593"/>
      <point x="436" y="576" type="curve" smooth="yes"/>
      <point x="436" y="560"/>
      <point x="428" y="540"/>
      <point x="409" y="540" type="curve" smooth="yes"/>
      <point x="225" y="540" type="line"/>
      <point x="225" y="66" type="line"/>
      <point x="867" y="66" type="line" smooth="yes"/>
      <point x="1301" y="66"/>
      <point x="1442" y="210"/>
    </contour>
    <contour>
      <point x="1527" y="559" type="curve" smooth="yes"/>
      <point x="1527" y="133"/>
      <point x="1302" y="0"/>
      <point x="867" y="0" type="curve" smooth="yes"/>
      <point x="179" y="0" type="line" smooth="yes"/>
      <point x="140" y="0"/>
      <point x="140" y="0"/>
      <point x="140" y="35" type="curve" smooth="yes"/>
      <point x="140" y="540" type="line"/>
      <point x="50" y="540" type="line" smooth="yes"/>
      <point x="31" y="540"/>
      <point x="23" y="560"/>
      <point x="23" y="576" type="curve" smooth="yes"/>
      <point x="23" y="593"/>
      <point x="31" y="614"/>
      <point x="50" y="614" type="curve" smooth="yes"/>
      <point x="140" y="614" type="line"/>
      <point x="140" y="1077" type="line" smooth="yes"/>
      <point x="140" y="1116"/>
      <point x="140" y="1114"/>
      <point x="181" y="1114" type="curve" smooth="yes"/>
      <point x="867" y="1114" type="line" smooth="yes"/>
      <point x="1302" y="1114"/>
      <point x="1527" y="975"/>
    </contour>
  </outline>
</glyph>
<glyph name="multiply" format="1">
  <advance width="665"/>
  <unicode hex="00D7"/>
  <outline>
    <contour>
      <point x="486" y="287" type="curve" smooth="yes"/>
      <point x="332" y="434" type="line"/>
      <point x="209" y="315" type="line" smooth="yes"/>
      <point x="186" y="293"/>
      <point x="152" y="252"/>
      <point x="125" y="252" type="curve" smooth="yes"/>
      <point x="108" y="252"/>
      <point x="93" y="270"/>
      <point x="93" y="283" type="curve" smooth="yes"/>
      <point x="93" y="302"/>
      <point x="109" y="319"/>
      <point x="132" y="338" type="curve"/>
      <point x="283" y="483" type="line"/>
      <point x="127" y="631" type="line"/>
      <point x="104" y="650"/>
      <point x="91" y="666"/>
      <point x="91" y="682" type="curve" smooth="yes"/>
      <point x="91" y="698"/>
      <point x="110" y="715"/>
      <point x="125" y="715" type="curve" smooth="yes"/>
      <point x="152" y="715"/>
      <point x="183" y="673"/>
      <point x="207" y="651" type="curve" smooth="yes"/>
      <point x="332" y="532" type="line"/>
      <point x="457" y="651" type="line" smooth="yes"/>
      <point x="481" y="674"/>
      <point x="515" y="715"/>
      <point x="539" y="715" type="curve" smooth="yes"/>
      <point x="554" y="715"/>
      <point x="574" y="698"/>
      <point x="574" y="682" type="curve" smooth="yes"/>
      <point x="574" y="667"/>
      <point x="558" y="649"/>
      <point x="539" y="631" type="curve" smooth="yes"/>
      <point x="385" y="483" type="line"/>
      <point x="537" y="338" type="line" smooth="yes"/>
      <point x="556" y="319"/>
      <point x="572" y="301"/>
      <point x="572" y="285" type="curve" smooth="yes"/>
      <point x="572" y="270"/>
      <point x="558" y="250"/>
      <point x="541" y="250" type="curve" smooth="yes"/>
      <point x="525" y="250"/>
      <point x="505" y="268"/>
    </contour>
  </outline>
</glyph>
<glyph name="Oslash" format="1">
  <advance width="1715"/>
  <unicode hex="00D8"/>
  <outline>
    <contour>
      <point x="1592" y="557" type="curve" smooth="yes"/>
      <point x="1592" y="168"/>
      <point x="1364" y="-21"/>
      <point x="857" y="-21" type="curve" smooth="yes"/>
      <point x="795" y="-21"/>
      <point x="738" y="-19"/>
      <point x="684" y="-13" type="curve"/>
      <point x="650" y="-102" type="line" smooth="yes"/>
      <point x="638" y="-134"/>
      <point x="629" y="-159"/>
      <point x="605" y="-159" type="curve" smooth="yes"/>
      <point x="572" y="-159"/>
      <point x="568" y="-135"/>
      <point x="568" y="-120" type="curve" smooth="yes"/>
      <point x="568" y="-108"/>
      <point x="574" y="-96"/>
      <point x="580" y="-81" type="curve" smooth="yes"/>
      <point x="610" y="-2" type="line"/>
      <point x="276" y="54"/>
      <point x="123" y="238"/>
      <point x="123" y="557" type="curve" smooth="yes"/>
      <point x="123" y="946"/>
      <point x="350" y="1135"/>
      <point x="857" y="1135" type="curve" smooth="yes"/>
      <point x="920" y="1135"/>
      <point x="979" y="1132"/>
      <point x="1034" y="1126" type="curve"/>
      <point x="1070" y="1222" type="line" smooth="yes"/>
      <point x="1081" y="1252"/>
      <point x="1088" y="1280"/>
      <point x="1119" y="1280" type="curve" smooth="yes"/>
      <point x="1147" y="1280"/>
      <point x="1152" y="1262"/>
      <point x="1152" y="1245" type="curve" smooth="yes"/>
      <point x="1152" y="1231"/>
      <point x="1147" y="1216"/>
      <point x="1142" y="1202" type="curve" smooth="yes"/>
      <point x="1109" y="1116" type="line"/>
      <point x="1440" y="1059"/>
      <point x="1592" y="874"/>
    </contour>
    <contour>
      <point x="633" y="61" type="curve"/>
      <point x="1010" y="1062" type="line"/>
      <point x="962" y="1067"/>
      <point x="911" y="1069"/>
      <point x="857" y="1069" type="curve" smooth="yes"/>
      <point x="420" y="1069"/>
      <point x="208" y="929"/>
      <point x="208" y="557" type="curve" smooth="yes"/>
      <point x="208" y="255"/>
      <point x="347" y="107"/>
    </contour>
    <contour>
      <point x="708" y="51" type="line"/>
      <point x="754" y="47"/>
      <point x="804" y="45"/>
      <point x="857" y="45" type="curve" smooth="yes"/>
      <point x="1294" y="45"/>
      <point x="1507" y="185"/>
      <point x="1507" y="557" type="curve" smooth="yes"/>
      <point x="1507" y="857"/>
      <point x="1369" y="1007"/>
      <point x="1086" y="1053" type="curve"/>
    </contour>
  </outline>
</glyph>
<glyph name="Thorn" format="1">
  <advance width="1030"/>
  <unicode hex="00DE"/>
  <outline>
    <contour>
      <point x="245" y="828" type="line"/>
      <point x="245" y="330" type="line"/>
      <point x="493" y="330" type="line" smooth="yes"/>
      <point x="853" y="330"/>
      <point x="909" y="452"/>
      <point x="909" y="576" type="curve" smooth="yes"/>
      <point x="909" y="702"/>
      <point x="848" y="828"/>
      <point x="493" y="828" type="curve" smooth="yes"/>
    </contour>
    <contour>
      <point x="493" y="264" type="curve" smooth="yes"/>
      <point x="245" y="264" type="line"/>
      <point x="245" y="76" type="line" smooth="yes"/>
      <point x="245" y="37"/>
      <point x="238" y="0"/>
      <point x="206" y="0" type="curve" smooth="yes"/>
      <point x="167" y="0"/>
      <point x="160" y="35"/>
      <point x="160" y="76" type="curve" smooth="yes"/>
      <point x="160" y="1034" type="line" smooth="yes"/>
      <point x="160" y="1075"/>
      <point x="167" y="1110"/>
      <point x="206" y="1110" type="curve" smooth="yes"/>
      <point x="238" y="1110"/>
      <point x="245" y="1073"/>
      <point x="245" y="1034" type="curve" smooth="yes"/>
      <point x="245" y="894" type="line"/>
      <point x="493" y="894" type="line" smooth="yes"/>
      <point x="901" y="894"/>
      <point x="989" y="734"/>
      <point x="989" y="575" type="curve" smooth="yes"/>
      <point x="989" y="419"/>
      <point x="906" y="264"/>
    </contour>
  </outline>
</glyph>
<glyph name="germandbls" format="1">
  <advance width="1209"/>
  <unicode hex="00DF"/>
  <outline>
    <contour>
      <point x="1170" y="288" type="curve" smooth="yes"/>
      <point x="1170" y="91"/>
      <point x="1090" y="0"/>
      <point x="585" y="0" type="curve" smooth="yes"/>
      <point x="554" y="0"/>
      <point x="521" y="5"/>
      <point x="521" y="32" type="curve" smooth="yes"/>
      <point x="521" y="64"/>
      <point x="550" y="66"/>
      <point x="589" y="66" type="curve" smooth="yes"/>
      <point x="984" y="66"/>
      <point x="1098" y="105"/>
      <point x="1098" y="280" type="curve" smooth="yes"/>
      <point x="1098" y="505"/>
      <point x="846" y="518"/>
      <point x="658" y="518" type="curve" smooth="yes"/>
      <point x="591" y="518" type="line" smooth="yes"/>
      <point x="502" y="518"/>
      <point x="464" y="525"/>
      <point x="464" y="589" type="curve" smooth="yes"/>
      <point x="464" y="625"/>
      <point x="489" y="643"/>
      <point x="546" y="655" type="curve" smooth="yes"/>
      <point x="699" y="687"/>
      <point x="951" y="737"/>
      <point x="951" y="885" type="curve" smooth="yes"/>
      <point x="951" y="1023"/>
      <point x="834" y="1063"/>
      <point x="625" y="1063" type="curve" smooth="yes"/>
      <point x="360" y="1063"/>
      <point x="230" y="1002"/>
      <point x="230" y="752" type="curve" smooth="yes"/>
      <point x="230" y="-4" type="line" smooth="yes"/>
      <point x="230" y="-43"/>
      <point x="230" y="-73"/>
      <point x="198" y="-73" type="curve" smooth="yes"/>
      <point x="159" y="-73"/>
      <point x="159" y="-43"/>
      <point x="159" y="-4" type="curve" smooth="yes"/>
      <point x="159" y="752" type="line" smooth="yes"/>
      <point x="159" y="1029"/>
      <point x="299" y="1135"/>
      <point x="624" y="1135" type="curve" smooth="yes"/>
      <point x="881" y="1135"/>
      <point x="1025" y="1078"/>
      <point x="1025" y="878" type="curve" smooth="yes"/>
      <point x="1025" y="626"/>
      <point x="542" y="614"/>
      <point x="542" y="586" type="curve" smooth="yes"/>
      <point x="542" y="578"/>
      <point x="588" y="580"/>
      <point x="638" y="580" type="curve" smooth="yes"/>
      <point x="863" y="580"/>
      <point x="1170" y="570"/>
    </contour>
  </outline>
</glyph>
<glyph name="eth" format="1">
  <advance width="1064"/>
  <unicode hex="00F0"/>
  <outline>
    <contour>
      <point x="789.922" y="974.476" type="curve"/>
      <point x="909.132" y="877.228"/>
      <point x="979.218" y="702.185"/>
      <point x="979.218" y="509.035" type="curve" smooth="yes"/>
      <point x="979.218" y="145.55"/>
      <point x="849.443" y="-20.4727"/>
      <point x="545.256" y="-20.4727" type="curve" smooth="yes"/>
      <point x="223.299" y="-20.4727"/>
      <point x="122.307" y="154.094"/>
      <point x="122.307" y="342.796" type="curve" smooth="yes"/>
      <point x="122.307" y="554.684"/>
      <point x="283.358" y="671.543"/>
      <point x="495.801" y="671.543" type="curve" smooth="yes"/>
      <point x="620.548" y="671.543"/>
      <point x="763.016" y="633.422"/>
      <point x="901" y="553" type="curve"/>
      <point x="901" y="720.76"/>
      <point x="823.135" y="862.093"/>
      <point x="733.353" y="932.657" type="curve"/>
      <point x="685.789" y="897.295"/>
      <point x="638.185" y="861.973"/>
      <point x="590.538" y="826.694" type="curve" smooth="yes"/>
      <point x="584.476" y="821.42"/>
      <point x="578.404" y="819.231"/>
      <point x="572.914" y="819.231" type="curve" smooth="yes"/>
      <point x="560.761" y="819.231"/>
      <point x="551.463" y="829.957"/>
      <point x="551.463" y="841.678" type="curve" smooth="yes"/>
      <point x="551.463" y="848.877"/>
      <point x="554.971" y="856.451"/>
      <point x="563.479" y="862.146" type="curve" smooth="yes"/>
      <point x="608.652" y="895.223"/>
      <point x="653.75" y="928.376"/>
      <point x="698.778" y="961.598" type="curve"/>
      <point x="583.318" y="1052.66"/>
      <point x="373.785" y="1061"/>
      <point x="264" y="1061" type="curve" smooth="yes"/>
      <point x="247.078" y="1061"/>
      <point x="238.53" y="1075.93"/>
      <point x="238.53" y="1090.51" type="curve" smooth="yes"/>
      <point x="238.53" y="1104.42"/>
      <point x="246.304" y="1118"/>
      <point x="262" y="1118" type="curve" smooth="yes"/>
      <point x="420.001" y="1118"/>
      <point x="588.681" y="1115.73"/>
      <point x="756.322" y="1004.12" type="curve"/>
      <point x="807.917" y="1042.3"/>
      <point x="859.424" y="1080.57"/>
      <point x="910.854" y="1118.92" type="curve"/>
      <point x="915.764" y="1124.1"/>
      <point x="921.256" y="1126.26"/>
      <point x="926.521" y="1126.26" type="curve" smooth="yes"/>
      <point x="938.554" y="1126.26"/>
      <point x="949.402" y="1114.99"/>
      <point x="949.402" y="1102.78" type="curve" smooth="yes"/>
      <point x="949.402" y="1096.05"/>
      <point x="946.111" y="1089.04"/>
      <point x="937.914" y="1083.47" type="curve" smooth="yes"/>
      <point x="888.623" y="1047.1"/>
      <point x="839.293" y="1010.77"/>
    </contour>
    <contour>
      <point x="901" y="489" type="curve"/>
      <point x="777.739" y="556.753"/>
      <point x="625.318" y="602.644"/>
      <point x="494.03" y="602.644" type="curve" smooth="yes"/>
      <point x="330.022" y="602.644"/>
      <point x="198.993" y="527.404"/>
      <point x="198.993" y="327.711" type="curve" smooth="yes"/>
      <point x="198.993" y="191.948"/>
      <point x="270.95" y="48.1396"/>
      <point x="539.183" y="48.1396" type="curve" smooth="yes"/>
      <point x="805.956" y="48.1396"/>
      <point x="901" y="194.522"/>
    </contour>
  </outline>
</glyph>
<glyph name="divide" format="1">
  <advance width="681"/>
  <unicode hex="00F7"/>
  <outline>
    <contour>
      <point x="277" y="665" type="curve" smooth="yes"/>
      <point x="277" y="703"/>
      <point x="302" y="730"/>
      <point x="341" y="730" type="curve" smooth="yes"/>
      <point x="377" y="730"/>
      <point x="407" y="703"/>
      <point x="407" y="665" type="curve" smooth="yes"/>
      <point x="407" y="628"/>
      <point x="377" y="603"/>
      <point x="341" y="603" type="curve" smooth="yes"/>
      <point x="302" y="603"/>
      <point x="277" y="628"/>
    </contour>
    <contour>
      <point x="277" y="303" type="curve" smooth="yes"/>
      <point x="277" y="341"/>
      <point x="302" y="368"/>
      <point x="341" y="368" type="curve" smooth="yes"/>
      <point x="377" y="368"/>
      <point x="407" y="341"/>
      <point x="407" y="303" type="curve" smooth="yes"/>
      <point x="407" y="266"/>
      <point x="377" y="241"/>
      <point x="341" y="241" type="curve" smooth="yes"/>
      <point x="302" y="241"/>
      <point x="277" y="266"/>
    </contour>
    <contour>
      <point x="124" y="518" type="curve" smooth="yes"/>
      <point x="533" y="518" type="line" smooth="yes"/>
      <point x="552" y="518"/>
      <point x="560" y="497"/>
      <point x="560" y="480" type="curve" smooth="yes"/>
      <point x="560" y="464"/>
      <point x="552" y="444"/>
      <point x="533" y="444" type="curve" smooth="yes"/>
      <point x="124" y="444" type="line" smooth="yes"/>
      <point x="105" y="444"/>
      <point x="97" y="464"/>
      <point x="97" y="480" type="curve" smooth="yes"/>
      <point x="97" y="497"/>
      <point x="105" y="518"/>
    </contour>
  </outline>
</glyph>
<glyph name="oslash" format="1">
  <advance width="1240"/>
  <unicode hex="00F8"/>
  <outline>
    <contour>
      <point x="620" y="49" type="curve" smooth="yes"/>
      <point x="983" y="49"/>
      <point x="1037" y="222"/>
      <point x="1037" y="385" type="curve" smooth="yes"/>
      <point x="1037" y="578"/>
      <point x="962" y="678"/>
      <point x="790" y="713" type="curve"/>
      <point x="541" y="52" type="line"/>
      <point x="566" y="50"/>
      <point x="592" y="49"/>
    </contour>
    <contour>
      <point x="466" y="62" type="curve"/>
      <point x="714" y="723" type="line"/>
      <point x="685" y="726"/>
      <point x="654" y="727"/>
      <point x="620" y="727" type="curve" smooth="yes"/>
      <point x="328" y="727"/>
      <point x="203" y="633"/>
      <point x="203" y="385" type="curve" smooth="yes"/>
      <point x="203" y="248"/>
      <point x="240" y="105"/>
    </contour>
    <contour>
      <point x="811" y="770" type="line"/>
      <point x="1020" y="729"/>
      <point x="1117" y="608"/>
      <point x="1117" y="385" type="curve" smooth="yes"/>
      <point x="1117" y="141"/>
      <point x="988" y="-10"/>
      <point x="620" y="-10" type="curve" smooth="yes"/>
      <point x="584" y="-10"/>
      <point x="550" y="-9"/>
      <point x="519" y="-6" type="curve"/>
      <point x="455" y="-176" type="line"/>
      <point x="440" y="-207"/>
      <point x="434" y="-233"/>
      <point x="410" y="-233" type="curve" smooth="yes"/>
      <point x="380" y="-233"/>
      <point x="373" y="-212"/>
      <point x="373" y="-197" type="curve"/>
      <point x="372" y="-183"/>
      <point x="379" y="-171"/>
      <point x="385" y="-155" type="curve" smooth="yes"/>
      <point x="445" y="4" type="line"/>
      <point x="210" y="47"/>
      <point x="123" y="185"/>
      <point x="123" y="385" type="curve" smooth="yes"/>
      <point x="123" y="667"/>
      <point x="279" y="786"/>
      <point x="620" y="786" type="curve" smooth="yes"/>
      <point x="661" y="786"/>
      <point x="700" y="785"/>
      <point x="736" y="781" type="curve"/>
      <point x="795" y="938" type="line"/>
      <point x="804" y="969"/>
      <point x="813" y="996"/>
      <point x="844" y="996" type="curve" smooth="yes"/>
      <point x="872" y="996"/>
      <point x="877" y="978"/>
      <point x="877" y="961" type="curve" smooth="yes"/>
      <point x="877" y="947"/>
      <point x="872" y="932"/>
      <point x="867" y="918" type="curve" smooth="yes"/>
    </contour>
  </outline>
</glyph>
<glyph name="thorn" format="1">
  <advance width="1196"/>
  <unicode hex="00FE"/>
  <outline>
    <contour>
      <point x="630" y="727" type="curve"/>
      <point x="470" y="724"/>
      <point x="228" y="691"/>
      <point x="180" y="524" type="curve"/>
      <point x="180" y="140" type="line"/>
      <point x="294" y="97"/>
      <point x="444" y="49"/>
      <point x="630" y="49" type="curve" smooth="yes"/>
      <point x="886" y="49"/>
      <point x="993" y="153"/>
      <point x="993" y="396" type="curve" smooth="yes"/>
      <point x="993" y="648"/>
      <point x="831" y="727"/>
    </contour>
    <contour>
      <point x="630" y="786" type="curve" smooth="yes"/>
      <point x="870" y="786"/>
      <point x="1073" y="687"/>
      <point x="1073" y="396" type="curve" smooth="yes"/>
      <point x="1073" y="102"/>
      <point x="913" y="-10"/>
      <point x="630" y="-10" type="curve" smooth="yes"/>
      <point x="440" y="-10"/>
      <point x="286" y="36"/>
      <point x="180" y="78" type="curve"/>
      <point x="178" y="-267" type="line" smooth="yes"/>
      <point x="178" y="-302"/>
      <point x="178" y="-337"/>
      <point x="139" y="-337" type="curve" smooth="yes"/>
      <point x="100" y="-337"/>
      <point x="100" y="-300"/>
      <point x="100" y="-261" type="curve" smooth="yes"/>
      <point x="100" y="1061" type="line" smooth="yes"/>
      <point x="100" y="1104"/>
      <point x="118" y="1110"/>
      <point x="137" y="1110" type="curve" smooth="yes"/>
      <point x="160" y="1110"/>
      <point x="175" y="1104"/>
      <point x="175" y="1061" type="curve" smooth="yes"/>
      <point x="175" y="594" type="line"/>
      <point x="219" y="765"/>
      <point x="493" y="786"/>
    </contour>
  </outline>
</glyph>
<glyph name="gcedilla" format="1">
  <advance width="1123"/>
  <unicode hex="0123"/>
  <outline>
    <contour>
      <point x="632" y="1138" type="curve"/>
      <point x="632" y="1102" type="line"/>
      <point x="583" y="1102"/>
      <point x="569" y="1074"/>
      <point x="569" y="1035" type="curve"/>
      <point x="591" y="1028"/>
      <point x="618" y="1008"/>
      <point x="618" y="968" type="curve" smooth="yes"/>
      <point x="618" y="929"/>
      <point x="586" y="909"/>
      <point x="548" y="909" type="curve" smooth="yes"/>
      <point x="517" y="909"/>
      <point x="480" y="933"/>
      <point x="480" y="983" type="curve" smooth="yes"/>
      <point x="480" y="1051"/>
      <point x="530" y="1138"/>
    </contour>
    <contour>
      <point x="544" y="-270" type="curve" smooth="yes"/>
      <point x="763" y="-270"/>
      <point x="923" y="-195"/>
      <point x="923" y="-23" type="curve" smooth="yes"/>
      <point x="923" y="96" type="line"/>
      <point x="808" y="16"/>
      <point x="657" y="-10"/>
      <point x="525" y="-10" type="curve" smooth="yes"/>
      <point x="222" y="-10"/>
      <point x="44" y="70"/>
      <point x="44" y="383" type="curve" smooth="yes"/>
      <point x="44" y="695"/>
      <point x="250" y="786"/>
      <point x="562" y="786" type="curve" smooth="yes"/>
      <point x="837" y="786"/>
      <point x="904" y="670"/>
      <point x="923" y="594" type="curve"/>
      <point x="923" y="618"/>
      <point x="920" y="651"/>
      <point x="920" y="682" type="curve" smooth="yes"/>
      <point x="920" y="727"/>
      <point x="926" y="766"/>
      <point x="955" y="766" type="curve" smooth="yes"/>
      <point x="994" y="766"/>
      <point x="1003" y="728"/>
      <point x="1003" y="696" type="curve" smooth="yes"/>
      <point x="1003" y="-23" type="line" smooth="yes"/>
      <point x="1003" y="-234"/>
      <point x="837" y="-340"/>
      <point x="544" y="-340" type="curve" smooth="yes"/>
      <point x="351" y="-340"/>
      <point x="250" y="-299"/>
      <point x="177" y="-258" type="curve"/>
      <point x="163" y="-254"/>
      <point x="136" y="-235"/>
      <point x="136" y="-213" type="curve" smooth="yes"/>
      <point x="136" y="-188"/>
      <point x="161" y="-178"/>
      <point x="169" y="-178" type="curve" smooth="yes"/>
      <point x="192" y="-178"/>
      <point x="234" y="-216"/>
      <point x="294" y="-233" type="curve"/>
      <point x="350" y="-252"/>
      <point x="428" y="-270"/>
    </contour>
    <contour>
      <point x="570" y="717" type="curve" smooth="yes"/>
      <point x="253" y="717"/>
      <point x="124" y="629"/>
      <point x="124" y="383" type="curve" smooth="yes"/>
      <point x="124" y="137"/>
      <point x="228" y="49"/>
      <point x="529" y="49" type="curve" smooth="yes"/>
      <point x="667" y="49"/>
      <point x="814" y="78"/>
      <point x="923" y="150" type="curve"/>
      <point x="923" y="524" type="line"/>
      <point x="904" y="599"/>
      <point x="836" y="717"/>
    </contour>
  </outline>
</glyph>
<glyph name="Hbar" format="1">
  <advance width="1373"/>
  <unicode hex="0126"/>
  <outline>
    <contour>
      <point x="244" y="889" type="line"/>
      <point x="244" y="606" type="line"/>
      <point x="1129" y="606" type="line"/>
      <point x="1129" y="889" type="line"/>
    </contour>
    <contour>
      <point x="159" y="889" type="line"/>
      <point x="92" y="889" type="line" smooth="yes"/>
      <point x="74" y="889"/>
      <point x="64" y="903"/>
      <point x="64" y="917" type="curve" smooth="yes"/>
      <point x="64" y="931"/>
      <point x="74" y="946"/>
      <point x="92" y="946" type="curve" smooth="yes"/>
      <point x="159" y="946" type="line"/>
      <point x="159" y="1044" type="line" smooth="yes"/>
      <point x="159" y="1079"/>
      <point x="166" y="1114"/>
      <point x="207" y="1114" type="curve" smooth="yes"/>
      <point x="236" y="1114"/>
      <point x="244" y="1077"/>
      <point x="244" y="1044" type="curve" smooth="yes"/>
      <point x="244" y="946" type="line"/>
      <point x="1129" y="946" type="line"/>
      <point x="1129" y="1044" type="line" smooth="yes"/>
      <point x="1129" y="1079"/>
      <point x="1132" y="1114"/>
      <point x="1171" y="1114" type="curve" smooth="yes"/>
      <point x="1211" y="1114"/>
      <point x="1214" y="1079"/>
      <point x="1214" y="1044" type="curve" smooth="yes"/>
      <point x="1214" y="946" type="line"/>
      <point x="1285" y="946" type="line" smooth="yes"/>
      <point x="1303" y="946"/>
      <point x="1312" y="931"/>
      <point x="1312" y="917" type="curve" smooth="yes"/>
      <point x="1312" y="903"/>
      <point x="1303" y="889"/>
      <point x="1285" y="889" type="curve" smooth="yes"/>
      <point x="1214" y="889" type="line"/>
      <point x="1214" y="70" type="line" smooth="yes"/>
      <point x="1214" y="35"/>
      <point x="1211" y="0"/>
      <point x="1172" y="0" type="curve" smooth="yes"/>
      <point x="1132" y="0"/>
      <point x="1129" y="35"/>
      <point x="1129" y="70" type="curve" smooth="yes"/>
      <point x="1129" y="544" type="line"/>
      <point x="244" y="544" type="line"/>
      <point x="244" y="70" type="line" smooth="yes"/>
      <point x="244" y="37"/>
      <point x="234" y="0"/>
      <point x="205" y="0" type="curve" smooth="yes"/>
      <point x="164" y="0"/>
      <point x="159" y="35"/>
      <point x="159" y="70" type="curve" smooth="yes"/>
    </contour>
  </outline>
</glyph>
<glyph name="hbar" format="1">
  <advance width="1085"/>
  <unicode hex="0127"/>
  <outline>
    <contour>
      <point x="993" y="418" type="curve" smooth="yes"/>
      <point x="993" y="72" type="line" smooth="yes"/>
      <point x="993" y="37"/>
      <point x="987" y="0"/>
      <point x="955" y="0" type="curve" smooth="yes"/>
      <point x="916" y="0"/>
      <point x="913" y="37"/>
      <point x="913" y="72" type="curve" smooth="yes"/>
      <point x="913" y="418" type="line" smooth="yes"/>
      <point x="913" y="626"/>
      <point x="862" y="727"/>
      <point x="606" y="727" type="curve" smooth="yes"/>
      <point x="451" y="727"/>
      <point x="229" y="681"/>
      <point x="181" y="524" type="curve"/>
      <point x="181" y="72" type="line" smooth="yes"/>
      <point x="181" y="37"/>
      <point x="175" y="0"/>
      <point x="143" y="0" type="curve" smooth="yes"/>
      <point x="105" y="0"/>
      <point x="101" y="37"/>
      <point x="101" y="72" type="curve" smooth="yes"/>
      <point x="101" y="912" type="line"/>
      <point x="28" y="912" type="line" smooth="yes"/>
      <point x="12" y="912"/>
      <point x="0" y="926"/>
      <point x="0" y="942" type="curve" smooth="yes"/>
      <point x="0" y="958"/>
      <point x="12" y="972"/>
      <point x="28" y="972" type="curve" smooth="yes"/>
      <point x="101" y="972" type="line"/>
      <point x="101" y="1044" type="line" smooth="yes"/>
      <point x="101" y="1076"/>
      <point x="105" y="1114"/>
      <point x="143" y="1114" type="curve" smooth="yes"/>
      <point x="175" y="1114"/>
      <point x="181" y="1079"/>
      <point x="181" y="1044" type="curve" smooth="yes"/>
      <point x="181" y="972" type="line"/>
      <point x="435" y="972" type="line" smooth="yes"/>
      <point x="451" y="972"/>
      <point x="463" y="958"/>
      <point x="463" y="942" type="curve" smooth="yes"/>
      <point x="463" y="926"/>
      <point x="451" y="912"/>
      <point x="435" y="912" type="curve" smooth="yes"/>
      <point x="181" y="912" type="line"/>
      <point x="181" y="594" type="line"/>
      <point x="225" y="755"/>
      <point x="470" y="786"/>
      <point x="606" y="786" type="curve" smooth="yes"/>
      <point x="894" y="786"/>
      <point x="993" y="695"/>
    </contour>
  </outline>
</glyph>
<glyph name="dotlessi" format="1">
  <advance width="312"/>
  <unicode hex="0131"/>
  <outline>
    <contour>
      <point x="196" y="707" type="curve" smooth="yes"/>
      <point x="196" y="63" type="line" smooth="yes"/>
      <point x="196" y="28"/>
      <point x="195" y="0"/>
      <point x="156" y="0" type="curve" smooth="yes"/>
      <point x="119" y="0"/>
      <point x="116" y="24"/>
      <point x="116" y="63" type="curve" smooth="yes"/>
      <point x="116" y="705" type="line" smooth="yes"/>
      <point x="116" y="744"/>
      <point x="119" y="775"/>
      <point x="156" y="775" type="curve" smooth="yes"/>
      <point x="189" y="775"/>
      <point x="196" y="742"/>
    </contour>
  </outline>
</glyph>
<glyph name="IJ" format="1">
  <advance width="2088"/>
  <unicode hex="0132"/>
  <outline>
    <contour>
      <point x="1929" y="1044" type="curve" smooth="yes"/>
      <point x="1929" y="594" type="line" smooth="yes"/>
      <point x="1929" y="178"/>
      <point x="1831" y="-20"/>
      <point x="1498" y="-20" type="curve" smooth="yes"/>
      <point x="1271" y="-20"/>
      <point x="1089" y="25"/>
      <point x="1038" y="214" type="curve" smooth="yes"/>
      <point x="1035" y="222"/>
      <point x="1034" y="230"/>
      <point x="1034" y="238" type="curve" smooth="yes"/>
      <point x="1034" y="265"/>
      <point x="1049" y="277"/>
      <point x="1068" y="277" type="curve" smooth="yes"/>
      <point x="1085" y="277"/>
      <point x="1104" y="264"/>
      <point x="1111" y="240" type="curve"/>
      <point x="1153" y="57"/>
      <point x="1341" y="49"/>
      <point x="1498" y="49" type="curve" smooth="yes"/>
      <point x="1781" y="49"/>
      <point x="1844" y="240"/>
      <point x="1844" y="594" type="curve" smooth="yes"/>
      <point x="1844" y="1044" type="line" smooth="yes"/>
      <point x="1844" y="1083"/>
      <point x="1850" y="1114"/>
      <point x="1889" y="1114" type="curve" smooth="yes"/>
      <point x="1924" y="1114"/>
      <point x="1929" y="1076"/>
    </contour>
    <contour>
      <point x="473" y="66" type="line"/>
      <point x="473" y="1048" type="line"/>
      <point x="116" y="1048" type="line" smooth="yes"/>
      <point x="81" y="1048"/>
      <point x="43" y="1046"/>
      <point x="43" y="1079" type="curve" smooth="yes"/>
      <point x="43" y="1118"/>
      <point x="84" y="1114"/>
      <point x="116" y="1114" type="curve" smooth="yes"/>
      <point x="915" y="1114" type="line" smooth="yes"/>
      <point x="954" y="1114"/>
      <point x="987" y="1117"/>
      <point x="987" y="1081" type="curve" smooth="yes"/>
      <point x="987" y="1045"/>
      <point x="954" y="1048"/>
      <point x="915" y="1048" type="curve" smooth="yes"/>
      <point x="558" y="1048" type="line"/>
      <point x="558" y="66" type="line"/>
      <point x="915" y="66" type="line" smooth="yes"/>
      <point x="954" y="66"/>
      <point x="987" y="69"/>
      <point x="987" y="33" type="curve" smooth="yes"/>
      <point x="987" y="-3"/>
      <point x="954" y="0"/>
      <point x="915" y="0" type="curve" smooth="yes"/>
      <point x="116" y="0" type="line" smooth="yes"/>
      <point x="84" y="0"/>
      <point x="43" y="-4"/>
      <point x="43" y="35" type="curve" smooth="yes"/>
      <point x="43" y="68"/>
      <point x="81" y="66"/>
      <point x="116" y="66" type="curve" smooth="yes"/>
    </contour>
  </outline>
</glyph>
<glyph name="ij" format="1">
  <advance width="909"/>
  <unicode hex="0133"/>
  <outline>
    <contour>
      <point x="691" y="992" type="curve" smooth="yes"/>
      <point x="691" y="1023"/>
      <point x="713" y="1046"/>
      <point x="744" y="1046" type="curve" smooth="yes"/>
      <point x="775" y="1046"/>
      <point x="799" y="1023"/>
      <point x="799" y="992" type="curve" smooth="yes"/>
      <point x="799" y="961"/>
      <point x="775" y="941"/>
      <point x="744" y="941" type="curve" smooth="yes"/>
      <point x="713" y="941"/>
      <point x="691" y="961"/>
    </contour>
    <contour>
      <point x="785" y="714" type="curve" smooth="yes"/>
      <point x="785" y="94" type="line" smooth="yes"/>
      <point x="785" y="-45"/>
      <point x="781" y="-266"/>
      <point x="492" y="-266" type="curve" smooth="yes"/>
      <point x="457" y="-266"/>
      <point x="426" y="-266"/>
      <point x="426" y="-231" type="curve" smooth="yes"/>
      <point x="426" y="-196"/>
      <point x="457" y="-197"/>
      <point x="492" y="-197" type="curve" smooth="yes"/>
      <point x="713" y="-197"/>
      <point x="705" y="-45"/>
      <point x="705" y="94" type="curve" smooth="yes"/>
      <point x="705" y="714" type="line" smooth="yes"/>
      <point x="705" y="743"/>
      <point x="711" y="766"/>
      <point x="746" y="766" type="curve" smooth="yes"/>
      <point x="785" y="766"/>
      <point x="785" y="743"/>
    </contour>
    <contour>
      <point x="159" y="992" type="curve" smooth="yes"/>
      <point x="159" y="1023"/>
      <point x="181" y="1046"/>
      <point x="212" y="1046" type="curve" smooth="yes"/>
      <point x="243" y="1046"/>
      <point x="267" y="1023"/>
      <point x="267" y="992" type="curve" smooth="yes"/>
      <point x="267" y="961"/>
      <point x="243" y="941"/>
      <point x="212" y="941" type="curve" smooth="yes"/>
      <point x="181" y="941"/>
      <point x="159" y="961"/>
    </contour>
    <contour>
      <point x="252" y="707" type="curve" smooth="yes"/>
      <point x="252" y="63" type="line" smooth="yes"/>
      <point x="252" y="28"/>
      <point x="251" y="0"/>
      <point x="212" y="0" type="curve" smooth="yes"/>
      <point x="175" y="0"/>
      <point x="172" y="24"/>
      <point x="172" y="63" type="curve" smooth="yes"/>
      <point x="172" y="705" type="line" smooth="yes"/>
      <point x="172" y="738"/>
      <point x="177" y="766"/>
      <point x="214" y="766" type="curve" smooth="yes"/>
      <point x="247" y="766"/>
      <point x="252" y="737"/>
    </contour>
  </outline>
</glyph>
<glyph name="kgreenlandic" format="1">
  <advance width="921"/>
  <unicode hex="0138"/>
  <outline>
    <contour>
      <point x="464" y="473" type="line"/>
      <point x="872" y="61" type="line" smooth="yes"/>
      <point x="881" y="52"/>
      <point x="885" y="43"/>
      <point x="885" y="32" type="curve" smooth="yes"/>
      <point x="885" y="15"/>
      <point x="872" y="2"/>
      <point x="853" y="2" type="curve" smooth="yes"/>
      <point x="842" y="2"/>
      <point x="830" y="6"/>
      <point x="819" y="18" type="curve" smooth="yes"/>
      <point x="403" y="444" type="line"/>
      <point x="180" y="318" type="line"/>
      <point x="180" y="44" type="line" smooth="yes"/>
      <point x="180" y="13"/>
      <point x="159" y="0"/>
      <point x="140" y="0" type="curve" smooth="yes"/>
      <point x="123" y="0"/>
      <point x="100" y="13"/>
      <point x="100" y="44" type="curve" smooth="yes"/>
      <point x="100" y="737" type="line" smooth="yes"/>
      <point x="100" y="764"/>
      <point x="125" y="777"/>
      <point x="142" y="777" type="curve" smooth="yes"/>
      <point x="161" y="777"/>
      <point x="180" y="764"/>
      <point x="180" y="737" type="curve" smooth="yes"/>
      <point x="180" y="385" type="line"/>
      <point x="846" y="772" type="line" smooth="yes"/>
      <point x="850" y="774"/>
      <point x="854" y="775"/>
      <point x="859" y="775" type="curve" smooth="yes"/>
      <point x="876" y="775"/>
      <point x="888" y="759"/>
      <point x="888" y="743" type="curve" smooth="yes"/>
      <point x="888" y="732"/>
      <point x="883" y="725"/>
      <point x="872" y="720" type="curve"/>
    </contour>
  </outline>
</glyph>
<glyph name="lslash" format="1">
  <advance width="519"/>
  <unicode hex="0142"/>
  <outline>
    <contour>
      <point x="360" y="639" type="curve"/>
      <point x="337" y="628"/>
      <point x="319" y="621"/>
      <point x="296" y="612" type="curve"/>
      <point x="296" y="72" type="line" smooth="yes"/>
      <point x="296" y="33"/>
      <point x="296" y="2"/>
      <point x="261" y="2" type="curve" smooth="yes"/>
      <point x="229" y="2"/>
      <point x="223" y="27"/>
      <point x="223" y="64" type="curve" smooth="yes"/>
      <point x="223" y="83"/>
      <point x="225" y="106"/>
      <point x="225" y="129" type="curve" smooth="yes"/>
      <point x="225" y="584" type="line"/>
      <point x="10" y="489" type="line"/>
      <point x="-9" y="553" type="line"/>
      <point x="225" y="657" type="line"/>
      <point x="225" y="1044" type="line" smooth="yes"/>
      <point x="225" y="1085"/>
      <point x="224" y="1114"/>
      <point x="261" y="1114" type="curve" smooth="yes"/>
      <point x="296" y="1114"/>
      <point x="296" y="1083"/>
      <point x="296" y="1044" type="curve" smooth="yes"/>
      <point x="296" y="688" type="line"/>
      <point x="376" y="721"/>
      <point x="448" y="754"/>
      <point x="528" y="786" type="curve"/>
      <point x="548" y="723" type="line"/>
      <point x="484" y="692"/>
      <point x="424" y="666"/>
    </contour>
  </outline>
</glyph>
<glyph name="OE" format="1">
  <advance width="2379"/>
  <unicode hex="0152"/>
  <outline>
    <contour>
      <point x="1250" y="1008" type="line"/>
      <point x="1149" y="1051"/>
      <point x="1019" y="1069"/>
      <point x="857" y="1069" type="curve" smooth="yes"/>
      <point x="420" y="1069"/>
      <point x="208" y="929"/>
      <point x="208" y="557" type="curve" smooth="yes"/>
      <point x="208" y="185"/>
      <point x="420" y="45"/>
      <point x="857" y="45" type="curve" smooth="yes"/>
      <point x="1020" y="45"/>
      <point x="1149" y="64"/>
      <point x="1250" y="107" type="curve"/>
    </contour>
    <contour>
      <point x="2276" y="35" type="curve" smooth="yes"/>
      <point x="2276" y="2.6383"/>
      <point x="2251.9" y="-0.11589"/>
      <point x="2221.41" y="-0.11589" type="curve" smooth="yes"/>
      <point x="2215.16" y="-0.11589"/>
      <point x="2208.64" y="0"/>
      <point x="2202" y="0" type="curve" smooth="yes"/>
      <point x="1289" y="0" type="line" smooth="yes"/>
      <point x="1250" y="0"/>
      <point x="1250" y="0"/>
      <point x="1250" y="34" type="curve"/>
      <point x="1147" y="-2"/>
      <point x="1016" y="-21"/>
      <point x="857" y="-21" type="curve" smooth="yes"/>
      <point x="350" y="-21"/>
      <point x="123" y="168"/>
      <point x="123" y="557" type="curve" smooth="yes"/>
      <point x="123" y="946"/>
      <point x="350" y="1135"/>
      <point x="857" y="1135" type="curve" smooth="yes"/>
      <point x="1015" y="1135"/>
      <point x="1145" y="1119"/>
      <point x="1250" y="1081" type="curve"/>
      <point x="1250" y="1117.65"/>
      <point x="1253.71" y="1114"/>
      <point x="1287" y="1114" type="curve" smooth="yes"/>
      <point x="2200" y="1114" type="line" smooth="yes"/>
      <point x="2206.64" y="1114"/>
      <point x="2213.16" y="1114.12"/>
      <point x="2219.41" y="1114.12" type="curve" smooth="yes"/>
      <point x="2249.9" y="1114.12"/>
      <point x="2274" y="1111.36"/>
      <point x="2274" y="1079" type="curve" smooth="yes"/>
      <point x="2274" y="1049.57"/>
      <point x="2246.16" y="1047.98"/>
      <point x="2212.47" y="1047.98" type="curve" smooth="yes"/>
      <point x="2208.39" y="1047.98"/>
      <point x="2204.22" y="1048"/>
      <point x="2200" y="1048" type="curve" smooth="yes"/>
      <point x="1335" y="1048" type="line"/>
      <point x="1335" y="601" type="line"/>
      <point x="2173" y="601" type="line" smooth="yes"/>
      <point x="2179" y="601"/>
      <point x="2184.95" y="601.075"/>
      <point x="2190.72" y="601.075" type="curve" smooth="yes"/>
      <point x="2221.47" y="601.075"/>
      <point x="2247" y="598.947"/>
      <point x="2247" y="572" type="curve" smooth="yes"/>
      <point x="2247" y="543"/>
      <point x="2228" y="539"/>
      <point x="2202" y="539" type="curve" smooth="yes"/>
      <point x="2193" y="539"/>
      <point x="2183" y="540"/>
      <point x="2173" y="540" type="curve" smooth="yes"/>
      <point x="1335" y="540" type="line"/>
      <point x="1335" y="66" type="line"/>
      <point x="2202" y="66" type="line" smooth="yes"/>
      <point x="2206.22" y="66"/>
      <point x="2210.39" y="66.0234"/>
      <point x="2214.47" y="66.0234" type="curve" smooth="yes"/>
      <point x="2248.16" y="66.0234"/>
      <point x="2276" y="64.4324"/>
    </contour>
  </outline>
</glyph>
<glyph name="oe" format="1">
  <advance width="1819"/>
  <unicode hex="0153"/>
  <outline>
    <contour>
      <point x="614" y="-10" type="curve" smooth="yes"/>
      <point x="246" y="-10"/>
      <point x="123" y="141"/>
      <point x="123" y="385" type="curve" smooth="yes"/>
      <point x="123" y="667"/>
      <point x="274" y="786"/>
      <point x="614" y="786" type="curve" smooth="yes"/>
      <point x="791" y="786"/>
      <point x="899" y="753"/>
      <point x="966" y="681" type="curve"/>
      <point x="1050" y="758"/>
      <point x="1185" y="786"/>
      <point x="1346" y="786" type="curve" smooth="yes"/>
      <point x="1623" y="786"/>
      <point x="1761" y="676"/>
      <point x="1761" y="479" type="curve" smooth="yes"/>
      <point x="1761" y="443"/>
      <point x="1737" y="379"/>
      <point x="1717" y="379" type="curve" smooth="yes"/>
      <point x="996" y="379" type="line"/>
      <point x="996" y="137" type="line"/>
      <point x="1051" y="100"/>
      <point x="1175" y="49"/>
      <point x="1348" y="49" type="curve" smooth="yes"/>
      <point x="1475" y="49"/>
      <point x="1621" y="90"/>
      <point x="1685" y="122" type="curve" smooth="yes"/>
      <point x="1692" y="125"/>
      <point x="1699" y="127"/>
      <point x="1706" y="127" type="curve" smooth="yes"/>
      <point x="1723" y="127"/>
      <point x="1734" y="116"/>
      <point x="1734" y="101" type="curve" smooth="yes"/>
      <point x="1734" y="90"/>
      <point x="1728" y="78"/>
      <point x="1713" y="70" type="curve" smooth="yes"/>
      <point x="1597" y="10"/>
      <point x="1466" y="-10"/>
      <point x="1349" y="-10" type="curve" smooth="yes"/>
      <point x="1170" y="-10"/>
      <point x="1042" y="27"/>
      <point x="966" y="96" type="curve"/>
      <point x="903" y="27"/>
      <point x="799" y="-10"/>
    </contour>
    <contour>
      <point x="614" y="49" type="curve" smooth="yes"/>
      <point x="831" y="49"/>
      <point x="907" y="100"/>
      <point x="935" y="137" type="curve"/>
      <point x="935" y="649" type="line"/>
      <point x="899" y="681"/>
      <point x="817" y="727"/>
      <point x="614" y="727" type="curve" smooth="yes"/>
      <point x="323" y="727"/>
      <point x="203" y="633"/>
      <point x="203" y="385" type="curve" smooth="yes"/>
      <point x="203" y="222"/>
      <point x="250" y="49"/>
    </contour>
    <contour>
      <point x="996" y="431" type="line"/>
      <point x="1695" y="431" type="line"/>
      <point x="1698" y="452" type="line"/>
      <point x="1701" y="463"/>
      <point x="1702" y="477"/>
      <point x="1702" y="485" type="curve" smooth="yes"/>
      <point x="1702" y="618"/>
      <point x="1610" y="727"/>
      <point x="1346" y="727" type="curve" smooth="yes"/>
      <point x="1160" y="727"/>
      <point x="1049" y="680"/>
      <point x="996" y="648" type="curve"/>
    </contour>
  </outline>
</glyph>
<glyph name="uni0237" format="1">
  <advance width="483"/>
  <unicode hex="0237"/>
  <outline>
    <contour>
      <point x="359" y="714" type="curve" smooth="yes"/>
      <point x="359" y="94" type="line" smooth="yes"/>
      <point x="359" y="-45"/>
      <point x="355" y="-266"/>
      <point x="66" y="-266" type="curve" smooth="yes"/>
      <point x="31" y="-266"/>
      <point x="0" y="-266"/>
      <point x="0" y="-231" type="curve" smooth="yes"/>
      <point x="0" y="-196"/>
      <point x="31" y="-197"/>
      <point x="66" y="-197" type="curve" smooth="yes"/>
      <point x="287" y="-197"/>
      <point x="279" y="-45"/>
      <point x="279" y="94" type="curve" smooth="yes"/>
      <point x="279" y="714" type="line" smooth="yes"/>
      <point x="279" y="749"/>
      <point x="285" y="775"/>
      <point x="320" y="775" type="curve" smooth="yes"/>
      <point x="359" y="775"/>
      <point x="359" y="749"/>
    </contour>
  </outline>
</glyph>
<glyph name="circumflex" format="1">
  <advance width="482"/>
  <unicode hex="02C6"/>
  <outline>
    <contour>
      <point x="241" y="1110" type="line"/>
      <point x="111" y="892" type="line"/>
      <point x="35" y="892" type="line"/>
      <point x="188" y="1127" type="line" smooth="yes"/>
      <point x="204" y="1152"/>
      <point x="222" y="1165"/>
      <point x="241" y="1165" type="curve" smooth="yes"/>
      <point x="257" y="1165"/>
      <point x="277" y="1152"/>
      <point x="294" y="1127" type="curve" smooth="yes"/>
      <point x="447" y="892" type="line"/>
      <point x="371" y="892" type="line"/>
    </contour>
  </outline>
</glyph>
<glyph name="caron" format="1">
  <advance width="478"/>
  <unicode hex="02C7"/>
  <outline>
    <contour>
      <point x="149" y="1248" type="line"/>
      <point x="279" y="1030" type="line"/>
      <point x="409" y="1248" type="line"/>
      <point x="485" y="1248" type="line"/>
      <point x="332" y="1013" type="line" smooth="yes"/>
      <point x="315" y="988"/>
      <point x="295" y="975"/>
      <point x="279" y="975" type="curve" smooth="yes"/>
      <point x="260" y="975"/>
      <point x="242" y="988"/>
      <point x="226" y="1013" type="curve" smooth="yes"/>
      <point x="73" y="1248" type="line"/>
    </contour>
  </outline>
</glyph>
<glyph name="breve" format="1">
  <advance width="654"/>
  <unicode hex="02D8"/>
  <outline>
    <contour>
      <point x="507" y="1175" type="curve"/>
      <point x="544" y="1175" type="line"/>
      <point x="544" y="1095"/>
      <point x="520" y="989"/>
      <point x="359" y="989" type="curve" smooth="yes"/>
      <point x="193" y="989"/>
      <point x="174" y="1102"/>
      <point x="174" y="1175" type="curve"/>
      <point x="211" y="1175" type="line"/>
      <point x="213" y="1117"/>
      <point x="243" y="1041"/>
      <point x="359" y="1041" type="curve" smooth="yes"/>
      <point x="472" y="1041"/>
      <point x="502" y="1116"/>
    </contour>
  </outline>
</glyph>
<glyph name="ogonek" format="1">
  <advance width="293"/>
  <unicode hex="02DB"/>
  <outline>
    <contour>
      <point x="175" y="6" type="curve"/>
      <point x="205" y="6" type="line"/>
      <point x="158" y="-49"/>
      <point x="135" y="-108"/>
      <point x="135" y="-151" type="curve" smooth="yes"/>
      <point x="135" y="-206"/>
      <point x="165" y="-223"/>
      <point x="186" y="-223" type="curve" smooth="yes"/>
      <point x="213" y="-223"/>
      <point x="240" y="-204"/>
      <point x="257" y="-193" type="curve"/>
      <point x="267" y="-202" type="line"/>
      <point x="244" y="-249"/>
      <point x="192" y="-279"/>
      <point x="141" y="-279" type="curve" smooth="yes"/>
      <point x="96" y="-279"/>
      <point x="46" y="-251"/>
      <point x="46" y="-182" type="curve" smooth="yes"/>
      <point x="46" y="-118"/>
      <point x="100" y="-55"/>
    </contour>
  </outline>
</glyph>
<glyph name="hungarumlaut" format="1">
  <advance width="358"/>
  <unicode hex="02DD"/>
  <outline>
    <contour>
      <point x="499" y="1005" type="curve" smooth="yes"/>
      <point x="763" y="1271" type="line" smooth="yes"/>
      <point x="770" y="1278"/>
      <point x="779" y="1282"/>
      <point x="788" y="1282" type="curve" smooth="yes"/>
      <point x="811.562" y="1282"/>
      <point x="840" y="1255.25"/>
      <point x="840" y="1231" type="curve" smooth="yes"/>
      <point x="840" y="1220"/>
      <point x="835" y="1211"/>
      <point x="825" y="1203" type="curve" smooth="yes"/>
      <point x="533" y="966" type="line" smooth="yes"/>
      <point x="529" y="963"/>
      <point x="524" y="961"/>
      <point x="518" y="961" type="curve" smooth="yes"/>
      <point x="503" y="961"/>
      <point x="491" y="972"/>
      <point x="491" y="987" type="curve" smooth="yes"/>
      <point x="491" y="994"/>
      <point x="494.019" y="999.981"/>
    </contour>
    <contour>
      <point x="271" y="1005" type="curve" smooth="yes"/>
      <point x="535" y="1271" type="line" smooth="yes"/>
      <point x="542" y="1278"/>
      <point x="551" y="1282"/>
      <point x="560" y="1282" type="curve" smooth="yes"/>
      <point x="583.562" y="1282"/>
      <point x="612" y="1255.25"/>
      <point x="612" y="1231" type="curve" smooth="yes"/>
      <point x="612" y="1220"/>
      <point x="607" y="1211"/>
      <point x="597" y="1203" type="curve" smooth="yes"/>
      <point x="305" y="966" type="line" smooth="yes"/>
      <point x="301" y="963"/>
      <point x="296" y="961"/>
      <point x="290" y="961" type="curve" smooth="yes"/>
      <point x="275" y="961"/>
      <point x="263" y="972"/>
      <point x="263" y="987" type="curve" smooth="yes"/>
      <point x="263" y="994"/>
      <point x="266.019" y="999.981"/>
    </contour>
  </outline>
</glyph>
<glyph name="uni0307" format="1">
  <advance width="245"/>
  <unicode hex="0307"/>
  <outline>
    <contour>
      <point x="104" y="1055" type="curve" smooth="yes"/>
      <point x="104" y="1090"/>
      <point x="127" y="1114"/>
      <point x="162" y="1114" type="curve" smooth="yes"/>
      <point x="195" y="1114"/>
      <point x="222" y="1090"/>
      <point x="222" y="1055" type="curve" smooth="yes"/>
      <point x="222" y="1022"/>
      <point x="195" y="999"/>
      <point x="162" y="999" type="curve" smooth="yes"/>
      <point x="127" y="999"/>
      <point x="104" y="1022"/>
    </contour>
  </outline>
</glyph>
